<?xml version="1.0" encoding="UTF-8" standalone="no"?><!-- Generator: Gravit.io -->
<svg xmlns="http://www.w3.org/2000/svg" style="isolation:isolate"
     viewBox="0 0 263 72.4" width="263pt" height="72.4pt">
    <defs>
        <clipPath id="_clipPath_lzDIUbBOVYP0FeU5ckAkrYxd7XpwMgOu">
            <rect width="263" height="72.4"/>
        </clipPath>
    </defs>
    <g clip-path="url(#_clipPath_lzDIUbBOVYP0FeU5ckAkrYxd7XpwMgOu)">
        <g>
            <g>
                <path d=" M 25.5 20.4 C 25.6 20.5 25.7 20.5 25.7 20.5 C 34.2 20.2 39 23.4 39.4 24.7 L 42.8 24.6 L 43.9 22.3 C 44 22.1 43.9 21.8 43.9 21.8 C 42.9 20.7 34.4 18.2 24.1 18.2 C 13.1 18.2 6.2 20.4 4.7 21.4 C 4.7 21.4 4.3 21.6 4.3 21.9 C 4.3 22 4.5 22.5 4.5 22.5 L 4.8 23.1 C 4.9 23.3 5 23.3 5.2 23.1 C 5.2 23.1 5.4 23 5.4 22.9 C 5.4 22.8 5.3 22.5 5.3 22.5 C 5.1 22.1 5.4 22 5.4 22 L 6 21.7 C 6.3 21.6 6.3 21.8 6.4 22 C 6.4 22 6.5 22.3 6.6 22.4 C 6.8 22.5 7.3 22.2 8.7 21.8 C 8.8 21.8 8.9 21.8 9.1 21.7 C 9.2 21.6 9.1 21.1 9.1 21.1 C 9 20.9 8.9 20.6 9.5 20.5 L 10.4 20.3 C 10.8 20.2 10.9 20.4 10.9 20.7 C 10.9 20.7 10.9 21.1 11 21.2 C 11.1 21.4 11.3 21.1 14.2 20.8 C 14.2 20.8 14.6 20.8 14.7 20.6 C 14.8 20.4 14.7 20.1 14.7 20.1 C 14.7 19.8 14.5 19.5 15.2 19.5 L 16.4 19.4 C 17.3 19.2 17.2 19.6 17.2 19.9 C 17.2 19.9 17.2 20.3 17.3 20.3 C 17.4 20.4 17.7 20.4 17.7 20.4 C 19.3 20.2 20.2 20.2 21.9 20.2 C 21.9 20.2 22.1 20.2 22.2 20.1 C 22.3 20 22.3 19.9 22.3 19.9 C 22.3 19.7 22.3 19.4 22.4 19.3 C 22.5 19.2 22.8 19.2 23 19.2 L 24.4 19.2 C 24.6 19.2 25.1 19.1 25.2 19.3 C 25.3 19.4 25.3 20 25.3 20 C 25.3 20 25.5 20.3 25.5 20.4 Z "
                      fill="rgb(75,156,211)"/>
                <path d=" M 24.1 6.7 C 15.8 6.7 10.8 9.4 7.5 12.5 C 7.5 12.5 7.4 12.6 7.4 12.6 C 7.3 12.8 7.3 13 7.7 12.9 C 14.8 9.9 22.5 11.8 25 14.6 C 25.1 14.7 25 14.8 24.9 14.8 C 22.4 14.8 20.3 14.7 15.7 15.3 C 13.2 15.7 11 16 9.1 16.5 C 6 17.3 3.8 18.3 2.6 19.1 C 2.2 19.3 2.1 19.5 2 19.7 C 1.9 20.1 1.9 20.1 1.8 20.4 C 1.6 20.9 1.6 21.2 1.5 21.4 C 1.4 21.7 1.8 21.6 2 21.4 C 2.4 21 3.4 20.1 4.9 19.4 C 6.4 18.7 8.9 17.9 11.7 17.4 C 15.3 16.7 19.8 16.3 23.8 16.3 C 28.5 16.3 32.7 16.8 36.2 17.5 C 39.8 18.2 42.6 19.2 44.4 20.1 C 45.3 20.5 45.7 20.9 46.3 21.4 C 46.8 21.9 46.8 21.5 46.8 21.3 C 46.8 21.3 46.7 20.7 46 19.3 C 43.6 15 37.4 6.7 24.1 6.7 Z "
                      fill="rgb(75,156,211)"/>
                <g>
                    <path d=" M 24.6 67.9 C 8.2 67.9 0 64.1 0 61.9 L 0 61.9 L 0 59.8 C 0 59.8 0 59.7 0.1 59.7 C 0.1 59.7 0.2 59.7 0.2 59.7 C 7.3 65.1 24.1 65.8 31.4 63.4 C 31.6 63.3 31.7 63.2 31.7 63.2 C 31.7 63.2 31.6 63.1 31.6 63.1 C 31.4 63 31.3 63 31.1 63.1 C 31 63.1 30.9 63.1 30.8 63.1 C 19.3 64.3 7.2 62 3.1 59.1 C 3.1 59.1 3 59 3 59 L 3 56.5 C 3 56.4 3 56.4 3.1 56.4 C 3.2 56.4 3.2 56.4 3.2 56.4 C 3.7 56.9 5.8 57.9 9.8 58.7 C 12.8 59.3 17.7 60.1 24.2 60.1 C 34 60.1 42.2 58.3 44.4 57.1 C 44.9 56.8 45.2 56.6 45.2 56.5 C 45.2 56.4 45.3 56.4 45.3 56.4 C 45.4 56.4 45.4 56.5 45.4 56.5 L 45.5 58 C 48 58 48.9 58.1 49 58.7 C 49 58.7 49 58.8 49 58.9 C 49 58.9 49 58.9 49 58.9 L 49.1 61.8 C 49.2 64 40.5 67.9 24.6 67.9 Z "
                          fill="rgb(75,156,211)"/>
                </g>
                <path d=" M 34.3 22.7 L 29.8 22.7 C 29.6 22.7 29.5 22.8 29.5 23 L 29.5 23.5 C 29.5 23.7 29.6 23.8 29.8 23.8 L 31.2 23.8 C 31.3 23.8 31.4 23.9 31.4 23.9 C 31.5 24 31.2 24.2 31.1 24.2 L 30.4 24.6 C 30.3 24.7 30.2 24.8 30.2 25 L 30.2 57.3 C 30.3 57.9 31.2 57.9 32.2 57.9 C 33 57.9 34 57.9 34.1 57.3 C 34.1 57.3 34.1 26.5 34.1 23.9 C 34.1 23.8 34.2 23.7 34.2 23.7 C 34.2 23.7 34.4 23.7 34.4 23.7 C 34.6 23.7 34.7 23.6 34.7 23.4 L 34.7 22.9 C 34.6 22.8 34.5 22.7 34.3 22.7 Z "
                      fill="rgb(75,156,211)"/>
                <g>
                    <path d=" M 24.3 56.2 C 22.9 56.2 21.5 56.2 21.4 56.1 C 21.2 56 21.2 55.2 21.3 54.6 C 21.3 54.6 21.3 54.5 21.4 54.5 L 21.9 54.3 L 21.9 48.3 C 21.9 48.3 21.9 48.2 21.9 48 C 22 47.8 22.1 47.7 22.2 47.7 C 22.6 47.4 23.5 46.8 24 46.5 C 24.1 46.5 24.1 46.4 24.1 46.4 C 24.1 46.4 24.1 46.3 24.1 46.3 C 24.1 46.2 23.9 46.2 23.8 46.2 C 23.7 46.2 23.7 46.2 23.7 46.2 C 23.6 46.2 23.5 46.2 22.3 46.2 C 22.3 46.2 22.1 46.2 21.9 46.1 C 21.8 46.1 21.7 46 21.7 46 C 21.7 46 21.7 46 21.7 46 L 21.3 45.1 L 21 45.1 C 21 45.1 20.9 45.1 20.9 45.1 C 20.9 45.1 20.9 45 20.9 45 L 20.9 44.8 C 20.9 44.7 21 44.7 21 44.7 L 27.3 44.7 C 27.4 44.7 27.4 44.8 27.4 44.8 L 27.4 45 C 27.4 45 27.4 45.1 27.4 45.1 C 27.4 45.1 27.3 45.1 27.3 45.1 L 27.1 45.1 L 26.5 46.3 L 26.5 54.3 L 27 54.5 C 27 54.5 27.1 54.6 27.1 54.6 C 27.2 55.5 27.2 56 27 56.1 C 26.9 56.1 25.6 56.2 24.3 56.2 Z "
                          fill="rgb(75,156,211)"/>
                </g>
                <path d=" M 43.1 24.5 L 38.6 24.5 C 38.4 24.5 38.3 24.6 38.3 24.8 L 38.3 25.3 C 38.3 25.5 38.4 25.6 38.6 25.6 L 40 25.6 C 40.1 25.6 40.2 25.7 40.2 25.7 C 40.3 25.8 40 26 39.9 26 L 39.2 26.4 C 39.1 26.5 39 26.6 39 26.8 L 39 56 C 39.1 56.6 40 56.6 41 56.6 C 41.8 56.6 42.8 56.6 42.9 56 C 42.9 56 42.9 28.4 42.9 25.7 C 42.9 25.6 43 25.5 43 25.5 C 43 25.5 43.2 25.5 43.2 25.5 C 43.4 25.5 43.5 25.4 43.5 25.2 L 43.5 24.7 C 43.4 24.6 43.3 24.5 43.1 24.5 Z "
                      fill="rgb(75,156,211)"/>
                <path d=" M 18.4 22.7 L 13.9 22.7 C 13.7 22.7 13.6 22.8 13.6 23 L 13.6 23.5 C 13.6 23.7 13.7 23.8 13.9 23.8 L 15.3 23.8 C 15.4 23.8 15.5 23.9 15.5 23.9 C 15.6 24 15.3 24.2 15.2 24.2 L 14.5 24.6 C 14.4 24.7 14.3 24.8 14.3 25 L 14.3 57.3 C 14.4 57.9 15.3 57.9 16.3 57.9 C 17.1 57.9 18.1 57.9 18.2 57.3 C 18.2 57.3 18.2 26.5 18.2 23.9 C 18.2 23.8 18.3 23.7 18.3 23.7 C 18.3 23.7 18.5 23.7 18.5 23.7 C 18.7 23.7 18.8 23.6 18.8 23.4 L 18.8 22.9 C 18.7 22.8 18.6 22.7 18.4 22.7 Z "
                      fill="rgb(75,156,211)"/>
                <path d=" M 9.6 24.6 L 5.1 24.6 C 4.9 24.6 4.8 24.7 4.8 24.9 L 4.8 25.4 C 4.8 25.6 4.9 25.7 5.1 25.7 L 6.5 25.7 C 6.6 25.7 6.7 25.8 6.7 25.8 C 6.8 25.9 6.5 26.1 6.4 26.1 L 5.7 26.5 C 5.6 26.6 5.5 26.7 5.5 26.9 L 5.5 56.1 C 5.6 56.7 6.5 56.7 7.5 56.7 C 8.3 56.7 9.3 56.6 9.4 56.1 C 9.4 56.1 9.4 28.5 9.4 25.8 C 9.4 25.7 9.5 25.6 9.5 25.6 C 9.5 25.6 9.7 25.6 9.7 25.6 C 9.9 25.6 10 25.5 10 25.3 L 10 24.8 C 9.9 24.7 9.8 24.6 9.6 24.6 Z "
                      fill="rgb(75,156,211)"/>
            </g>
            <line x1="68" y1="0" x2="68" y2="72.4" vector-effect="non-scaling-stroke" stroke-width="0.8"
                  stroke="rgb(75,156,211)" stroke-linejoin="miter" stroke-linecap="butt" stroke-miterlimit="10"/>
            <g>
                <path d=" M 98.4 16 L 97.8 16 C 97.6 14.7 97.4 14.4 96.5 14.4 L 95 14.4 L 95 19.8 C 95 20.9 95.2 21.1 96.4 21.1 L 96.4 21.7 L 91.3 21.7 L 91.3 21.1 C 92.6 21.1 92.7 20.9 92.7 19.8 L 92.7 14.4 L 91.2 14.4 C 90.6 14.4 90.2 14.6 90 16 L 89.4 16 L 89.6 13.4 L 90.2 13.4 C 90.3 13.5 90.3 13.5 90.4 13.6 C 90.5 13.6 90.6 13.6 90.8 13.6 L 96.7 13.6 C 97.3 13.6 97.4 13.6 97.5 13.4 L 98.1 13.4 L 98.4 16 Z "
                      fill="rgb(75,156,211)"/>
                <path d=" M 108.7 17.1 L 108.7 15.5 C 108.7 14.5 108.5 14.2 107.6 14.2 L 107.6 13.6 L 112 13.6 L 112 14.2 C 111 14.2 110.9 14.5 110.9 15.3 L 110.9 19.8 C 110.9 20.7 111 21.1 112 21.1 L 112 21.7 L 107.6 21.7 L 107.6 21.1 C 108.4 21.1 108.7 20.9 108.7 19.8 L 108.7 17.9 L 104.8 17.9 L 104.8 19.8 C 104.8 20.6 104.9 21 105.9 21 L 105.9 21.6 L 101.4 21.6 L 101.4 21 C 102.3 21 102.5 20.8 102.5 19.7 L 102.5 15.3 C 102.5 14.3 102.2 14 101.4 14 L 101.4 13.4 L 105.9 13.4 L 105.9 14 C 105 14.1 104.8 14.2 104.8 15.2 L 104.8 16.9 L 108.7 16.9 L 108.7 17.1 Z "
                      fill="rgb(75,156,211)"/>
            </g>
            <g>
                <path d=" M 122.9 13.6 L 123 15.5 L 122.4 15.5 C 122.3 14.6 122.1 14.4 121.4 14.4 L 118.8 14.4 L 118.8 17.2 L 120.5 17.2 C 121.4 17.2 121.7 17 121.7 16.2 L 122.3 16.2 L 122.3 18.9 L 121.7 18.9 C 121.7 18.2 121.5 18 120.5 18 L 118.8 18 L 118.8 20.1 C 118.8 20.8 118.9 20.8 119.6 20.8 L 121.1 20.8 C 122.2 20.8 122.5 20.3 122.7 19.4 L 123.3 19.4 L 123.1 21.6 L 115.2 21.6 L 115.2 21 C 116.4 21 116.6 20.7 116.6 19.8 L 116.6 15.3 C 116.6 14.2 116.2 14.1 115.3 14.1 L 115.3 13.5 L 122.9 13.5 L 122.9 13.6 Z "
                      fill="rgb(75,156,211)"/>
                <path d=" M 141.6 13.6 L 141.6 14.2 C 140.5 14.2 140.3 14.4 140.3 15.4 L 140.3 18.3 C 140.3 20.9 138.7 21.9 136.5 21.9 C 134.1 21.9 132.6 20.8 132.6 18.9 L 132.6 15.5 C 132.6 14.6 132.4 14.2 131.5 14.2 L 131.5 13.6 L 135.9 13.6 L 135.9 14.2 C 135 14.2 134.7 14.5 134.7 15.3 L 134.7 18.8 C 134.7 20 135.4 20.8 137 20.8 C 138.7 20.8 139.4 19.9 139.4 18.2 L 139.4 15.5 C 139.4 14.5 139.2 14.2 138.1 14.2 L 138.1 13.6 L 141.6 13.6 Z "
                      fill="rgb(75,156,211)"/>
            </g>
            <g>
                <path d=" M 154.7 13.6 L 154.7 14.2 C 153.8 14.2 153.5 14.5 153.5 15.4 L 153.5 21.8 L 152.5 21.8 L 146.6 15.6 L 146.6 19.9 C 146.6 20.8 146.7 21.1 147.8 21.1 L 147.8 21.7 L 144.5 21.7 L 144.5 21.1 C 145.4 21.1 145.7 20.9 145.7 19.8 L 145.7 14.6 C 145.5 14.4 145.2 14.3 144.6 14.3 L 144.6 13.7 L 147.7 13.7 L 152.6 19 L 152.6 15.5 C 152.6 14.7 152.5 14.3 151.4 14.3 L 151.4 13.7 L 154.7 13.7 L 154.7 13.6 Z "
                      fill="rgb(75,156,211)"/>
                <path d=" M 157.8 21.7 L 157.8 21.1 C 158.7 21.1 158.9 20.8 158.9 19.9 L 158.9 15.4 C 158.9 14.5 158.7 14.1 157.8 14.1 L 157.8 13.5 L 162.3 13.5 L 162.3 14.1 C 161.3 14.1 161.1 14.4 161.1 15.4 L 161.1 19.8 C 161.1 20.6 161.2 21 162.3 21 L 162.3 21.6 L 157.8 21.6 L 157.8 21.7 Z "
                      fill="rgb(75,156,211)"/>
            </g>
            <g>
                <path d=" M 174.5 14.2 C 173.6 14.2 173.3 14.4 172.7 15.7 L 169.9 21.9 L 168.9 21.9 L 166.2 15.8 C 165.5 14.3 165.4 14.2 164.5 14.2 L 164.5 13.6 L 169.4 13.6 L 169.4 14.2 C 168.4 14.2 168.1 14.4 168.1 14.7 C 168.1 14.9 168.2 15.1 168.3 15.5 L 170 19.3 L 171.5 16 C 171.9 15.2 172 14.9 172 14.7 C 172 14.4 171.7 14.2 170.9 14.2 L 170.9 13.6 L 174.5 13.6 L 174.5 14.2 L 174.5 14.2 Z "
                      fill="rgb(75,156,211)"/>
                <path d=" M 183.7 13.6 L 183.8 15.5 L 183.2 15.5 C 183.1 14.6 182.9 14.4 182.2 14.4 L 179.6 14.4 L 179.6 17.2 L 181.3 17.2 C 182.2 17.2 182.5 17 182.5 16.2 L 183.1 16.2 L 183.1 18.9 L 182.5 18.9 C 182.5 18.2 182.3 18 181.3 18 L 179.6 18 L 179.6 20.1 C 179.6 20.8 179.7 20.8 180.4 20.8 L 181.9 20.8 C 183 20.8 183.3 20.3 183.5 19.4 L 184.1 19.4 L 183.9 21.6 L 176 21.6 L 176 21 C 177.2 21 177.4 20.7 177.4 19.8 L 177.4 15.3 C 177.4 14.2 177 14.1 176.1 14.1 L 176.1 13.5 L 183.7 13.5 L 183.7 13.6 Z "
                      fill="rgb(75,156,211)"/>
            </g>
            <path d=" M 198.2 21.8 L 196.6 21.8 C 195.4 21.8 194.7 21.6 194.1 21 C 193.3 20.2 192.5 18.8 191.9 18.2 L 191.2 18.2 L 191.2 19.9 C 191.2 20.9 191.6 21 192.6 21 L 192.6 21.6 L 187.7 21.6 L 187.7 21 C 188.8 21 189.1 20.8 189.1 19.9 L 189.1 15.4 C 189.1 14.4 188.9 14.2 187.7 14.2 L 187.7 13.6 C 188.5 13.5 189 13.5 190.1 13.5 C 190.9 13.5 191.7 13.4 192.2 13.4 C 194.3 13.4 196.2 13.8 196.2 15.8 C 196.2 16.8 195.6 17.5 194.3 17.9 C 195.1 18.6 195.6 19.7 196.4 20.5 C 197 21.1 197.5 21.2 198.2 21.2 L 198.2 21.8 L 198.2 21.8 Z  M 191.2 17.6 C 193.1 17.6 193.8 17 193.8 15.7 C 193.8 14.7 193.1 14 191.9 14 L 191.3 14 L 191.3 17.6 L 191.2 17.6 Z "
                  fill="rgb(75,156,211)"/>
            <g>
                <path d=" M 200.5 19.3 C 200.9 20.5 201.7 21.3 202.8 21.3 C 203.6 21.3 204.1 20.8 204.1 20.1 C 204.1 18.4 200 18.2 200 15.7 C 200 14.8 200.6 13.4 202.8 13.4 C 203.8 13.4 204.4 13.7 204.8 13.7 C 204.9 13.7 205 13.7 205.1 13.5 L 205.5 13.5 L 205.7 15.8 L 205.1 15.8 C 204.7 14.7 203.8 14.1 202.9 14.1 C 202.2 14.1 201.8 14.4 201.8 14.9 C 201.8 16.3 206.1 16.6 206.1 19.4 C 206.1 20.9 204.9 21.9 203.1 21.9 C 202.2 21.9 201.2 21.6 201 21.6 C 200.8 21.6 200.7 21.7 200.7 21.8 L 200.3 21.8 L 199.9 19.2 L 200.5 19.2 L 200.5 19.3 Z "
                      fill="rgb(75,156,211)"/>
                <path d=" M 209.4 21.7 L 209.4 21.1 C 210.3 21.1 210.5 20.8 210.5 19.9 L 210.5 15.4 C 210.5 14.5 210.3 14.1 209.4 14.1 L 209.4 13.5 L 213.9 13.5 L 213.9 14.1 C 212.9 14.1 212.7 14.4 212.7 15.4 L 212.7 19.8 C 212.7 20.6 212.8 21 213.9 21 L 213.9 21.6 L 209.4 21.6 L 209.4 21.7 Z "
                      fill="rgb(75,156,211)"/>
                <path d=" M 225.5 16 L 224.9 16 C 224.7 14.7 224.5 14.4 223.6 14.4 L 222.1 14.4 L 222.1 19.8 C 222.1 20.9 222.3 21.1 223.5 21.1 L 223.5 21.7 L 218.5 21.7 L 218.5 21.1 C 219.8 21.1 219.9 20.9 219.9 19.8 L 219.9 14.4 L 218.4 14.4 C 217.8 14.4 217.4 14.6 217.2 16 L 216.6 16 L 216.8 13.4 L 217.4 13.4 C 217.5 13.5 217.5 13.5 217.6 13.6 C 217.7 13.6 217.8 13.6 218 13.6 L 223.9 13.6 C 224.5 13.6 224.6 13.6 224.7 13.4 L 225.3 13.4 L 225.5 16 Z "
                      fill="rgb(75,156,211)"/>
            </g>
            <path d=" M 237.3 14.2 C 236.4 14.2 236.2 14.4 235.5 15.5 L 233.6 18.4 L 233.6 19.8 C 233.6 20.7 233.7 21 234.9 21 L 234.9 21.6 L 230.1 21.6 L 230.1 21 C 231.2 21 231.4 20.7 231.4 19.8 L 231.4 18.5 L 229 15.3 C 228.4 14.5 228.1 14.3 227.4 14.3 L 227.4 13.7 L 232.1 13.7 L 232.1 14.3 C 231.5 14.3 231.2 14.4 231.2 14.6 C 231.2 14.7 231.3 14.9 231.4 15 L 233.2 17.5 L 234.5 15.4 C 234.7 15 234.8 14.8 234.8 14.6 C 234.8 14.3 234.6 14.2 233.9 14.2 L 233.9 13.6 L 237.2 13.6 L 237.2 14.2 L 237.3 14.2 Z "
                  fill="rgb(75,156,211)"/>
            <g>
                <path d=" M 93.7 34.7 C 94.7 34.7 95.3 35.6 95.3 36.9 C 95.3 39.5 92.9 41.1 91.3 41.1 C 90.3 41.1 89.7 40.2 89.7 39 C 89.7 36.8 91.7 34.7 93.7 34.7 Z  M 92.2 40.5 C 92.8 40.5 93.6 39 93.6 37.2 C 93.6 36.2 93.2 35.4 92.8 35.4 C 92.2 35.4 91.4 36.9 91.4 38.7 C 91.4 39.7 91.8 40.5 92.2 40.5 Z "
                      fill="rgb(75,156,211)"/>
                <path d=" M 98.9 40.4 C 98.7 41.5 98.4 42.5 97.4 43.4 C 96.8 44 96.1 44.4 95.1 44.4 C 94.2 44.4 93.6 44 93.6 43.5 C 93.6 43.1 94 42.8 94.4 42.8 C 95.3 42.8 95.3 43.9 96 43.9 C 96.5 43.9 96.9 43.3 97 42.3 L 98.1 35.6 L 97 35.6 L 97.1 35.2 C 97.5 35.2 98 35.1 98.3 34.9 C 98.6 32.8 99.8 31 101.9 31 C 102.8 31 103.3 31.3 103.3 31.8 C 103.3 32.2 102.9 32.6 102.5 32.6 C 101.7 32.6 101.4 31.6 100.9 31.6 C 100.5 31.6 100.4 32.1 100.2 33.4 L 100 34.9 L 101.1 34.9 L 101 35.6 L 99.9 35.6 L 98.9 40.4 Z "
                      fill="rgb(75,156,211)"/>
            </g>
            <g>
                <path d=" M 119 32.8 L 119 33.4 C 118.1 33.4 117.8 33.7 117.8 34.6 L 117.8 41 L 116.8 41 L 110.9 34.8 L 110.9 39.1 C 110.9 40 111 40.3 112.1 40.3 L 112.1 40.9 L 108.8 40.9 L 108.8 40.3 C 109.7 40.3 110 40.1 110 39 L 110 33.8 C 109.8 33.6 109.5 33.5 108.9 33.5 L 108.9 32.9 L 112 32.9 L 116.9 38.2 L 116.9 34.7 C 116.9 33.9 116.8 33.5 115.7 33.5 L 115.7 32.9 L 119 32.9 L 119 32.8 Z "
                      fill="rgb(75,156,211)"/>
                <path d=" M 126.1 41.1 C 122.4 41.1 121.3 38.7 121.3 36.9 C 121.3 34.7 122.9 32.6 126.4 32.6 C 130 32.6 131.1 35 131.1 36.8 C 131.1 38.5 130 41.1 126.1 41.1 Z  M 126 33.3 C 124.8 33.3 123.6 34.1 123.6 36.4 C 123.6 38.9 124.8 40.6 126.5 40.6 C 127.8 40.6 128.8 39.6 128.8 37.5 C 128.8 35 127.7 33.3 126 33.3 Z "
                      fill="rgb(75,156,211)"/>
            </g>
            <g>
                <path d=" M 144 41.1 L 142.4 41.1 C 141.2 41.1 140.5 40.9 139.9 40.3 C 139.1 39.5 138.3 38.1 137.7 37.5 L 137 37.5 L 137 39.2 C 137 40.2 137.4 40.3 138.4 40.3 L 138.4 40.9 L 133.5 40.9 L 133.5 40.3 C 134.6 40.3 134.9 40.1 134.9 39.2 L 134.9 34.7 C 134.9 33.7 134.7 33.5 133.5 33.5 L 133.5 32.9 C 134.3 32.9 134.8 32.8 135.9 32.8 C 136.7 32.8 137.5 32.7 138 32.7 C 140.1 32.7 142 33.1 142 35.1 C 142 36.1 141.4 36.8 140.1 37.2 C 140.9 37.9 141.4 39 142.2 39.8 C 142.8 40.4 143.3 40.5 144 40.5 L 144 41.1 L 144 41.1 Z  M 137 36.9 C 138.9 36.9 139.6 36.3 139.6 35 C 139.6 34 138.9 33.3 137.7 33.3 L 137.1 33.3 L 137.1 36.9 L 137 36.9 Z "
                      fill="rgb(75,156,211)"/>
                <path d=" M 154.3 35.2 L 153.7 35.2 C 153.5 33.9 153.3 33.6 152.4 33.6 L 150.9 33.6 L 150.9 39 C 150.9 40.1 151.1 40.3 152.3 40.3 L 152.3 40.9 L 147.3 40.9 L 147.3 40.3 C 148.6 40.3 148.7 40.1 148.7 39 L 148.7 33.6 L 147.2 33.6 C 146.6 33.6 146.2 33.8 146 35.2 L 145.4 35.2 L 145.6 32.6 L 146.2 32.6 C 146.3 32.7 146.3 32.7 146.4 32.8 C 146.5 32.8 146.6 32.8 146.8 32.8 L 152.7 32.8 C 153.3 32.8 153.4 32.8 153.5 32.6 L 154.1 32.6 L 154.3 35.2 Z "
                      fill="rgb(75,156,211)"/>
            </g>
            <g>
                <path d=" M 164.4 36.4 L 164.4 34.8 C 164.4 33.8 164.2 33.5 163.3 33.5 L 163.3 32.9 L 167.7 32.9 L 167.7 33.5 C 166.8 33.5 166.6 33.8 166.6 34.6 L 166.6 39.1 C 166.6 40 166.7 40.4 167.7 40.4 L 167.7 41 L 163.3 41 L 163.3 40.4 C 164.1 40.4 164.4 40.2 164.4 39.1 L 164.4 37.2 L 160.5 37.2 L 160.5 39.1 C 160.5 39.9 160.6 40.3 161.6 40.3 L 161.6 40.9 L 157.1 40.9 L 157.1 40.3 C 158 40.3 158.2 40.1 158.2 39 L 158.2 34.6 C 158.2 33.6 157.9 33.4 157.1 33.4 L 157.1 32.8 L 161.6 32.8 L 161.6 33.4 C 160.7 33.5 160.5 33.6 160.5 34.6 L 160.5 36.3 L 164.4 36.3 L 164.4 36.4 Z "
                      fill="rgb(75,156,211)"/>
                <path d=" M 185 38.4 C 184.9 39.1 184.6 40.1 184.2 41 L 184.2 41.1 C 184.1 41.1 184 41 183.8 41 C 183.7 41 183.5 41 183.4 41 C 183 41 182.7 41 182.3 41.1 C 181.9 41.1 181.5 41.2 181 41.2 C 179.3 41.2 178.1 40.6 177.3 39.8 C 176.6 39 176.2 38 176.2 37.1 C 176.2 35.8 176.7 34.7 177.6 33.9 C 178.5 33.1 179.8 32.7 181.3 32.7 C 182.7 32.7 183.5 33.1 183.8 33.1 C 183.9 33.1 184 33 184 32.9 L 184.5 32.9 L 184.6 35.6 L 184 35.6 C 183.9 34.9 183.5 34.4 183.1 34 C 182.7 33.6 182.1 33.4 181.4 33.4 C 179.7 33.4 178.5 34.8 178.5 36.8 C 178.5 38.9 179.7 40.4 181.6 40.4 C 182.8 40.4 183.8 39.7 184.4 38.4 L 185 38.4 L 185 38.4 Z "
                      fill="rgb(75,156,211)"/>
            </g>
            <g>
                <path d=" M 196.5 40.9 L 191.8 40.9 L 191.8 40.3 C 192.7 40.3 193 40.2 193 39.9 C 193 39.7 192.9 39.4 192.7 38.9 L 192.4 38.1 L 189.5 38.1 L 189.3 38.8 C 189.1 39.3 189 39.7 189 39.8 C 189 40.2 189.4 40.3 190.1 40.3 L 190.1 40.9 L 186.8 40.9 L 186.8 40.3 C 187.8 40.3 187.9 40.1 188.3 38.7 L 190.3 32.9 L 190.2 32.6 L 192.5 32.6 L 194.9 38.8 C 195.4 40 195.7 40.3 196.4 40.3 L 196.4 40.9 L 196.5 40.9 Z  M 190.9 34.3 L 189.8 37.4 L 192.1 37.4 L 190.9 34.3 Z "
                      fill="rgb(75,156,211)"/>
                <path d=" M 209.4 41.1 L 207.8 41.1 C 206.6 41.1 205.9 40.9 205.3 40.3 C 204.5 39.5 203.7 38.1 203.1 37.5 L 202.5 37.5 L 202.5 39.2 C 202.5 40.2 202.9 40.3 203.9 40.3 L 203.9 40.9 L 199 40.9 L 199 40.3 C 200.1 40.3 200.4 40.1 200.4 39.2 L 200.4 34.7 C 200.4 33.7 200.2 33.5 199 33.5 L 199 32.9 C 199.8 32.9 200.3 32.8 201.4 32.8 C 202.2 32.8 203 32.7 203.5 32.7 C 205.6 32.7 207.5 33.1 207.5 35.1 C 207.5 36.1 206.9 36.8 205.6 37.2 C 206.4 37.9 206.9 39 207.7 39.8 C 208.3 40.4 208.8 40.5 209.5 40.5 L 209.5 41.1 L 209.4 41.1 Z  M 202.5 36.9 C 204.4 36.9 205.1 36.3 205.1 35 C 205.1 34 204.4 33.3 203.2 33.3 L 202.5 33.3 L 202.5 36.9 Z "
                      fill="rgb(75,156,211)"/>
            </g>
            <g>
                <path d=" M 215.6 41.1 C 211.9 41.1 210.8 38.7 210.8 36.9 C 210.8 34.7 212.4 32.6 215.9 32.6 C 219.5 32.6 220.6 35 220.6 36.8 C 220.6 38.5 219.5 41.1 215.6 41.1 Z  M 215.5 33.3 C 214.3 33.3 213.1 34.1 213.1 36.4 C 213.1 38.9 214.3 40.6 216 40.6 C 217.3 40.6 218.3 39.6 218.3 37.5 C 218.3 35 217.1 33.3 215.5 33.3 Z "
                      fill="rgb(75,156,211)"/>
                <path d=" M 228 32.8 L 228 33.4 C 226.9 33.4 226.7 33.6 226.7 34.6 L 226.7 39.1 C 226.7 39.9 226.8 40 227.7 40 L 228.7 40 C 229.5 40 229.8 40 230.9 38.5 L 231.5 38.5 L 230.5 40.9 L 223.3 40.9 L 223.3 40.3 C 224.4 40.3 224.6 40 224.6 39 L 224.6 34.6 C 224.6 33.7 224.5 33.4 223.3 33.4 L 223.3 32.8 L 228 32.8 L 228 32.8 Z "
                      fill="rgb(75,156,211)"/>
            </g>
            <g>
                <path d=" M 234 40.9 L 234 40.3 C 234.9 40.3 235.1 40 235.1 39.1 L 235.1 34.6 C 235.1 33.7 234.9 33.4 234 33.4 L 234 32.8 L 238.5 32.8 L 238.5 33.4 C 237.5 33.4 237.3 33.7 237.3 34.6 L 237.3 39 C 237.3 39.8 237.4 40.2 238.5 40.2 L 238.5 40.8 L 234 40.8 L 234 40.9 Z "
                      fill="rgb(75,156,211)"/>
                <path d=" M 252 32.8 L 252 33.4 C 251.1 33.4 250.8 33.7 250.8 34.6 L 250.8 41 L 249.8 41 L 243.9 34.8 L 243.9 39.1 C 243.9 40 244 40.3 245.1 40.3 L 245.1 40.9 L 241.8 40.9 L 241.8 40.3 C 242.7 40.3 243 40.1 243 39 L 243 33.8 C 242.8 33.6 242.5 33.5 241.9 33.5 L 241.9 32.9 L 245 32.9 L 249.9 38.2 L 249.9 34.7 C 249.9 33.9 249.8 33.5 248.7 33.5 L 248.7 32.9 L 252 32.9 L 252 32.8 Z "
                      fill="rgb(75,156,211)"/>
            </g>
            <path d=" M 263 40.9 L 258.3 40.9 L 258.3 40.3 C 259.2 40.3 259.5 40.2 259.5 39.9 C 259.5 39.7 259.4 39.4 259.2 38.9 L 258.9 38.1 L 256 38.1 L 255.8 38.8 C 255.6 39.3 255.5 39.7 255.5 39.8 C 255.5 40.2 255.9 40.3 256.6 40.3 L 256.6 40.9 L 253.3 40.9 L 253.3 40.3 C 254.3 40.3 254.4 40.1 254.8 38.7 L 256.8 32.9 L 256.7 32.6 L 259 32.6 L 261.4 38.8 C 261.9 40 262.2 40.3 262.9 40.3 L 262.9 40.9 L 263 40.9 Z  M 257.4 34.3 L 256.3 37.4 L 258.6 37.4 L 257.4 34.3 Z "
                  fill="rgb(75,156,211)"/>
            <g>
                <path d=" M 94.4 58.7 C 94.3 59 94.3 59.3 94.5 59.3 C 94.7 59.3 95.2 58.8 95.5 58.4 L 95.5 58.9 C 94.7 59.7 93.9 60.3 93.4 60.3 C 93 60.3 92.8 60 92.8 59.4 C 92.8 59.1 92.8 59 92.9 58.5 L 92.9 58.5 C 92 59.5 91.1 60.3 90.7 60.3 C 90.4 60.3 89.7 59.9 89.7 58.9 C 89.7 57.9 90 56.7 91.3 55.4 C 92.5 54.2 93.6 53.9 95.5 53.9 L 94.4 58.7 Z  M 93.6 54.8 C 92.8 54.8 92.4 55 91.9 55.5 C 91.4 56 91 57.1 91 57.9 C 91 58.5 91.2 58.9 91.6 58.9 C 91.9 58.9 92.4 58.4 93 57.8 L 93.6 54.8 Z "
                      fill="rgb(75,156,211)"/>
                <path d=" M 99.1 58.9 C 99 59.2 99.2 59.4 99.4 59.4 C 99.6 59.4 100.1 59 100.5 58.5 L 100.8 58.8 C 100 59.7 99 60.3 98.3 60.3 C 97.7 60.3 97.4 59.9 97.5 59 L 98.4 54.7 L 97.7 54.7 L 97.8 54.4 C 98.8 54.1 99.6 53.3 100.5 52.1 L 100.9 52.1 C 100.6 52.7 100.4 53.3 100.2 54.1 L 101.4 54.1 L 101.3 54.8 L 100.1 54.8 L 99.1 58.9 Z "
                      fill="rgb(75,156,211)"/>
            </g>
            <g>
                <path d=" M 117.7 57.6 C 117.6 58.3 117.3 59.3 116.9 60.2 L 116.9 60.3 C 116.8 60.3 116.7 60.2 116.5 60.2 C 116.4 60.2 116.2 60.2 116.1 60.2 C 115.7 60.2 115.4 60.2 115 60.3 C 114.6 60.3 114.2 60.4 113.7 60.4 C 112 60.4 110.8 59.8 110 59 C 109.3 58.2 108.9 57.2 108.9 56.3 C 108.9 55 109.4 53.9 110.3 53.1 C 111.2 52.3 112.5 51.9 114 51.9 C 115.4 51.9 116.2 52.3 116.5 52.3 C 116.6 52.3 116.7 52.2 116.7 52.1 L 117.2 52.1 L 117.3 54.8 L 116.7 54.8 C 116.6 54.1 116.2 53.6 115.8 53.2 C 115.3 52.8 114.8 52.6 114.1 52.6 C 112.4 52.6 111.2 54 111.2 56 C 111.2 58.1 112.4 59.6 114.3 59.6 C 115.5 59.6 116.5 58.9 117.1 57.6 L 117.7 57.6 L 117.7 57.6 Z "
                      fill="rgb(75,156,211)"/>
                <path d=" M 127.9 55.6 L 127.9 54 C 127.9 53 127.7 52.7 126.8 52.7 L 126.8 52.1 L 131.2 52.1 L 131.2 52.7 C 130.3 52.7 130.1 53 130.1 53.8 L 130.1 58.3 C 130.1 59.2 130.2 59.6 131.2 59.6 L 131.2 60.2 L 126.8 60.2 L 126.8 59.6 C 127.6 59.6 127.9 59.4 127.9 58.3 L 127.9 56.4 L 124 56.4 L 124 58.3 C 124 59.1 124.1 59.5 125.1 59.5 L 125.1 60.1 L 120.6 60.1 L 120.6 59.5 C 121.5 59.5 121.7 59.3 121.7 58.2 L 121.7 53.8 C 121.7 52.8 121.4 52.6 120.6 52.6 L 120.6 52 L 125.1 52 L 125.1 52.6 C 124.2 52.7 124 52.8 124 53.8 L 124 55.5 L 127.9 55.5 L 127.9 55.6 Z "
                      fill="rgb(75,156,211)"/>
            </g>
            <g>
                <path d=" M 143 60.2 L 138.3 60.2 L 138.3 59.6 C 139.2 59.6 139.5 59.5 139.5 59.2 C 139.5 59 139.4 58.7 139.2 58.2 L 138.9 57.4 L 136 57.4 L 135.8 58.1 C 135.6 58.6 135.5 59 135.5 59.1 C 135.5 59.5 135.9 59.6 136.6 59.6 L 136.6 60.2 L 133.3 60.2 L 133.3 59.6 C 134.3 59.6 134.4 59.4 134.8 58 L 136.8 52.2 L 136.7 51.9 L 139 51.9 L 141.4 58.1 C 141.9 59.3 142.2 59.6 142.9 59.6 L 142.9 60.2 L 143 60.2 Z  M 137.4 53.5 L 136.3 56.6 L 138.6 56.6 L 137.4 53.5 Z "
                      fill="rgb(75,156,211)"/>
                <path d=" M 146.4 54.3 C 146.4 52.9 146.3 52.8 145.2 52.7 L 145.2 52.1 C 145.9 52.1 146.9 52 147.8 52 C 148.7 52 149.4 51.9 149.6 51.9 C 151.8 51.9 153.2 52.8 153.2 54.4 C 153.2 55.5 152.4 56.9 150 56.9 C 149.6 56.9 149 56.8 148.6 56.8 L 148.6 58.5 C 148.6 59.3 148.8 59.5 150.1 59.5 L 150.1 60.1 L 145.3 60.1 L 145.3 59.5 C 146.2 59.5 146.5 59.2 146.5 58.2 L 146.5 54.3 L 146.4 54.3 Z  M 148.6 56.1 C 148.8 56.2 149 56.2 149.2 56.2 C 150.3 56.2 150.9 55.5 150.9 54.3 C 150.9 53.2 150.3 52.5 149.3 52.5 C 149 52.5 148.8 52.5 148.6 52.6 L 148.6 56.1 Z "
                      fill="rgb(75,156,211)"/>
            </g>
            <g>
                <path d=" M 163.4 52.1 L 163.5 54 L 162.9 54 C 162.8 53.1 162.6 52.9 162 52.9 L 159.4 52.9 L 159.4 55.7 L 161.1 55.7 C 162 55.7 162.3 55.5 162.3 54.7 L 162.9 54.7 L 162.9 57.4 L 162.3 57.4 C 162.3 56.7 162.1 56.5 161.1 56.5 L 159.4 56.5 L 159.4 58.6 C 159.4 59.3 159.5 59.3 160.2 59.3 L 161.7 59.3 C 162.8 59.3 163.1 58.8 163.3 57.9 L 163.9 57.9 L 163.7 60.1 L 155.8 60.1 L 155.8 59.5 C 157 59.5 157.2 59.2 157.2 58.3 L 157.2 53.8 C 157.2 52.7 156.8 52.6 155.9 52.6 L 155.9 52 L 163.4 52 L 163.4 52.1 Z "
                      fill="rgb(75,156,211)"/>
                <path d=" M 171.9 52.1 L 171.9 52.7 C 170.8 52.7 170.6 52.9 170.6 53.9 L 170.6 58.4 C 170.6 59.2 170.7 59.3 171.6 59.3 L 172.6 59.3 C 173.4 59.3 173.7 59.3 174.8 57.8 L 175.4 57.8 L 174.4 60.2 L 167.2 60.2 L 167.2 59.6 C 168.3 59.6 168.5 59.3 168.5 58.3 L 168.5 53.9 C 168.5 53 168.4 52.7 167.2 52.7 L 167.2 52.1 L 171.9 52.1 L 171.9 52.1 Z "
                      fill="rgb(75,156,211)"/>
            </g>
            <g>
                <path d=" M 190.3 55.6 L 190.3 54 C 190.3 53 190.1 52.7 189.2 52.7 L 189.2 52.1 L 193.6 52.1 L 193.6 52.7 C 192.6 52.7 192.5 53 192.5 53.8 L 192.5 58.3 C 192.5 59.2 192.6 59.6 193.6 59.6 L 193.6 60.2 L 189.2 60.2 L 189.2 59.6 C 190 59.6 190.3 59.4 190.3 58.3 L 190.3 56.4 L 186.4 56.4 L 186.4 58.3 C 186.4 59.1 186.5 59.5 187.5 59.5 L 187.5 60.1 L 183 60.1 L 183 59.5 C 183.9 59.5 184.1 59.3 184.1 58.2 L 184.1 53.8 C 184.1 52.8 183.8 52.6 183 52.6 L 183 52 L 187.5 52 L 187.5 52.6 C 186.6 52.7 186.4 52.8 186.4 53.8 L 186.4 55.5 L 190.3 55.5 L 190.3 55.6 Z "
                      fill="rgb(75,156,211)"/>
                <path d=" M 197.1 60.2 L 197.1 59.6 C 198 59.6 198.2 59.3 198.2 58.4 L 198.2 53.9 C 198.2 53 198 52.7 197.1 52.7 L 197.1 52.1 L 201.6 52.1 L 201.6 52.7 C 200.6 52.7 200.4 53 200.4 53.9 L 200.4 58.3 C 200.4 59.1 200.5 59.5 201.6 59.5 L 201.6 60.1 L 197.1 60.1 L 197.1 60.2 Z "
                      fill="rgb(75,156,211)"/>
            </g>
            <g>
                <path d=" M 209.4 52.1 L 209.4 52.7 C 208.3 52.7 208.1 52.9 208.1 53.9 L 208.1 58.4 C 208.1 59.2 208.2 59.3 209.1 59.3 L 210.1 59.3 C 210.9 59.3 211.2 59.3 212.3 57.8 L 212.9 57.8 L 211.9 60.2 L 204.7 60.2 L 204.7 59.6 C 205.8 59.6 206 59.3 206 58.3 L 206 53.9 C 206 53 205.9 52.7 204.7 52.7 L 204.7 52.1 L 209.4 52.1 L 209.4 52.1 Z "
                      fill="rgb(75,156,211)"/>
                <path d=" M 219.1 52.1 L 219.1 52.7 C 218 52.7 217.8 52.9 217.8 53.9 L 217.8 58.4 C 217.8 59.2 217.9 59.3 218.8 59.3 L 219.8 59.3 C 220.6 59.3 220.9 59.3 222 57.8 L 222.6 57.8 L 221.6 60.2 L 214.4 60.2 L 214.4 59.6 C 215.5 59.6 215.7 59.3 215.7 58.3 L 215.7 53.9 C 215.7 53 215.6 52.7 214.4 52.7 L 214.4 52.1 L 219.1 52.1 L 219.1 52.1 Z "
                      fill="rgb(75,156,211)"/>
            </g>
        </g>
    </g>
</svg>