<?xml version="1.0" encoding="UTF-8" standalone="no"?><!-- Generator: Gravit.io --><svg xmlns="http://www.w3.org/2000/svg" xmlns:xlink="http://www.w3.org/1999/xlink" style="isolation:isolate" viewBox="0 0 101 267.3" width="101pt" height="267.3pt"><defs><clipPath id="_clipPath_irbqRdgIRHPjPWZyCf5UqkY0EdeYaBFW"><rect width="101" height="267.3"/></clipPath></defs><g clip-path="url(#_clipPath_irbqRdgIRHPjPWZyCf5UqkY0EdeYaBFW)"><clipPath id="_clipPath_RBPLx2vYNWkOvNfwNENzQRzbPlIRyCWM"><rect x="0" y="0" width="101" height="267.3" transform="matrix(1,0,0,1,0,0)" fill="rgb(255,255,255)"/></clipPath><g clip-path="url(#_clipPath_RBPLx2vYNWkOvNfwNENzQRzbPlIRyCWM)"><g><g><path d=" M 18.506 139.347 L 18.506 167.206 L 71.881 167.206 L 71.881 143.912 L 18.506 139.347 Z " fill="rgb(94,76,119)"/><path d=" M 93.436 119.043 C 90.353 126.575 75.289 123.951 75.289 123.951 L 78.082 155.555 L 51.745 155.555 L 48.543 144.991 L 43.993 155.555 L 12.908 155.555 L 14.504 134.525 L 15.132 126.276 C 15.132 126.276 1.614 128.231 0.138 117.775 C -0.211 115.312 0.078 105.245 1.285 95.269 C 2.213 87.657 3.67 80.095 5.794 76.035 C 9.575 68.803 30.376 65.07 30.376 65.07 L 64.734 66.337 C 64.734 66.337 80.657 68.901 84.866 74.728 C 89.575 81.242 95.64 113.625 93.436 119.043 Z " fill="rgb(167,104,150)"/><path d=" M 56.537 106.052 C 56.537 106.604 56.09 107.05 55.537 107.05 C 54.985 107.05 54.538 106.604 54.538 106.052 C 54.538 105.5 54.985 105.053 55.537 105.053 C 56.09 105.053 56.537 105.5 56.537 106.052 Z " fill="rgb(253,198,99)"/><path d=" M 81.898 143.748 C 81.898 143.748 61.944 138.384 53.748 167.206 L 76.432 167.206 L 81.038 144.195" fill="rgb(117,82,129)"/><path d=" M 74.347 105.363 L 73.213 84.499 C 73.213 84.499 71.545 91.466 72.213 94.673 C 70.116 93.014 70.329 94.784 71.66 97.105 C 68.679 97.327 68.956 103.438 68.956 103.438 L 74.347 105.363 Z " fill="rgb(137,93,126)"/><path d=" M 18.308 103.438 L 19.13 86.766 C 19.13 86.766 20.906 90.139 19.768 97.327 C 20.354 96.552 22.036 92.571 23.351 93.069 C 24.667 93.567 20.83 99.785 20.83 99.785 L 25.486 98.212 C 25.486 98.212 26.215 103.688 18.308 103.438 Z " fill="rgb(137,93,126)"/><path d=" M 30.377 65.073 L 23.351 77.751 L 33.096 78.754 L 28.869 83.333 L 46.987 100.328 L 46.987 97.327 L 30.377 65.073 Z " fill="rgb(137,93,126)"/><path d=" M 64.73 66.336 L 72.532 77.751 L 62.788 78.754 L 66.43 83.333 L 46.987 100.328 L 46.987 97.327 L 64.73 66.336 Z " fill="rgb(137,93,126)"/><path d=" M 58.1 67.375 L 46.986 94.021 L 35.883 66.697 L 36.362 56.062 L 36.661 49.539 L 37.01 41.737 L 55.097 43.303 L 55.696 48.122 L 56.713 56.252 L 58.1 67.375 Z " fill="rgb(232,188,155)"/><path d=" M 47.47 60.515 C 42.148 60.515 38.222 57.717 36.362 56.062 L 36.661 49.539 L 55.696 48.122 L 56.713 56.252 C 55.237 58.087 52.443 60.423 47.774 60.512 C 47.673 60.514 47.571 60.515 47.47 60.515 Z " fill="rgb(213,172,141)"/><path d=" M 24.77 28.186 C 24.77 28.186 23.524 9.379 25.117 7.562 C 26.71 5.743 31.801 6.834 31.801 6.834 C 31.801 6.834 46.193 -1.65 56.997 0.288 C 67.802 2.228 68.045 8.531 68.045 8.531 C 68.045 8.531 71.196 16.45 69.62 26.37 C 60.65 37.865 24.77 28.186 24.77 28.186 Z " fill="rgb(230,230,230)"/><path d=" M 25.869 27.373 C 25.869 27.373 20.907 55.478 46.716 55.574 C 72.018 55.669 66.683 25.317 66.683 25.317 C 66.683 25.317 61.635 17.653 60.293 10.835 C 53.898 10.237 46.123 23.902 34.09 13.259 C 31.685 27.562 25.869 27.373 25.869 27.373 Z " fill="rgb(232,188,155)"/><path d=" M 62.866 37.179 C 62.866 38.972 61.413 40.426 59.619 40.426 C 57.825 40.426 56.372 38.972 56.372 37.179 C 56.372 35.386 57.825 33.932 59.619 33.932 C 61.413 33.932 62.866 35.386 62.866 37.179 Z " fill="rgb(236,175,156)"/><path d=" M 37.429 36.883 C 37.429 38.727 35.934 40.222 34.09 40.222 C 32.245 40.222 30.75 38.727 30.75 36.883 C 30.75 35.038 32.245 33.544 34.09 33.544 C 35.934 33.544 37.429 35.038 37.429 36.883 Z " fill="rgb(236,175,156)"/><path d=" M 28.381 30.017 C 28.381 30.017 25.575 22.673 21.462 25.611 C 17.35 28.549 21.492 40.593 25.737 36.48" fill="rgb(232,188,155)"/><path d=" M 64.73 30.017 C 64.73 30.017 67.536 22.673 71.649 25.611 C 75.762 28.549 70.761 40.54 66.516 36.427" fill="rgb(232,188,155)"/><path d=" M 40.529 31.666 C 40.529 32.503 39.85 33.183 39.013 33.183 C 38.175 33.183 37.497 32.503 37.497 31.666 C 37.497 30.829 38.123 30.725 38.961 30.725 C 39.798 30.725 40.529 30.829 40.529 31.666 Z " fill="rgb(71,48,84)"/><path d=" M 55.609 31.628 C 55.609 32.465 54.93 33.145 54.093 33.145 C 53.255 33.145 52.577 32.465 52.577 31.628 C 52.577 30.791 53.203 30.687 54.041 30.687 C 54.878 30.687 55.609 30.791 55.609 31.628 Z " fill="rgb(71,48,84)"/><path d=" M 22.18 240.539 L 24.721 258.419 L 37.71 257.169 L 36.882 239.814 L 22.18 240.539 Z " fill="rgb(254,254,254)"/><path d=" M 22.18 265.316 C 22.18 265.316 17.638 254.675 31.619 253.243 C 43.653 252.01 42.992 262.954 42.992 262.954" fill="rgb(76,55,103)"/><path d=" M 28.427 256.718 C 28.427 256.718 22.992 251.276 30.287 250.441 C 37.581 249.606 34.925 255.131 34.925 255.131" fill="rgb(76,55,103)"/><path d=" M 35.789 258.469 C 35.906 259.356 33.988 258.328 31.826 258.612 C 29.665 258.897 28.077 260.385 27.961 259.496 C 27.844 258.607 29.243 255.679 31.404 255.396 C 33.565 255.112 35.672 257.58 35.789 258.469 Z " fill="rgb(98,81,123)"/><path d=" M 21.363 263.865 C 20.767 264.685 21.453 267.131 22.452 267.313 C 23.45 267.495 42.306 265.58 43.271 264.812 C 44.234 264.046 44.012 261.808 43.356 260.946 C 42.699 260.084 22.09 262.866 21.363 263.865 Z " fill="rgb(94,76,119)"/><path d=" M 64.927 236.002 L 58.574 251.975 L 46.148 247.128 L 50.926 230.305 L 64.927 236.002 Z " fill="rgb(254,254,254)"/><path d=" M 38.457 247.256 L 33.459 247.876 L 22.235 249.253 C 22.235 249.253 8.129 186.392 5.266 170.061 C 3.83 161.88 5.884 155.575 9.156 151.216 C 11.381 148.252 14.175 146.198 16.838 145.05 C 22.844 142.466 37.968 145.49 39.873 157.52 C 41.779 169.552 38.457 247.256 38.457 247.256 Z " fill="rgb(117,82,129)"/><path d=" M 22.235 249.253 C 22.235 249.253 18 230.379 13.7 210.628 C 12.758 206.305 11.813 201.935 10.909 197.716 C 8.407 186.036 6.216 175.484 5.266 170.061 C 4.947 168.24 4.8 166.511 4.801 164.877 C 4.805 159.169 6.613 154.604 9.156 151.216 C 9.895 153.191 9.645 155.445 9.695 157.711 C 9.795 162.728 10.513 167.706 11.301 172.654 C 13.875 188.736 17.167 204.708 21.188 220.49 C 22.485 225.598 23.861 230.716 25.996 235.534 C 27.942 239.944 30.496 244.055 33.459 247.876 L 23.399 249.11 L 22.235 249.253 Z " fill="rgb(104,73,115)"/><path d=" M 99.861 165.222 C 95.112 176.445 63.677 241.899 63.677 241.899 L 47.695 236.473 C 47.695 236.473 48.822 231.525 50.528 224.053 C 55.057 204.14 63.657 166.299 65.762 156.384 C 68.665 142.756 79.829 141.37 86.921 142.457 C 89.495 142.845 92.838 144.771 95.621 147.655 C 99.8 151.983 102.713 158.488 99.861 165.222 Z " fill="rgb(117,82,129)"/><path d=" M 63.677 241.899 L 62.712 241.572 L 49.044 236.931 L 47.695 236.473 C 47.695 236.473 48.822 231.525 50.528 224.053 C 52.553 222.904 54.528 221.678 56.394 220.281 C 61.063 216.77 64.854 212.241 68.335 207.561 C 75.548 197.875 81.604 187.289 85.993 176.037 C 89.236 167.727 92.455 160.138 94.643 148.871 C 94.741 148.365 95.271 148.043 95.621 147.655 C 98.641 150.783 101.001 155.047 101 159.714 C 101 161.505 100.652 163.354 99.861 165.222 C 99.267 166.626 98.255 168.878 96.939 171.746 C 95.281 175.36 93.141 179.948 90.746 185.044 C 89.988 186.656 89.204 188.321 88.402 190.02 C 88.049 190.766 87.695 191.517 87.336 192.276 C 86.491 194.065 85.631 195.882 84.761 197.716 C 81.951 203.648 79.051 209.743 76.339 215.43 C 72.627 223.214 69.263 230.246 66.936 235.103 C 64.915 239.322 63.677 241.899 63.677 241.899 Z " fill="rgb(104,73,115)"/><path d=" M 46.733 29.329 C 45.355 29.453 43.813 37.163 46.816 37.42 C 49.82 37.676 49.347 29.091 46.733 29.329 Z " fill="rgb(227,161,141)"/><path d=" M 33.191 26.774 C 33.527 28.567 42.172 27.509 42.009 25.268 C 41.847 23.029 32.497 23.076 33.191 26.774 Z " fill="rgb(230,230,230)"/><path d=" M 59.429 28.236 C 58.651 29.887 50.552 26.686 51.273 24.559 C 51.994 22.432 61.032 24.831 59.429 28.236 Z " fill="rgb(230,230,230)"/><path d=" M 41.791 39.671 C 41.791 39.671 47.783 39.706 52.578 38.753 C 51.686 45.26 42.174 44.411 41.791 39.671 Z " fill="rgb(254,254,254)"/><path d=" M 40.459 250.224 C 40.459 250.224 41.499 238.7 54.49 244.062 C 65.674 248.677 59.906 258.002 59.906 258.002" fill="rgb(76,55,103)"/><path d=" M 50.032 245.609 C 50.032 245.609 47.825 238.244 54.644 240.963 C 61.464 243.683 56.508 247.292 56.508 247.292" fill="rgb(76,55,103)"/><path d=" M 55.688 250.639 C 55.369 251.477 54.168 249.664 52.129 248.888 C 50.091 248.115 47.988 248.674 48.306 247.837 C 48.624 246.999 51.243 245.082 53.281 245.856 C 55.319 246.631 56.006 249.801 55.688 250.639 Z " fill="rgb(98,81,123)"/><path d=" M 40.427 248.558 C 39.512 248.998 38.958 251.478 39.753 252.112 C 40.546 252.744 58.059 259.989 59.271 259.77 C 60.483 259.552 61.347 257.477 61.177 256.405 C 61.008 255.335 41.539 248.022 40.427 248.558 Z " fill="rgb(94,76,119)"/><path d=" M 19.13 242.006 L 21.141 249.386 L 39.371 247.145 L 40.459 240.361 L 19.13 242.006 Z " fill="rgb(138,110,161)"/><path d=" M 48.225 229.377 L 46.925 236.086 L 64.927 242.718 L 68.569 236.751 L 48.225 229.377 Z " fill="rgb(138,110,161)"/><path d=" M 18.954 107.289 L 19.768 103.438 L 62.866 103.438 L 18.954 107.289 Z " fill="rgb(147,93,134)"/><path d=" M 14.256 137.785 L 15.129 126.281 L 15.132 126.28 L 14.504 134.525 L 14.256 137.785 Z  M 76.506 137.711 L 76.506 137.711 L 75.289 123.951 C 75.289 123.951 75.291 123.951 75.293 123.951 L 76.506 137.711 Z  M 12.643 126.42 C 12.563 126.42 12.484 126.42 12.402 126.419 C 12.484 126.42 12.563 126.42 12.643 126.42 L 12.643 126.42 Z  M 12.645 126.42 C 14.131 126.42 15.132 126.276 15.132 126.276 L 15.132 126.276 C 15.132 126.276 14.132 126.42 12.645 126.42 Z " fill="rgb(171,75,117)"/><path d=" M 14.247 137.908 L 14.256 137.785 L 14.504 134.525 L 15.132 126.28 L 15.132 126.28 L 15.132 126.276 L 15.132 126.276 C 15.132 126.276 14.131 126.42 12.645 126.42 C 12.644 126.42 12.644 126.42 12.643 126.42 C 12.563 126.42 12.484 126.42 12.402 126.419 C 8.435 126.377 1.419 125.27 0.193 118.127 C 0.193 118.125 0.193 118.122 0.192 118.12 C 0.189 118.101 0.186 118.082 0.183 118.063 C 0.167 117.968 0.152 117.873 0.138 117.775 C 0.047 117.135 0 115.982 0 114.451 C 0.001 110.088 0.391 102.654 1.285 95.269 C 1.365 98.341 1.645 101.415 2.143 104.457 C 2.971 109.584 4.508 114.862 8.149 118.573 C 11.451 121.935 16.16 123.632 20.849 124.14 C 21.624 124.224 22.4 124.27 23.177 124.3 L 49.848 117.741 L 62.866 113.916 L 54.746 118.935 L 75.293 123.946 L 75.293 123.951 C 75.291 123.951 75.289 123.951 75.289 123.951 L 76.505 137.711 L 51.58 123.946 L 14.247 137.908 Z " fill="rgb(147,93,134)"/><path d=" M 58.478 103.823 C 58.478 103.823 63.908 107.17 62.866 113.915 C 67.07 107.584 68.727 105.818 68.727 105.818 L 74.347 105.363 C 74.347 105.363 65.584 95.444 58.478 103.823 Z " fill="rgb(232,188,155)"/><path d=" M 33.717 105.994 C 33.717 105.994 29.226 100.328 27.379 100.328 C 25.532 100.328 18.308 103.438 18.308 103.438 L 18.128 107.362 L 33.717 105.994 Z " fill="rgb(232,188,155)"/><path d=" M 33.717 60.18 L 30.377 65.073 L 46.987 97.327 L 64.73 66.336 L 59.501 60.18 L 47.184 67.166 L 33.717 60.18 Z " fill="rgb(254,254,254)"/><path d=" M 47.184 67.166 L 42.821 73.544 L 47.554 76.037 L 51.355 73.322 L 47.184 67.166 Z " fill="rgb(253,198,99)"/><path d=" M 45.734 72.901 L 42.174 87.98 L 46.987 97.327 L 52.237 88.157 L 48.086 72.901" fill="rgb(253,198,99)"/><path d=" M 56.537 103.993 L 59.76 101.911 C 59.76 101.911 65.239 105.553 65.568 112.336 C 64.314 114.177 62.866 113.915 62.866 113.915 C 62.866 113.915 61.621 107.188 56.537 103.993 Z " fill="rgb(254,254,254)"/><path d=" M 31.139 106.22 L 32.327 103.769 L 37.583 105.656 L 31.139 106.22 Z " fill="rgb(254,254,254)"/><path d=" M 33.631 11.746 C 33.631 11.746 36.631 15.036 34.986 19.293 C 34.405 17.164 32.76 14.745 32.76 14.745" fill="rgb(230,230,230)"/><path d=" M 65.947 16.487 C 65.947 16.487 65.56 32.219 65.947 31.996 C 66.334 31.774 68.85 27.904 68.463 22.68" fill="rgb(230,230,230)"/><path d=" M 27.342 23.756 L 27.342 33.183 C 27.342 33.183 24.633 29.356 25.795 23.26" fill="rgb(230,230,230)"/><path d=" M 31.697 7.779 C 31.697 7.779 31.792 4.393 34.309 3.424 C 33.438 4.876 33.153 6.908 33.153 6.908" fill="rgb(230,230,230)"/><path d=" M 32.76 7.198 C 32.76 7.198 30.632 2.844 27.149 4.586 C 30.439 5.94 30.377 7.779 30.377 7.779" fill="rgb(230,230,230)"/></g><g><g><path d=" M 44.561 31.781 C 44.557 31.781 44.553 31.781 44.549 31.781 C 44.44 31.775 44.357 31.683 44.363 31.576 C 44.364 31.567 44.42 30.628 44.42 30.44 C 44.42 30.04 45.692 29.351 46.994 29.351 C 47.103 29.351 47.192 29.438 47.192 29.545 C 47.192 29.652 47.103 29.739 46.994 29.739 C 45.819 29.739 44.937 30.305 44.816 30.472 C 44.812 30.721 44.761 31.562 44.759 31.599 C 44.753 31.702 44.665 31.781 44.561 31.781 Z " fill="rgb(0,0,0)"/><path d=" M 49.349 31.781 C 49.245 31.781 49.157 31.702 49.151 31.599 C 49.149 31.562 49.098 30.721 49.094 30.472 C 48.973 30.305 48.091 29.739 46.916 29.739 C 46.807 29.739 46.718 29.652 46.718 29.545 C 46.718 29.438 46.807 29.351 46.916 29.351 C 48.218 29.351 49.49 30.04 49.49 30.44 C 49.49 30.628 49.546 31.567 49.547 31.576 C 49.553 31.683 49.47 31.775 49.361 31.781 C 49.357 31.781 49.353 31.781 49.349 31.781 Z " fill="rgb(0,0,0)"/></g><path d=" M 55.882 26.968 C 54.422 26.968 53.121 27.258 52.06 27.826 C 50.754 28.526 49.935 29.584 49.692 30.886 C 49.206 33.49 52.077 36.066 55.964 36.512 C 58.033 36.749 59.969 36.45 61.416 35.67 C 62.724 34.965 63.555 33.917 63.82 32.64 C 64.339 30.141 61.43 27.592 57.467 27.075 C 56.922 27.004 56.392 26.968 55.882 26.968 Z  M 57.329 36.95 C 56.858 36.95 56.377 36.922 55.889 36.866 C 51.746 36.391 48.687 33.63 49.209 30.837 C 49.467 29.456 50.378 28.284 51.774 27.536 C 53.314 26.711 55.312 26.429 57.552 26.721 C 59.592 26.988 61.423 27.755 62.709 28.882 C 64.01 30.022 64.576 31.376 64.302 32.695 L 64.061 32.668 L 64.302 32.695 C 64.017 34.068 63.118 35.197 61.704 35.96 C 60.497 36.61 58.979 36.95 57.329 36.95 Z " fill="rgb(0,0,0)"/><path d=" M 38.277 26.551 C 39.736 26.599 41.027 26.93 42.069 27.533 C 43.351 28.274 44.136 29.358 44.337 30.667 C 44.739 33.286 41.785 35.768 37.886 36.087 C 35.81 36.257 33.885 35.896 32.464 35.07 C 31.18 34.322 30.383 33.248 30.159 31.964 C 29.721 29.449 32.712 26.996 36.689 26.607 C 37.236 26.553 37.767 26.535 38.277 26.551 Z  M 36.507 36.481 C 36.978 36.496 37.46 36.484 37.95 36.444 C 42.106 36.104 45.252 33.443 44.821 30.634 C 44.608 29.246 43.735 28.045 42.365 27.252 C 40.852 26.377 38.864 26.031 36.615 26.251 C 34.569 26.451 32.713 27.159 31.391 28.243 C 30.054 29.34 29.445 30.675 29.676 32.002 L 29.917 31.983 L 29.676 32.002 C 29.916 33.384 30.778 34.541 32.167 35.35 C 33.352 36.039 34.859 36.428 36.507 36.481 Z " fill="rgb(0,0,0)"/><path d=" M 29.962 30.86 C 29.962 30.86 28.724 30.86 27.711 30.86 C 26.698 30.86 26.698 31.245 27.711 31.245 C 28.724 31.245 29.737 31.245 29.737 31.245 L 29.962 30.86 Z " fill="rgb(0,0,0)"/><path d=" M 63.943 31.387 C 63.943 31.387 64.926 31.387 65.731 31.387 C 66.535 31.387 66.535 31.772 65.731 31.772 C 64.926 31.772 64.121 31.772 64.121 31.772 L 63.943 31.387 Z " fill="rgb(0,0,0)"/></g></g></g></g></svg>