<?xml version="1.0" encoding="UTF-8" standalone="no"?><!-- Generator: Gravit.io --><svg xmlns="http://www.w3.org/2000/svg" xmlns:xlink="http://www.w3.org/1999/xlink" style="isolation:isolate" viewBox="0 0 88.9 109.7" width="88.9pt" height="109.7pt"><defs><clipPath id="_clipPath_r3PaXEZewKa0wn7qymJYbXxf3xez3c2p"><rect width="88.9" height="109.7"/></clipPath></defs><g clip-path="url(#_clipPath_r3PaXEZewKa0wn7qymJYbXxf3xez3c2p)"><g><path d=" M 87.162 81.698 L 87.162 91.23 L 83.724 91.23 L 83.724 107.053 L 5.223 107.053 L 5.223 91.23 L 1.786 91.23 L 1.786 81.698 L 0 81.698 L 0 91.23 L 0 100.152 L 0 107.053 L 0 109.684 L 5.223 109.684 L 83.724 109.684 L 86.396 109.684 L 88.947 109.684 L 88.947 100.152 L 88.947 91.23 L 88.947 81.698 L 87.162 81.698 Z " fill="rgb(68,69,74)"/><path d=" M 87.162 54.466 L 87.162 63.998 L 83.724 63.998 L 83.724 79.82 L 5.223 79.82 L 5.223 63.998 L 1.786 63.998 L 1.786 54.466 L 0 54.466 L 0 63.998 L 0 72.919 L 0 79.82 L 0 82.451 L 5.223 82.451 L 83.724 82.451 L 86.396 82.451 L 88.947 82.451 L 88.947 72.919 L 88.947 63.998 L 88.947 54.466 L 87.162 54.466 Z " fill="rgb(68,69,74)"/><path d=" M 87.162 27.233 L 87.162 36.765 L 83.724 36.765 L 83.724 52.589 L 5.223 52.589 L 5.223 36.765 L 1.786 36.765 L 1.786 27.233 L 0 27.233 L 0 36.765 L 0 45.686 L 0 52.589 L 0 55.218 L 5.223 55.218 L 83.724 55.218 L 86.396 55.218 L 88.947 55.218 L 88.947 45.686 L 88.947 36.765 L 88.947 27.233 L 87.162 27.233 Z " fill="rgb(68,69,74)"/><path d=" M 87.162 0 L 87.162 9.532 L 83.724 9.532 L 83.724 25.355 L 5.223 25.355 L 5.223 9.532 L 1.786 9.532 L 1.786 0 L 0 0 L 0 9.532 L 0 18.453 L 0 25.355 L 0 27.985 L 5.223 27.985 L 83.724 27.985 L 86.396 27.985 L 88.947 27.985 L 88.947 18.453 L 88.947 9.532 L 88.947 0 L 87.162 0 Z " fill="rgb(68,69,74)"/><path d=" M 10.875 97.628 C 9.001 97.628 7.477 99.151 7.477 101.024 C 7.477 102.899 9.001 104.423 10.875 104.423 C 12.749 104.423 14.273 102.899 14.273 101.024 C 14.273 99.151 12.749 97.628 10.875 97.628 Z  M 10.875 105.114 C 8.62 105.114 6.785 103.279 6.785 101.024 C 6.785 98.77 8.62 96.935 10.875 96.935 C 13.13 96.935 14.965 98.77 14.965 101.024 C 14.965 103.279 13.13 105.114 10.875 105.114 Z " fill="rgb(147,152,168)"/><path d=" M 10.875 97.528 C 8.947 97.528 7.379 99.097 7.379 101.024 C 7.379 102.953 8.947 104.521 10.875 104.521 C 12.803 104.521 14.372 102.953 14.372 101.024 C 14.372 99.097 12.803 97.528 10.875 97.528 Z  M 10.875 105.015 C 8.675 105.015 6.885 103.225 6.885 101.024 C 6.885 98.824 8.675 97.035 10.875 97.035 C 13.076 97.035 14.866 98.824 14.866 101.024 C 14.866 103.225 13.076 105.015 10.875 105.015 Z " fill="rgb(175,181,200)"/><path d=" M 11.723 97.683 L 11.723 96.46 L 81.293 96.46 L 81.293 95.472 L 10.735 95.472 L 10.735 97.683 L 10.735 104.365 L 10.735 106.578 L 81.293 106.578 L 81.293 105.59 L 11.723 105.59 L 11.723 104.365 L 11.723 97.683 Z " fill="rgb(80,104,175)"/><path d=" M 78.643 104.994 L 12.21 104.994 L 12.21 97.054 L 78.643 97.054 L 78.643 104.994 Z " fill="rgb(224,224,224)"/><path d=" M 78.643 97.801 L 12.21 97.801 L 12.21 97.054 L 78.643 97.054 L 78.643 97.801 Z " fill="rgb(197,197,197)"/><path d=" M 78.643 99.407 L 12.21 99.407 L 12.21 98.66 L 78.643 98.66 L 78.643 99.407 Z " fill="rgb(197,197,197)"/><path d=" M 78.643 101.013 L 12.21 101.013 L 12.21 100.265 L 78.643 100.265 L 78.643 101.013 Z " fill="rgb(197,197,197)"/><path d=" M 78.643 102.618 L 12.21 102.618 L 12.21 101.871 L 78.643 101.871 L 78.643 102.618 Z " fill="rgb(197,197,197)"/><path d=" M 78.643 104.224 L 12.21 104.224 L 12.21 103.477 L 78.643 103.477 L 78.643 104.224 Z " fill="rgb(197,197,197)"/><path d=" M 73.806 89.293 C 73.806 91.167 75.329 92.69 77.204 92.69 C 79.077 92.69 80.601 91.167 80.601 89.293 C 80.601 87.419 79.077 85.895 77.204 85.895 C 75.329 85.895 73.806 87.419 73.806 89.293 Z  M 73.115 89.293 C 73.115 87.039 74.95 85.204 77.204 85.204 C 79.458 85.204 81.293 87.039 81.293 89.293 C 81.293 91.549 79.458 93.383 77.204 93.383 C 74.95 93.383 73.115 91.549 73.115 89.293 Z " fill="rgb(147,152,168)"/><path d=" M 73.707 89.293 C 73.707 91.222 75.275 92.79 77.204 92.79 C 79.131 92.79 80.701 91.222 80.701 89.293 C 80.701 87.365 79.131 85.797 77.204 85.797 C 75.275 85.797 73.707 87.365 73.707 89.293 Z  M 73.213 89.293 C 73.213 87.093 75.004 85.303 77.204 85.303 C 79.404 85.303 81.195 87.093 81.195 89.293 C 81.195 91.494 79.404 93.284 77.204 93.284 C 75.004 93.284 73.213 91.494 73.213 89.293 Z " fill="rgb(175,181,200)"/><path d=" M 76.356 85.952 L 76.356 84.729 L 6.785 84.729 L 6.785 83.741 L 77.344 83.741 L 77.344 85.952 L 77.344 92.635 L 77.344 94.846 L 6.785 94.846 L 6.785 93.859 L 76.356 93.859 L 76.356 92.635 L 76.356 85.952 Z " fill="rgb(163,186,78)"/><path d=" M 9.435 93.264 L 75.868 93.264 L 75.868 85.323 L 9.435 85.323 L 9.435 93.264 Z " fill="rgb(224,224,224)"/><path d=" M 9.435 86.07 L 75.868 86.07 L 75.868 85.323 L 9.435 85.323 L 9.435 86.07 Z " fill="rgb(197,197,197)"/><path d=" M 9.435 87.676 L 75.868 87.676 L 75.868 86.93 L 9.435 86.93 L 9.435 87.676 Z " fill="rgb(197,197,197)"/><path d=" M 9.435 89.281 L 75.868 89.281 L 75.868 88.534 L 9.435 88.534 L 9.435 89.281 Z " fill="rgb(197,197,197)"/><path d=" M 9.435 90.887 L 75.868 90.887 L 75.868 90.14 L 9.435 90.14 L 9.435 90.887 Z " fill="rgb(197,197,197)"/><path d=" M 9.435 92.492 L 75.868 92.492 L 75.868 91.746 L 9.435 91.746 L 9.435 92.492 Z " fill="rgb(197,197,197)"/><path d=" M 73.806 46.208 C 73.806 48.082 75.329 49.605 77.204 49.605 C 79.077 49.605 80.601 48.082 80.601 46.208 C 80.601 44.334 79.077 42.81 77.204 42.81 C 75.329 42.81 73.806 44.334 73.806 46.208 Z  M 73.115 46.208 C 73.115 43.953 74.95 42.118 77.204 42.118 C 79.458 42.118 81.293 43.953 81.293 46.208 C 81.293 48.463 79.458 50.296 77.204 50.296 C 74.95 50.296 73.115 48.463 73.115 46.208 Z " fill="rgb(147,152,168)"/><path d=" M 73.707 46.208 C 73.707 48.136 75.275 49.704 77.204 49.704 C 79.131 49.704 80.701 48.136 80.701 46.208 C 80.701 44.28 79.131 42.71 77.204 42.71 C 75.275 42.71 73.707 44.28 73.707 46.208 Z  M 73.213 46.208 C 73.213 44.007 75.004 42.218 77.204 42.218 C 79.404 42.218 81.195 44.007 81.195 46.208 C 81.195 48.407 79.404 50.198 77.204 50.198 C 75.004 50.198 73.213 48.407 73.213 46.208 Z " fill="rgb(175,181,200)"/><path d=" M 76.356 42.867 L 76.356 41.643 L 6.785 41.643 L 6.785 40.654 L 77.344 40.654 L 77.344 42.867 L 77.344 49.549 L 77.344 51.761 L 6.785 51.761 L 6.785 50.773 L 76.356 50.773 L 76.356 49.549 L 76.356 42.867 Z " fill="rgb(163,186,78)"/><path d=" M 9.435 50.177 L 75.868 50.177 L 75.868 42.238 L 9.435 42.238 L 9.435 50.177 Z " fill="rgb(224,224,224)"/><path d=" M 9.435 42.983 L 75.868 42.983 L 75.868 42.238 L 9.435 42.238 L 9.435 42.983 Z " fill="rgb(197,197,197)"/><path d=" M 9.435 44.59 L 75.868 44.59 L 75.868 43.843 L 9.435 43.843 L 9.435 44.59 Z " fill="rgb(197,197,197)"/><path d=" M 9.435 46.196 L 75.868 46.196 L 75.868 45.449 L 9.435 45.449 L 9.435 46.196 Z " fill="rgb(197,197,197)"/><path d=" M 9.435 47.8 L 75.868 47.8 L 75.868 47.054 L 9.435 47.054 L 9.435 47.8 Z " fill="rgb(197,197,197)"/><path d=" M 9.435 49.406 L 75.868 49.406 L 75.868 48.66 L 9.435 48.66 L 9.435 49.406 Z " fill="rgb(197,197,197)"/><path d=" M 10.875 70.085 C 9.001 70.085 7.477 71.608 7.477 73.483 C 7.477 75.356 9.001 76.88 10.875 76.88 C 12.749 76.88 14.273 75.356 14.273 73.483 C 14.273 71.608 12.749 70.085 10.875 70.085 Z  M 10.875 77.572 C 8.62 77.572 6.785 75.737 6.785 73.483 C 6.785 71.229 8.62 69.394 10.875 69.394 C 13.13 69.394 14.965 71.229 14.965 73.483 C 14.965 75.737 13.13 77.572 10.875 77.572 Z " fill="rgb(147,152,168)"/><path d=" M 10.875 69.986 C 8.947 69.986 7.379 71.554 7.379 73.483 C 7.379 75.41 8.947 76.978 10.875 76.978 C 12.803 76.978 14.372 75.41 14.372 73.483 C 14.372 71.554 12.803 69.986 10.875 69.986 Z  M 10.875 77.472 C 8.675 77.472 6.885 75.683 6.885 73.483 C 6.885 71.283 8.675 69.492 10.875 69.492 C 13.076 69.492 14.866 71.283 14.866 73.483 C 14.866 75.683 13.076 77.472 10.875 77.472 Z " fill="rgb(175,181,200)"/><path d=" M 11.723 70.14 L 11.723 68.917 L 81.293 68.917 L 81.293 67.929 L 10.735 67.929 L 10.735 70.14 L 10.735 76.824 L 10.735 79.035 L 81.293 79.035 L 81.293 78.047 L 11.723 78.047 L 11.723 76.824 L 11.723 70.14 Z " fill="rgb(246,148,53)"/><path d=" M 78.643 77.453 L 12.21 77.453 L 12.21 69.511 L 78.643 69.511 L 78.643 77.453 Z " fill="rgb(224,224,224)"/><path d=" M 78.643 70.26 L 12.21 70.26 L 12.21 69.511 L 78.643 69.511 L 78.643 70.26 Z " fill="rgb(197,197,197)"/><path d=" M 78.643 71.864 L 12.21 71.864 L 12.21 71.117 L 78.643 71.117 L 78.643 71.864 Z " fill="rgb(197,197,197)"/><path d=" M 78.643 73.47 L 12.21 73.47 L 12.21 72.724 L 78.643 72.724 L 78.643 73.47 Z " fill="rgb(197,197,197)"/><path d=" M 78.643 75.075 L 12.21 75.075 L 12.21 74.33 L 78.643 74.33 L 78.643 75.075 Z " fill="rgb(197,197,197)"/><path d=" M 78.643 76.681 L 12.21 76.681 L 12.21 75.934 L 78.643 75.934 L 78.643 76.681 Z " fill="rgb(197,197,197)"/><path d=" M 10.875 30.989 C 9.001 30.989 7.477 32.512 7.477 34.387 C 7.477 36.26 9.001 37.784 10.875 37.784 C 12.749 37.784 14.273 36.26 14.273 34.387 C 14.273 32.512 12.749 30.989 10.875 30.989 Z  M 10.875 38.476 C 8.62 38.476 6.785 36.641 6.785 34.387 C 6.785 32.133 8.62 30.298 10.875 30.298 C 13.13 30.298 14.965 32.133 14.965 34.387 C 14.965 36.641 13.13 38.476 10.875 38.476 Z " fill="rgb(147,152,168)"/><path d=" M 10.875 30.89 C 8.947 30.89 7.379 32.458 7.379 34.387 C 7.379 36.314 8.947 37.882 10.875 37.882 C 12.803 37.882 14.372 36.314 14.372 34.387 C 14.372 32.458 12.803 30.89 10.875 30.89 Z  M 10.875 38.376 C 8.675 38.376 6.885 36.587 6.885 34.387 C 6.885 32.187 8.675 30.396 10.875 30.396 C 13.076 30.396 14.866 32.187 14.866 34.387 C 14.866 36.587 13.076 38.376 10.875 38.376 Z " fill="rgb(175,181,200)"/><path d=" M 11.723 31.046 L 11.723 29.821 L 81.293 29.821 L 81.293 28.833 L 10.735 28.833 L 10.735 31.046 L 10.735 37.728 L 10.735 39.94 L 81.293 39.94 L 81.293 38.951 L 11.723 38.951 L 11.723 37.728 L 11.723 31.046 Z " fill="rgb(246,148,53)"/><path d=" M 78.643 38.357 L 12.21 38.357 L 12.21 30.417 L 78.643 30.417 L 78.643 38.357 Z " fill="rgb(224,224,224)"/><path d=" M 78.643 31.164 L 12.21 31.164 L 12.21 30.417 L 78.643 30.417 L 78.643 31.164 Z " fill="rgb(197,197,197)"/><path d=" M 78.643 32.77 L 12.21 32.77 L 12.21 32.021 L 78.643 32.021 L 78.643 32.77 Z " fill="rgb(197,197,197)"/><path d=" M 78.643 34.374 L 12.21 34.374 L 12.21 33.628 L 78.643 33.628 L 78.643 34.374 Z " fill="rgb(197,197,197)"/><path d=" M 78.643 35.981 L 12.21 35.981 L 12.21 35.234 L 78.643 35.234 L 78.643 35.981 Z " fill="rgb(197,197,197)"/><path d=" M 78.643 37.585 L 12.21 37.585 L 12.21 36.838 L 78.643 36.838 L 78.643 37.585 Z " fill="rgb(197,197,197)"/><path d=" M 73.806 61.752 C 73.806 63.624 75.329 65.149 77.204 65.149 C 79.077 65.149 80.601 63.624 80.601 61.752 C 80.601 59.877 79.077 58.354 77.204 58.354 C 75.329 58.354 73.806 59.877 73.806 61.752 Z  M 73.115 61.752 C 73.115 59.496 74.95 57.661 77.204 57.661 C 79.458 57.661 81.293 59.496 81.293 61.752 C 81.293 64.006 79.458 65.84 77.204 65.84 C 74.95 65.84 73.115 64.006 73.115 61.752 Z " fill="rgb(147,152,168)"/><path d=" M 73.707 61.752 C 73.707 63.679 75.275 65.247 77.204 65.247 C 79.131 65.247 80.701 63.679 80.701 61.752 C 80.701 59.823 79.131 58.255 77.204 58.255 C 75.275 58.255 73.707 59.823 73.707 61.752 Z  M 73.213 61.752 C 73.213 59.55 75.004 57.761 77.204 57.761 C 79.404 57.761 81.195 59.55 81.195 61.752 C 81.195 63.951 79.404 65.741 77.204 65.741 C 75.004 65.741 73.213 63.951 73.213 61.752 Z " fill="rgb(175,181,200)"/><path d=" M 76.356 58.41 L 76.356 57.186 L 6.785 57.186 L 6.785 56.198 L 77.344 56.198 L 77.344 58.41 L 77.344 65.092 L 77.344 67.305 L 6.785 67.305 L 6.785 66.316 L 76.356 66.316 L 76.356 65.092 L 76.356 58.41 Z " fill="rgb(186,79,79)"/><path d=" M 9.435 65.721 L 75.868 65.721 L 75.868 57.782 L 9.435 57.782 L 9.435 65.721 Z " fill="rgb(224,224,224)"/><path d=" M 9.435 58.527 L 75.868 58.527 L 75.868 57.782 L 9.435 57.782 L 9.435 58.527 Z " fill="rgb(197,197,197)"/><path d=" M 9.435 60.133 L 75.868 60.133 L 75.868 59.387 L 9.435 59.387 L 9.435 60.133 Z " fill="rgb(197,197,197)"/><path d=" M 9.435 61.738 L 75.868 61.738 L 75.868 60.993 L 9.435 60.993 L 9.435 61.738 Z " fill="rgb(197,197,197)"/><path d=" M 9.435 63.344 L 75.868 63.344 L 75.868 62.597 L 9.435 62.597 L 9.435 63.344 Z " fill="rgb(197,197,197)"/><path d=" M 9.435 64.95 L 75.868 64.95 L 75.868 64.203 L 9.435 64.203 L 9.435 64.95 Z " fill="rgb(197,197,197)"/><path d=" M 73.806 18.632 C 73.806 20.505 75.329 22.03 77.204 22.03 C 79.077 22.03 80.601 20.505 80.601 18.632 C 80.601 16.759 79.077 15.234 77.204 15.234 C 75.329 15.234 73.806 16.759 73.806 18.632 Z  M 73.115 18.632 C 73.115 16.378 74.95 14.543 77.204 14.543 C 79.458 14.543 81.293 16.378 81.293 18.632 C 81.293 20.888 79.458 22.721 77.204 22.721 C 74.95 22.721 73.115 20.888 73.115 18.632 Z " fill="rgb(147,152,168)"/><path d=" M 73.707 18.634 C 73.707 20.561 75.275 22.129 77.204 22.129 C 79.131 22.129 80.701 20.561 80.701 18.634 C 80.701 16.705 79.131 15.135 77.204 15.135 C 75.275 15.135 73.707 16.705 73.707 18.634 Z  M 73.213 18.634 C 73.213 16.432 75.004 14.641 77.204 14.641 C 79.404 14.641 81.195 16.432 81.195 18.634 C 81.195 20.832 79.404 22.623 77.204 22.623 C 75.004 22.623 73.213 20.832 73.213 18.634 Z " fill="rgb(175,181,200)"/><path d=" M 76.356 15.291 L 76.356 14.068 L 6.785 14.068 L 6.785 13.08 L 77.344 13.08 L 77.344 15.291 L 77.344 21.973 L 77.344 24.186 L 6.785 24.186 L 6.785 23.198 L 76.356 23.198 L 76.356 21.973 L 76.356 15.291 Z " fill="rgb(186,79,79)"/><path d=" M 9.435 22.602 L 75.868 22.602 L 75.868 14.664 L 9.435 14.664 L 9.435 22.602 Z " fill="rgb(224,224,224)"/><path d=" M 9.435 15.409 L 75.868 15.409 L 75.868 14.664 L 9.435 14.664 L 9.435 15.409 Z " fill="rgb(197,197,197)"/><path d=" M 9.435 17.015 L 75.868 17.015 L 75.868 16.268 L 9.435 16.268 L 9.435 17.015 Z " fill="rgb(197,197,197)"/><path d=" M 9.435 18.619 L 75.868 18.619 L 75.868 17.874 L 9.435 17.874 L 9.435 18.619 Z " fill="rgb(197,197,197)"/><path d=" M 9.435 20.226 L 75.868 20.226 L 75.868 19.479 L 9.435 19.479 L 9.435 20.226 Z " fill="rgb(197,197,197)"/><path d=" M 9.435 21.832 L 75.868 21.832 L 75.868 21.085 L 9.435 21.085 L 9.435 21.832 Z " fill="rgb(197,197,197)"/><path d=" M 14.273 6.666 C 14.273 4.793 12.749 3.27 10.875 3.27 C 9.001 3.27 7.477 4.793 7.477 6.666 C 7.477 8.541 9.001 10.064 10.875 10.064 C 12.749 10.064 14.273 8.541 14.273 6.666 Z  M 14.965 6.666 C 14.965 8.92 13.13 10.755 10.875 10.755 C 8.62 10.755 6.785 8.92 6.785 6.666 C 6.785 4.412 8.62 2.577 10.875 2.577 C 13.13 2.577 14.965 4.412 14.965 6.666 Z " fill="rgb(147,152,168)"/><path d=" M 14.372 6.666 C 14.372 4.739 12.803 3.171 10.875 3.171 C 8.947 3.171 7.379 4.739 7.379 6.666 C 7.379 8.595 8.947 10.163 10.875 10.163 C 12.803 10.163 14.372 8.595 14.372 6.666 Z  M 14.866 6.666 C 14.866 8.866 13.076 10.657 10.875 10.657 C 8.675 10.657 6.885 8.866 6.885 6.666 C 6.885 4.466 8.675 2.677 10.875 2.677 C 13.076 2.677 14.866 4.466 14.866 6.666 Z " fill="rgb(175,181,200)"/><path d=" M 11.723 10.007 L 11.723 11.232 L 81.293 11.232 L 81.293 12.219 L 10.735 12.219 L 10.735 10.007 L 10.735 3.325 L 10.735 1.114 L 81.293 1.114 L 81.293 2.102 L 11.723 2.102 L 11.723 3.325 L 11.723 10.007 Z " fill="rgb(186,79,79)"/><path d=" M 78.643 2.696 L 12.21 2.696 L 12.21 10.636 L 78.643 10.636 L 78.643 2.696 Z " fill="rgb(224,224,224)"/><path d=" M 78.643 9.89 L 12.21 9.89 L 12.21 10.636 L 78.643 10.636 L 78.643 9.89 Z " fill="rgb(197,197,197)"/><path d=" M 78.643 8.283 L 12.21 8.283 L 12.21 9.032 L 78.643 9.032 L 78.643 8.283 Z " fill="rgb(197,197,197)"/><path d=" M 78.643 6.679 L 12.21 6.679 L 12.21 7.426 L 78.643 7.426 L 78.643 6.679 Z " fill="rgb(197,197,197)"/><path d=" M 78.643 5.073 L 12.21 5.073 L 12.21 5.819 L 78.643 5.819 L 78.643 5.073 Z " fill="rgb(197,197,197)"/><path d=" M 78.643 3.468 L 12.21 3.468 L 12.21 4.215 L 78.643 4.215 L 78.643 3.468 Z " fill="rgb(197,197,197)"/></g></g></svg>