<?xml version="1.0" encoding="UTF-8" standalone="no"?><!-- Generator: Gravit.io --><svg xmlns="http://www.w3.org/2000/svg" xmlns:xlink="http://www.w3.org/1999/xlink" style="isolation:isolate" viewBox="0 0 138.9 221.9" width="138.9pt" height="221.9pt"><defs><clipPath id="_clipPath_1NbxxIw68rIAafL7jmtsEZVCMdMRmE99"><rect width="138.9" height="221.9"/></clipPath></defs><g clip-path="url(#_clipPath_1NbxxIw68rIAafL7jmtsEZVCMdMRmE99)"><g><path d=" M 64.175 23.862 C 56.017 31.883 58.25 29.688 50.147 37.655 C 29.33 36.837 30.535 36.818 29.993 36.903 C 28.189 37.181 26.939 38.971 27.2 40.897 C 27.463 42.824 29.138 44.159 30.943 43.879 C 38.915 42.642 43.921 41.865 51.253 40.727 C 56.678 34.123 59.319 30.906 64.676 24.383 C 64.962 24.032 64.501 23.543 64.175 23.862 Z " fill="rgb(0,0,0)"/><path d=" M 81.241 24.098 L 57.644 24.098 L 57.644 125.599 L 81.241 125.599 L 81.241 24.098 Z " fill="rgb(80,87,109)"/><path d=" M 81.241 33.84 L 57.644 33.84 L 57.644 26.744 C 59.507 26.762 61.378 26.775 63.257 26.783 L 63.257 26.792 C 63.826 26.795 64.397 26.796 64.97 26.796 C 65.799 26.796 66.633 26.794 67.47 26.792 C 68.152 26.792 68.83 26.791 69.513 26.789 C 73.509 26.789 77.429 26.755 81.241 26.697 L 81.241 33.84 Z " fill="rgb(52,58,77)"/><path d=" M 138.887 5.786 L 138.887 21.194 C 138.887 28.338 0.003 28.971 0.003 21.194 L 0.003 5.786 L 138.887 5.786 Z " fill="rgb(80,87,109)"/><path d=" M 119.619 25.197 L 119.619 25.19 C 120.841 25.083 122.015 24.973 123.139 24.859 C 122.015 24.974 120.842 25.088 119.619 25.197 Z " fill="rgb(255,255,255)"/><path d=" M 88.544 26.752 L 88.544 26.555 C 89.698 26.528 90.849 26.499 91.987 26.469 C 96.4 26.355 100.612 26.222 104.576 26.024 L 104.576 26.024 C 104.623 26.022 104.67 26.02 104.717 26.017 C 109.416 25.806 113.826 25.551 117.81 25.256 C 118.424 25.212 119.027 25.166 119.619 25.12 L 119.619 25.19 C 115.192 25.574 110.131 25.908 104.576 26.176 C 99.594 26.426 94.218 26.617 88.544 26.752 Z  M 123.139 24.859 C 125.283 24.639 127.241 24.408 128.991 24.168 C 129.236 24.134 129.477 24.101 129.714 24.067 C 129.716 24.066 129.716 24.066 129.718 24.066 C 127.788 24.346 125.585 24.612 123.139 24.859 Z " fill="rgb(255,255,255)"/><path d=" M 88.544 26.555 L 88.544 26.554 L 88.544 26.554 C 89.704 26.526 90.852 26.498 91.987 26.469 C 90.849 26.499 89.698 26.528 88.544 26.555 Z  M 104.717 26.017 C 109.475 25.787 113.868 25.539 117.81 25.256 C 113.826 25.551 109.416 25.806 104.717 26.017 Z  M 129.714 24.067 C 129.764 24.06 129.813 24.053 129.862 24.045 C 129.814 24.052 129.767 24.06 129.718 24.066 C 129.716 24.066 129.716 24.066 129.714 24.067 Z " fill="rgb(135,144,171)"/><path d=" M 119.619 25.19 L 119.619 25.12 C 123.176 24.843 126.324 24.531 128.991 24.168 C 127.241 24.408 125.283 24.639 123.139 24.859 C 122.015 24.973 120.841 25.083 119.619 25.19 Z " fill="rgb(255,255,255)"/><path d=" M 104.576 26.024 L 104.576 26.024 C 104.624 26.022 104.669 26.019 104.717 26.017 C 104.67 26.02 104.623 26.022 104.576 26.024 Z  M 117.81 25.256 C 118.422 25.21 119.027 25.164 119.619 25.116 L 119.619 25.12 C 119.027 25.166 118.424 25.212 117.81 25.256 Z  M 128.991 24.168 C 129.226 24.135 129.458 24.103 129.687 24.07 C 129.695 24.069 129.704 24.068 129.714 24.067 C 129.477 24.101 129.236 24.134 128.991 24.168 Z " fill="rgb(255,255,255)"/><path d=" M 104.576 26.024 L 104.576 5.786 L 88.544 5.786 L 119.619 5.786 L 119.619 25.116 C 119.027 25.164 118.422 25.21 117.81 25.256 C 113.868 25.539 109.475 25.787 104.717 26.017 C 104.669 26.019 104.624 26.022 104.576 26.024 Z  M 129.687 24.07 C 129.745 24.062 129.804 24.054 129.862 24.045 L 129.862 5.786 L 129.862 24.045 L 129.862 24.045 C 129.813 24.053 129.764 24.06 129.714 24.067 C 129.704 24.068 129.695 24.069 129.687 24.07 Z " fill="rgb(173,182,207)"/><path d=" M 119.619 25.12 L 119.619 25.116 C 123.455 24.808 126.855 24.46 129.687 24.07 C 129.458 24.103 129.226 24.135 128.991 24.168 C 126.324 24.531 123.176 24.843 119.619 25.12 Z " fill="rgb(255,255,255)"/><path d=" M 119.619 25.116 L 119.619 5.786 L 129.862 5.786 L 129.862 24.045 C 129.804 24.054 129.745 24.062 129.687 24.07 C 126.855 24.46 123.455 24.808 119.619 25.116 Z " fill="rgb(199,207,228)"/><path d=" M 64.97 26.796 C 64.397 26.796 63.826 26.795 63.257 26.792 L 63.257 26.783 C 64.584 26.789 65.909 26.792 67.24 26.792 C 67.315 26.792 67.393 26.792 67.47 26.792 C 66.633 26.794 65.799 26.796 64.97 26.796 Z " fill="rgb(78,85,107)"/><path d=" M 81.241 26.697 L 81.241 26.69 C 83.517 26.657 85.772 26.616 88.004 26.566 C 85.792 26.617 83.537 26.661 81.241 26.697 Z " fill="rgb(255,255,255)"/><path d=" M 69.513 26.789 C 73.437 26.78 77.368 26.747 81.241 26.69 L 81.241 26.697 C 77.429 26.755 73.509 26.789 69.513 26.789 Z " fill="rgb(78,85,107)"/><path d=" M 67.24 26.792 C 65.909 26.792 64.584 26.789 63.257 26.783 L 63.257 5.786 L 88.544 5.786 L 88.544 26.554 C 88.364 26.558 88.184 26.562 88.004 26.566 C 85.772 26.616 83.517 26.657 81.241 26.69 L 81.241 26.69 C 77.368 26.747 73.437 26.78 69.513 26.789 C 69.49 26.789 69.467 26.789 69.444 26.789 C 68.783 26.789 68.126 26.791 67.47 26.792 C 67.393 26.792 67.315 26.792 67.24 26.792 Z " fill="rgb(102,110,134)"/><path d=" M 91.987 26.469 C 96.342 26.352 100.565 26.203 104.576 26.024 L 104.576 26.024 L 104.576 26.024 C 100.612 26.222 96.4 26.355 91.987 26.469 Z " fill="rgb(255,255,255)"/><path d=" M 88.544 26.554 L 88.544 5.786 L 104.576 5.786 L 104.576 26.024 C 100.565 26.203 96.342 26.352 91.987 26.469 C 90.852 26.498 89.704 26.526 88.544 26.554 Z " fill="rgb(183,192,215)"/><path d=" M 50.04 26.633 C 47.497 26.591 45.014 26.539 42.597 26.458 L 42.597 26.458 C 45.031 26.528 47.517 26.586 50.04 26.633 Z " fill="rgb(255,255,255)"/><path d=" M 58.026 26.747 C 55.307 26.708 52.642 26.677 50.04 26.633 C 47.517 26.586 45.031 26.528 42.597 26.458 L 42.597 5.786 L 58.026 5.786 L 58.026 26.747 Z " fill="rgb(98,105,129)"/><path d=" M 60.426 151.813 L 60.426 198.981 L 78.462 198.981 L 78.462 151.799 C 75.484 151.891 72.4 151.94 69.232 151.94 C 66.215 151.94 63.271 151.896 60.426 151.813 Z " fill="rgb(62,69,84)"/><path d=" M 60.426 133.193 C 52.788 133.418 45.678 133.935 39.838 134.702 C 30.744 135.898 27.954 137.262 27.165 137.807 C 27.954 138.352 30.744 139.717 39.838 140.912 L 39.847 140.913 C 45.554 140.174 52.611 139.646 60.426 139.417 L 60.426 133.193 Z " fill="rgb(0,0,0)"/><path d=" M 98.616 140.913 L 98.626 140.912 C 107.719 139.717 110.51 138.352 111.298 137.807 C 110.51 137.262 107.719 135.898 98.626 134.702 C 92.894 133.948 85.939 133.438 78.462 133.206 L 78.462 139.431 C 86.107 139.666 93.014 140.187 98.616 140.913 Z " fill="rgb(0,0,0)"/><path d=" M 60.426 125.599 L 60.426 131.61 L 60.426 133.193 L 60.426 139.417 L 60.426 142.42 C 63.3 142.506 66.246 142.551 69.232 142.551 C 72.363 142.551 75.453 142.502 78.462 142.409 L 78.462 139.431 L 78.462 133.206 L 78.462 131.623 L 78.462 125.599 L 60.426 125.599 Z " fill="rgb(62,69,84)"/><path d=" M 69.232 151.94 C 68.643 151.94 68.057 151.939 67.475 151.935 C 69.185 151.92 70.857 151.873 72.48 151.799 L 72.48 151.922 C 71.408 151.934 70.324 151.94 69.232 151.94 Z " fill="rgb(147,151,159)"/><path d=" M 72.48 189.2 L 60.426 189.2 L 60.426 151.813 C 62.326 151.896 64.295 151.94 66.311 151.94 C 66.701 151.94 67.089 151.939 67.475 151.935 C 68.057 151.939 68.643 151.94 69.232 151.94 C 70.324 151.94 71.408 151.934 72.48 151.922 L 72.48 189.2 Z " fill="rgb(36,41,53)"/><path d=" M 66.311 142.551 C 64.316 142.551 62.346 142.506 60.426 142.42 L 60.426 142.42 C 62.736 142.489 65.094 142.532 67.482 142.546 C 67.092 142.549 66.702 142.551 66.311 142.551 Z " fill="rgb(147,151,159)"/><path d=" M 67.482 142.546 C 65.094 142.532 62.736 142.489 60.426 142.42 L 60.426 139.417 L 60.426 133.193 L 60.426 131.61 L 60.426 125.599 L 66.499 125.599 L 72.48 125.599 L 72.48 131.623 L 72.48 133.206 L 72.48 139.431 L 72.48 142.409 C 70.845 142.484 69.174 142.531 67.482 142.546 Z " fill="rgb(36,41,53)"/><path d=" M 138.886 5.783 C 138.886 8.977 107.796 11.566 69.443 11.566 C 54.274 11.566 40.24 11.161 28.817 10.474 C 11.36 9.423 0 7.714 0 5.783 C 0 2.589 31.091 0 69.443 0 C 107.796 0 138.886 2.589 138.886 5.783 Z " fill="rgb(132,143,175)"/><path d=" M 78.462 125.599 L 66.499 125.599 L 66.499 49.915 C 66.499 46.601 69.177 43.916 72.48 43.916 C 75.784 43.916 78.462 46.601 78.462 49.915 L 78.462 125.599 Z " fill="rgb(135,144,171)"/><path d=" M 78.462 125.599 L 72.48 125.599 L 66.499 125.599 L 78.462 125.599 Z " fill="rgb(123,132,157)"/><path d=" M 103.786 141.711 C 97.558 142.852 88.671 143.677 78.462 143.991 C 75.484 144.083 72.4 144.132 69.232 144.132 C 66.215 144.132 63.271 144.089 60.426 144.005 C 50.038 143.701 40.992 142.868 34.678 141.711 C 28.807 140.636 25.296 139.281 25.296 137.807 L 25.296 145.615 C 25.296 148.674 40.381 151.225 60.426 151.813 C 63.271 151.896 66.215 151.941 69.232 151.941 C 72.4 151.941 75.484 151.891 78.462 151.799 C 96.57 151.242 110.538 149.079 112.83 146.395 C 113.017 146.177 113.167 145.903 113.167 145.615 L 113.167 137.807 C 113.167 139.281 109.656 140.636 103.786 141.711 Z " fill="rgb(80,87,109)"/><path d=" M 78.462 131.623 L 78.462 133.206 C 85.939 133.438 92.894 133.948 98.626 134.702 C 107.719 135.898 110.51 137.262 111.298 137.807 C 110.51 138.352 107.719 139.717 98.626 140.912 L 98.616 140.913 C 92.886 141.666 85.934 142.176 78.462 142.409 C 75.453 142.501 72.363 142.551 69.232 142.551 C 66.246 142.551 63.3 142.506 60.426 142.421 C 52.792 142.196 45.685 141.68 39.847 140.913 L 39.838 140.912 C 30.744 139.717 27.954 138.352 27.165 137.807 C 27.954 137.262 30.744 135.898 39.838 134.702 C 45.678 133.935 52.788 133.419 60.426 133.193 L 60.426 131.61 C 40.381 132.196 25.296 134.748 25.296 137.807 C 25.296 139.281 28.807 140.636 34.678 141.711 C 40.992 142.868 50.038 143.701 60.426 144.005 C 63.271 144.089 66.215 144.132 69.232 144.132 C 72.4 144.132 75.484 144.083 78.462 143.991 C 88.671 143.677 97.558 142.852 103.786 141.711 C 109.656 140.636 113.167 139.281 113.167 137.807 C 113.167 134.77 98.294 132.234 78.462 131.623 Z " fill="rgb(132,143,175)"/><path d=" M 125.611 204.555 L 80.442 198.981 L 80.442 189.2 L 58.022 189.2 L 58.022 199.034 L 13.276 204.555 C 5.63 205.499 0.001 210.646 0.001 216.691 C 0.001 219.588 31.091 221.939 69.444 221.939 C 107.796 221.939 138.886 219.588 138.886 216.691 C 138.886 210.646 133.256 205.499 125.611 204.555 Z " fill="rgb(56,52,63)"/><path d=" M 86.079 212.385 C 65.515 212.384 40.899 209.03 40.899 209.03 C 40.899 209.03 63.219 208.241 78.462 206.798 C 93.704 205.355 89.619 202.481 89.619 202.481 C 89.619 202.481 111.699 205.121 117.219 206.798 C 122.739 208.475 119.859 209.681 98.616 211.841 C 94.824 212.227 90.548 212.385 86.079 212.385 Z " fill="rgb(72,72,91)"/></g></g></svg>