<?xml version="1.0" encoding="UTF-8" standalone="no"?><!-- Generator: Gravit.io --><svg xmlns="http://www.w3.org/2000/svg" xmlns:xlink="http://www.w3.org/1999/xlink" style="isolation:isolate" viewBox="0 0 370 500" width="370pt" height="500pt"><defs><clipPath id="_clipPath_a8B35w4rf59nKjdRqo9NUBfx5h8o3aEk"><rect width="370" height="500"/></clipPath></defs><g clip-path="url(#_clipPath_a8B35w4rf59nKjdRqo9NUBfx5h8o3aEk)"><g><path d=" M 369.999 422.413 L 369.999 28.06 C 369.999 22.086 365.575 17.241 360.119 17.241 L 251.914 17.241 L 220.425 17.241 L 220.425 43.103 L 149.575 43.103 L 149.575 17.241 L 118.086 17.241 L 9.88 17.241 C 4.424 17.241 0 22.086 0 28.06 L 0 489.181 C 0 495.155 4.424 500 9.88 500 L 360.12 500 C 365.576 500 370 495.155 370 489.181 L 370 437.499 L 370 422.413 L 369.999 422.413 Z " fill="rgb(128,83,51)"/><rect x="18.302" y="40.142" width="329.439" height="444.106" transform="matrix(1,0,0,1,0,0)" fill="rgb(254,254,254)"/><path d=" M 149.575 43.103 L 220.425 43.103 L 220.425 0 L 149.575 0 L 149.575 43.103 Z " fill="rgb(149,165,165)"/><path d=" M 220.425 17.241 L 220.425 43.103 L 149.575 43.103 L 149.575 17.241 L 94.469 17.241 L 94.469 68.966 L 275.531 68.966 L 275.531 17.241 L 220.425 17.241 Z " fill="rgb(189,195,199)"/></g></g></svg>