<?xml version="1.0" encoding="UTF-8" standalone="no"?><!-- Generator: Gravit.io --><svg xmlns="http://www.w3.org/2000/svg" xmlns:xlink="http://www.w3.org/1999/xlink" style="isolation:isolate" viewBox="0 0 106.5 125" width="106.5pt" height="125pt"><defs><clipPath id="_clipPath_dnPeOL8ufrlEqz98hM502x4gvwxt7abT"><rect width="106.5" height="125"/></clipPath></defs><g clip-path="url(#_clipPath_dnPeOL8ufrlEqz98hM502x4gvwxt7abT)"><path d=" M 29.466 20.7 C 33.687 18.756 38.599 19.05 42.552 21.488 C 46.505 19.05 51.423 18.757 55.639 20.7 L 55.639 16.427 C 55.634 15.231 54.67 14.267 53.474 14.262 L 50.515 14.262 C 49.706 14.262 49.046 13.608 49.046 12.798 L 49.046 9.422 C 48.995 5.876 46.103 3.021 42.552 3.021 C 39.001 3.021 36.109 5.876 36.058 9.422 L 36.058 12.798 C 36.058 13.607 35.403 14.262 34.594 14.262 L 31.63 14.262 C 30.434 14.267 29.471 15.231 29.466 16.427 L 29.466 20.705 L 29.466 20.7 Z  M 49.793 50.599 C 49.397 50.609 49.01 50.46 48.726 50.187 C 48.443 49.908 48.283 49.527 48.283 49.13 C 48.283 48.738 48.443 48.357 48.726 48.079 C 49.01 47.805 49.397 47.656 49.793 47.666 C 50.185 47.656 50.572 47.805 50.855 48.079 C 51.139 48.357 51.304 48.738 51.304 49.13 C 51.304 49.527 51.139 49.908 50.855 50.187 C 50.572 50.46 50.185 50.609 49.793 50.599 Z  M 49.793 55.949 C 48.984 55.949 48.324 55.294 48.324 54.485 C 48.324 53.676 48.984 53.016 49.793 53.016 C 50.603 53.016 51.257 53.676 51.257 54.485 C 51.257 55.294 50.603 55.949 49.793 55.949 Z  M 54.051 55.949 L 54.046 55.949 C 53.236 55.949 52.582 55.294 52.582 54.485 C 52.582 53.676 53.236 53.016 54.046 53.016 L 63.493 53.016 C 64.303 53.016 64.957 53.676 64.957 54.485 C 64.957 55.294 64.303 55.949 63.493 55.949 L 54.051 55.949 Z  M 54.051 50.599 L 54.046 50.599 C 53.257 50.573 52.628 49.924 52.628 49.13 C 52.628 48.341 53.257 47.692 54.046 47.666 L 61.488 47.666 L 66.978 43.61 C 67.627 43.156 68.519 43.301 68.993 43.94 C 69.462 44.574 69.343 45.471 68.72 45.96 L 62.926 50.243 L 62.926 50.238 C 62.658 50.47 62.318 50.599 61.963 50.599 L 54.051 50.599 Z  M 49.793 37.487 L 49.793 37.482 C 48.984 37.482 48.324 36.827 48.324 36.018 C 48.324 35.209 48.984 34.554 49.793 34.554 C 50.603 34.554 51.257 35.208 51.257 36.018 C 51.257 36.827 50.603 37.482 49.793 37.482 L 49.793 37.487 Z  M 49.793 42.837 C 48.984 42.837 48.324 42.177 48.324 41.368 C 48.324 40.559 48.984 39.904 49.793 39.904 C 50.603 39.904 51.257 40.559 51.257 41.368 C 51.257 42.177 50.603 42.837 49.793 42.837 Z  M 54.051 42.837 L 54.046 42.837 C 53.236 42.837 52.582 42.177 52.582 41.368 C 52.582 40.559 53.236 39.904 54.046 39.904 L 63.493 39.904 C 64.303 39.904 64.957 40.559 64.957 41.368 C 64.957 42.177 64.303 42.837 63.493 42.837 L 54.051 42.837 Z  M 54.051 37.487 L 54.046 37.482 C 53.236 37.482 52.582 36.827 52.582 36.018 C 52.582 35.209 53.236 34.554 54.046 34.554 L 61.488 34.554 L 66.978 30.498 L 66.978 30.492 C 67.627 30.013 68.539 30.147 69.024 30.797 C 69.503 31.446 69.364 32.358 68.72 32.838 L 62.926 37.121 C 62.658 37.353 62.318 37.482 61.963 37.482 L 54.051 37.487 Z  M 89.842 81.946 L 100.537 81.946 L 100.537 56.201 C 99.026 55.52 98.057 54.016 98.052 52.361 L 98.052 38.863 C 98.047 38.28 97.578 37.811 96.996 37.806 L 89.842 37.806 L 89.842 81.946 Z  M 100.537 84.879 L 89.842 84.879 L 89.842 87.023 L 100.537 87.023 L 100.537 84.869 L 100.537 84.879 Z  M 32.481 18.359 L 32.481 18.354 C 31.697 18.56 30.898 18.091 30.697 17.313 C 30.491 16.535 30.955 15.731 31.738 15.529 C 35.408 14.56 39.315 15.138 42.552 17.127 C 45.784 15.138 49.696 14.555 53.365 15.524 C 54.144 15.731 54.613 16.529 54.407 17.308 C 54.2 18.091 53.401 18.555 52.618 18.349 C 49.459 17.519 46.088 18.138 43.428 20.045 C 42.918 20.431 42.217 20.436 41.701 20.065 C 39.037 18.143 35.656 17.514 32.486 18.349 L 32.481 18.359 Z  M 42.552 5.278 C 44.645 5.273 46.449 6.752 46.856 8.803 C 47.268 10.855 46.17 12.911 44.237 13.715 C 42.299 14.514 40.073 13.839 38.908 12.102 C 37.743 10.36 37.975 8.04 39.454 6.561 C 40.274 5.737 41.387 5.278 42.552 5.278 L 42.552 5.278 Z  M 43.583 8.633 C 44.072 9.123 44.15 9.891 43.763 10.473 C 43.382 11.05 42.64 11.277 41.995 11.009 C 41.356 10.746 40.99 10.061 41.124 9.38 C 41.258 8.7 41.856 8.205 42.552 8.205 C 42.939 8.205 43.31 8.36 43.583 8.633 L 43.583 8.633 Z  M 58.283 14.746 L 80.014 14.741 C 82.828 14.746 85.101 17.024 85.106 19.833 L 85.106 119.908 C 85.106 122.722 82.828 125 80.014 125 L 5.092 125 C 2.283 124.995 0.005 122.722 0 119.908 L 0 19.833 C 0.005 17.024 2.283 14.746 5.092 14.741 L 26.828 14.741 C 27.545 12.7 29.467 11.339 31.632 11.334 L 33.126 11.334 L 33.126 9.422 C 33.126 4.216 37.348 0 42.553 0 C 47.759 0 51.98 4.216 51.98 9.422 L 51.98 11.334 L 53.48 11.334 L 53.475 11.334 C 55.64 11.339 57.563 12.705 58.284 14.741 L 58.283 14.746 Z  M 26.538 17.668 L 26.538 20.534 L 8.468 20.534 C 6.993 20.539 5.798 21.735 5.793 23.209 L 5.793 116.532 C 5.798 118.006 6.994 119.202 8.468 119.207 L 55.052 119.207 C 55.433 119.207 55.794 119.057 56.067 118.8 L 78.787 96.894 C 79.117 96.615 79.313 96.203 79.313 95.77 L 79.313 23.209 C 79.308 21.735 78.117 20.54 76.638 20.534 L 58.568 20.534 L 58.568 17.669 L 80.014 17.669 C 81.21 17.674 82.174 18.643 82.179 19.833 L 82.179 119.908 C 82.174 121.103 81.21 122.067 80.014 122.072 L 5.093 122.072 C 3.903 122.067 2.934 121.103 2.929 119.908 L 2.929 19.833 C 2.934 18.643 3.903 17.679 5.093 17.669 L 26.538 17.668 Z  M 35.279 22.359 C 33.011 22.359 30.8 23.06 28.95 24.364 C 28.548 24.709 27.991 24.807 27.491 24.621 C 26.996 24.436 26.636 23.998 26.553 23.472 L 8.724 23.472 L 8.724 116.273 L 53.587 116.273 L 53.587 109.269 L 32.31 109.269 C 31.913 109.284 31.532 109.135 31.243 108.857 C 30.96 108.583 30.8 108.202 30.8 107.805 C 30.8 107.408 30.96 107.032 31.243 106.754 C 31.532 106.475 31.913 106.331 32.31 106.341 L 53.587 106.341 L 53.587 103.285 L 32.31 103.285 C 31.913 103.295 31.532 103.151 31.243 102.872 C 30.96 102.594 30.8 102.218 30.8 101.821 C 30.8 101.424 30.96 101.043 31.243 100.77 C 31.532 100.491 31.913 100.342 32.31 100.357 L 53.587 100.357 L 53.587 96.976 C 53.587 95.502 54.788 94.306 56.262 94.306 L 76.384 94.306 L 76.384 23.472 L 58.544 23.472 C 58.467 23.971 58.132 24.394 57.663 24.59 C 57.199 24.786 56.663 24.724 56.251 24.43 C 52.421 21.673 47.262 21.667 43.427 24.415 C 42.917 24.796 42.216 24.801 41.7 24.43 C 39.829 23.08 37.582 22.358 35.278 22.358 L 35.279 22.359 Z  M 96.486 21.039 L 96.481 18.962 C 96.481 18.251 95.903 17.668 95.192 17.668 C 94.476 17.668 93.898 18.251 93.898 18.962 L 93.898 21.034 L 96.486 21.039 Z  M 90.971 21.215 L 90.971 18.962 C 90.971 16.633 92.857 14.741 95.192 14.741 C 97.522 14.741 99.408 16.633 99.408 18.962 L 99.408 21.209 C 101.795 21.838 103.459 23.988 103.465 26.456 L 103.465 29.482 C 105.243 29.925 106.49 31.518 106.495 33.348 L 106.495 52.361 C 106.49 54.232 105.258 55.877 103.465 56.412 L 103.465 89.605 C 103.465 89.817 103.423 90.023 103.336 90.213 L 97.702 105.696 C 97.316 106.748 96.316 107.449 95.192 107.449 C 94.069 107.449 93.069 106.748 92.682 105.696 L 86.997 90.105 C 86.94 89.945 86.909 89.775 86.909 89.61 L 86.909 26.456 C 86.92 23.987 88.585 21.838 90.966 21.209 L 90.971 21.215 Z  M 100.331 89.941 L 90.053 89.941 L 95.192 104.043 L 100.331 89.941 Z  M 89.842 29.364 L 100.537 29.364 L 100.537 26.457 C 100.532 25.08 99.414 23.962 98.037 23.962 L 92.337 23.962 C 90.956 23.962 89.837 25.081 89.837 26.457 L 89.837 29.364 L 89.842 29.364 Z  M 89.842 34.879 L 89.842 32.296 L 102.511 32.296 L 102.511 32.291 C 103.094 32.296 103.563 32.765 103.563 33.348 L 103.563 52.362 C 103.542 53.057 102.97 53.609 102.274 53.609 C 101.578 53.609 101.006 53.057 100.986 52.362 L 100.986 38.863 C 100.98 36.662 99.197 34.879 96.996 34.879 L 89.842 34.879 Z  M 17.255 98.646 C 16.446 98.646 15.791 99.306 15.791 100.115 L 15.791 109.522 L 15.791 109.516 C 15.791 110.326 16.446 110.98 17.255 110.98 L 26.662 110.98 C 27.048 110.98 27.424 110.826 27.698 110.553 C 27.971 110.279 28.125 109.908 28.125 109.517 L 28.125 100.115 C 28.125 99.724 27.971 99.352 27.698 99.079 C 27.424 98.801 27.048 98.646 26.662 98.646 L 17.255 98.646 Z  M 25.193 101.579 L 18.724 101.579 L 18.724 108.058 L 25.193 108.058 L 25.193 101.579 Z  M 32.305 87.271 L 57.411 87.271 C 58.22 87.271 58.88 86.616 58.88 85.807 C 58.88 84.998 58.22 84.343 57.411 84.343 L 32.311 84.343 C 31.501 84.343 30.847 84.998 30.847 85.807 C 30.847 86.616 31.501 87.271 32.311 87.271 L 32.305 87.271 Z  M 32.305 93.255 L 67.849 93.255 C 68.659 93.255 69.313 92.6 69.313 91.791 C 69.313 90.982 68.659 90.322 67.849 90.322 L 32.311 90.322 C 31.501 90.322 30.847 90.982 30.847 91.791 C 30.847 92.6 31.501 93.255 32.311 93.255 L 32.305 93.255 Z  M 17.255 82.637 C 16.446 82.637 15.792 83.297 15.792 84.106 L 15.792 93.507 C 15.792 94.317 16.446 94.971 17.255 94.971 L 26.662 94.971 C 27.048 94.971 27.425 94.817 27.698 94.543 C 27.971 94.27 28.126 93.894 28.126 93.507 L 28.126 84.106 C 28.126 83.714 27.971 83.343 27.698 83.07 C 27.425 82.792 27.048 82.637 26.662 82.637 L 17.255 82.637 Z  M 25.193 85.565 L 18.724 85.565 L 18.724 92.038 L 25.193 92.038 L 25.193 85.565 Z  M 32.306 71.256 L 57.411 71.261 C 58.221 71.261 58.88 70.607 58.88 69.798 C 58.88 68.988 58.221 68.329 57.411 68.329 L 32.311 68.329 C 31.502 68.329 30.847 68.988 30.847 69.798 C 30.847 70.607 31.502 71.261 32.311 71.261 L 32.306 71.256 Z  M 32.306 77.235 L 67.85 77.24 C 68.247 77.256 68.628 77.106 68.917 76.828 C 69.2 76.555 69.36 76.173 69.36 75.776 C 69.36 75.38 69.2 74.998 68.917 74.725 C 68.628 74.447 68.247 74.302 67.85 74.313 L 32.311 74.313 C 31.914 74.302 31.533 74.447 31.244 74.725 C 30.961 74.998 30.801 75.38 30.801 75.776 C 30.801 76.173 30.961 76.555 31.244 76.828 C 31.533 77.106 31.914 77.256 32.311 77.24 L 32.306 77.235 Z  M 17.256 66.628 C 16.446 66.628 15.792 67.282 15.792 68.092 L 15.792 77.498 C 15.792 78.307 16.446 78.967 17.256 78.967 L 26.662 78.967 C 27.049 78.967 27.425 78.812 27.698 78.534 C 27.971 78.261 28.126 77.89 28.126 77.498 L 28.126 68.097 C 28.126 67.71 27.971 67.334 27.698 67.061 C 27.425 66.788 27.049 66.633 26.662 66.633 L 17.256 66.628 Z  M 25.193 69.561 L 18.725 69.555 L 18.725 76.029 L 25.193 76.029 L 25.193 69.555 L 25.193 69.561 Z  M 25.353 30.574 L 25.358 30.569 C 24.286 30.574 23.415 31.44 23.41 32.512 L 23.41 38.177 L 17.74 38.177 C 16.673 38.182 15.802 39.048 15.797 40.12 L 15.797 49.418 C 15.802 50.485 16.673 51.356 17.74 51.361 L 23.405 51.361 L 23.405 57.026 C 23.405 57.469 23.559 57.902 23.843 58.247 C 23.884 58.304 23.93 58.355 23.982 58.402 C 24.348 58.768 24.843 58.974 25.363 58.974 L 34.636 58.974 C 35.151 58.974 35.651 58.768 36.012 58.402 C 36.378 58.041 36.584 57.546 36.584 57.031 L 36.584 51.366 L 42.248 51.366 C 43.32 51.361 44.192 50.495 44.197 49.423 L 44.197 40.135 C 44.192 39.068 43.321 38.197 42.248 38.192 L 36.589 38.192 L 36.589 32.517 C 36.584 31.445 35.718 30.579 34.646 30.574 L 25.353 30.574 Z  M 33.662 33.496 L 26.337 33.496 L 26.337 39.645 C 26.337 40.455 25.678 41.109 24.874 41.109 L 18.725 41.109 L 18.725 48.433 L 24.874 48.433 C 25.683 48.433 26.337 49.088 26.337 49.897 L 26.337 56.046 L 33.662 56.046 L 33.662 49.902 C 33.662 49.093 34.321 48.433 35.13 48.433 L 41.28 48.433 L 41.28 41.109 L 35.125 41.109 C 34.316 41.109 33.667 40.455 33.662 39.646 L 33.662 33.496 Z  M 74.22 97.234 L 56.52 97.234 L 56.52 114.305 L 74.22 97.234 Z " fill-rule="evenodd" fill="rgb(0,0,0)"/></g></svg>