<?xml version="1.0" encoding="UTF-8" standalone="no"?><!-- Generator: Gravit.io --><svg xmlns="http://www.w3.org/2000/svg" xmlns:xlink="http://www.w3.org/1999/xlink" style="isolation:isolate" viewBox="0 0 189.3 348.5" width="189.3pt" height="348.5pt"><defs><clipPath id="_clipPath_80URPwypj5Zg6qRTuhlX4hiFO81q2jcx"><rect width="189.3" height="348.5"/></clipPath></defs><g clip-path="url(#_clipPath_80URPwypj5Zg6qRTuhlX4hiFO81q2jcx)"><g><path d=" M 177.558 323.548 L 11.59 323.548 L 11.59 319.994 L 177.558 319.994 L 177.558 323.548 Z " fill="rgb(82,78,76)"/><path d=" M 57.522 135.913 L 0 348.526 L 8.823 348.526 L 66.345 135.913 L 57.522 135.913 Z " fill="rgb(100,94,91)"/><path d=" M 131.799 135.913 L 189.323 348.526 L 180.499 348.526 L 122.976 135.913 L 131.799 135.913 Z " fill="rgb(100,94,91)"/><path d=" M 118.182 194.076 L 71.139 194.076 C 34.996 194.076 7.301 161.818 12.621 125.92 L 28.183 20.938 C 29.966 8.907 40.252 0 52.366 0 L 136.957 0 C 149.069 0 159.357 8.907 161.14 20.938 L 176.699 125.92 C 182.022 161.818 154.325 194.076 118.182 194.076 Z " fill="rgb(216,199,192)"/></g></g></svg>