<?xml version="1.0" encoding="UTF-8" standalone="no"?><!-- Generator: Gravit.io --><svg xmlns="http://www.w3.org/2000/svg" xmlns:xlink="http://www.w3.org/1999/xlink" style="isolation:isolate" viewBox="0 0 646.4 300" width="646.4pt" height="300pt"><defs><clipPath id="_clipPath_NfUciRr3ctyU4FC0MtFu6p5PnNMDRNte"><rect width="646.4" height="300"/></clipPath></defs><g clip-path="url(#_clipPath_NfUciRr3ctyU4FC0MtFu6p5PnNMDRNte)"><g><path d=" M 579.97 249.988 L 452.927 249.988 L 452.927 242.675 L 579.97 242.675 L 579.97 249.988 Z " fill="rgb(202,166,134)"/><path d=" M 446.926 300.009 L 435.394 300.009 L 490.239 58.89 L 501.773 58.89 L 446.926 300.009 Z " fill="rgb(217,188,161)"/><path d=" M 585.918 300.009 L 597.452 300.009 L 542.607 58.89 L 531.071 58.89 L 585.918 300.009 Z " fill="rgb(217,188,161)"/><path d=" M 488.246 52.261 L 488.246 59.619 L 499.332 59.619 L 499.332 68.64 L 511.702 68.64 L 511.702 52.261 L 488.246 52.261 Z " fill="rgb(202,166,134)"/><path d=" M 544.482 52.261 L 544.482 59.619 L 533.395 59.619 L 533.395 68.64 L 521.023 68.64 L 521.023 52.261 L 544.482 52.261 Z " fill="rgb(202,166,134)"/><path d=" M 79.722 26.223 L 32.21 26.223 L 32.21 44.829 L 79.722 44.829 L 79.722 26.223 Z " fill="rgb(172,142,116)"/><path d=" M 614.145 26.223 L 566.632 26.223 L 566.632 44.829 L 614.145 44.829 L 614.145 26.223 Z " fill="rgb(172,142,116)"/><path d=" M 637.52 27.376 L 8.832 27.376 L 8.832 8.767 L 637.52 8.767 L 637.52 27.376 Z " fill="rgb(202,166,134)"/><path d=" M 646.352 18.606 L 0 18.606 L 0 0 L 646.352 0 L 646.352 18.606 Z " fill="rgb(217,188,161)"/><line x1="0.034" y1="39.485" x2="188.115" y2="39.485"/><path d=" M 544.482 53.371 L 488.246 53.371 L 488.246 25.894 L 544.482 25.894 L 544.482 53.371 Z " fill="rgb(217,188,161)"/></g></g></svg>