<?xml version="1.0" encoding="UTF-8" standalone="no"?><!-- Generator: Gravit.io --><svg xmlns="http://www.w3.org/2000/svg" xmlns:xlink="http://www.w3.org/1999/xlink" style="isolation:isolate" viewBox="0 0 119.3 117" width="119.3pt" height="117pt"><defs><clipPath id="_clipPath_9NrCR0eeODcVg7HtexKhSF6oMDLYNKwI"><rect width="119.3" height="117"/></clipPath></defs><g clip-path="url(#_clipPath_9NrCR0eeODcVg7HtexKhSF6oMDLYNKwI)"><g><path d=" M 98.433 113.72 L 20.927 113.72 L 4.269 6.689 L 115.089 6.689 L 98.433 113.72 Z " fill="rgb(131,137,152)"/><clipPath id="_clipPath_YaKF21CUgd2Qj0D4v2kxmZ3YvxHx0Tds"><path d=" M 22.63 111.834 L 6.561 8.575 L 112.796 8.575 L 96.728 111.834 L 22.63 111.834 Z " fill="rgb(255,255,255)"/></clipPath><g clip-path="url(#_clipPath_YaKF21CUgd2Qj0D4v2kxmZ3YvxHx0Tds)"><path d=" M 118.233 26.804 L 111.042 19.943 L 118.233 13.079 L 125.427 19.943 L 118.233 26.804 Z  M 125.427 36.412 L 118.233 43.276 L 111.042 36.412 L 118.233 29.551 L 125.427 36.412 Z  M 125.427 52.884 L 118.233 59.745 L 111.042 52.884 L 118.233 46.022 L 125.427 52.884 Z  M 125.427 69.355 L 118.233 76.217 L 111.042 69.355 L 118.233 62.492 L 125.427 69.355 Z  M 125.427 85.825 L 118.233 92.688 L 111.042 85.825 L 118.233 78.963 L 125.427 85.825 Z  M 125.427 102.296 L 118.233 109.16 L 111.042 102.296 L 118.233 95.435 L 125.427 102.296 Z  M 109.603 117.394 L 102.411 110.533 L 109.6 103.672 L 109.6 103.674 L 109.603 103.669 L 109.605 103.674 L 109.605 103.672 L 116.794 110.533 L 109.603 117.394 Z  M 93.776 102.296 L 100.97 95.435 L 108.161 102.296 L 100.97 109.16 L 93.776 102.296 Z  M 92.339 117.394 L 85.145 110.533 L 92.337 103.672 L 92.337 103.674 L 92.339 103.669 L 92.342 103.674 L 92.342 103.672 L 99.53 110.533 L 92.339 117.394 Z  M 76.515 102.296 L 83.706 95.435 L 90.9 102.296 L 83.706 109.16 L 76.515 102.296 Z  M 75.073 117.394 L 67.882 110.533 L 75.071 103.672 L 75.071 103.674 L 75.073 103.669 L 75.075 103.674 L 75.078 103.672 L 82.269 110.533 L 75.073 117.394 Z  M 59.251 102.296 L 66.442 95.435 L 73.634 102.296 L 66.442 109.16 L 59.251 102.296 Z  M 57.809 117.394 L 50.616 110.533 L 57.807 103.672 L 57.807 103.674 L 57.809 103.669 L 57.812 103.674 L 57.814 103.672 L 65.003 110.533 L 57.809 117.394 Z  M 41.985 102.296 L 49.179 95.435 L 56.37 102.296 L 49.179 109.16 L 41.985 102.296 Z  M 40.546 117.394 L 33.352 110.533 L 40.541 103.672 L 40.543 103.674 L 40.546 103.669 L 40.548 103.674 L 40.548 103.672 L 47.74 110.533 L 40.546 117.394 Z  M 24.721 102.296 L 31.913 95.435 L 39.104 102.296 L 31.913 109.16 L 24.721 102.296 Z  M 23.282 117.394 L 16.088 110.533 L 23.277 103.672 L 23.28 103.674 L 23.282 103.669 L 23.285 103.674 L 23.285 103.672 L 30.473 110.533 L 23.282 117.394 Z  M 7.455 102.296 L 14.649 95.435 L 21.84 102.296 L 14.649 109.16 L 7.455 102.296 Z  M 6.016 117.394 L -1.175 110.533 L 6.014 103.672 L 6.014 103.674 L 6.016 103.669 L 6.018 103.674 L 6.018 103.672 L 13.21 110.533 L 6.016 117.394 Z  M -9.808 102.296 L -2.615 95.435 L 4.579 102.296 L -2.615 109.16 L -9.808 102.296 Z  M -9.806 85.825 L -2.615 78.963 L 4.579 85.825 L -2.615 92.688 L -9.806 85.825 Z  M -9.808 69.355 L -2.615 62.492 L 4.579 69.355 L -2.615 76.217 L -9.808 69.355 Z  M -9.806 52.884 L -2.615 46.022 L 4.579 52.884 L -2.615 59.745 L -9.806 52.884 Z  M -9.808 36.412 L -2.615 29.551 L 4.579 36.412 L -2.615 43.276 L -9.808 36.412 Z  M -9.806 19.943 L -2.615 13.079 L 4.579 19.943 L -2.615 26.804 L -9.806 19.943 Z  M 6.016 4.842 L 13.21 11.706 L 6.018 18.568 L 6.018 18.565 L 6.016 18.568 L 6.014 18.565 L 6.014 18.568 L -1.175 11.706 L 6.016 4.842 Z  M 21.84 19.943 L 14.649 26.804 L 7.455 19.943 L 14.649 13.079 L 21.84 19.943 Z  M 23.282 4.842 L 30.473 11.706 L 23.285 18.568 L 23.285 18.565 L 23.282 18.568 L 23.28 18.565 L 23.277 18.568 L 16.088 11.706 L 23.282 4.842 Z  M 39.104 19.943 L 31.913 26.804 L 24.721 19.943 L 31.913 13.079 L 39.104 19.943 Z  M 40.546 4.842 L 47.74 11.706 L 40.548 18.568 L 40.548 18.565 L 40.546 18.568 L 40.543 18.565 L 40.541 18.565 L 33.352 11.706 L 40.546 4.842 Z  M 56.37 19.943 L 49.179 26.804 L 41.985 19.943 L 49.179 13.079 L 56.37 19.943 Z  M 57.809 4.842 L 65.003 11.706 L 57.814 18.568 L 57.812 18.565 L 57.809 18.568 L 57.807 18.565 L 57.807 18.568 L 50.616 11.706 L 57.809 4.842 Z  M 73.634 19.943 L 66.442 26.804 L 59.251 19.943 L 66.442 13.079 L 73.634 19.943 Z  M 75.073 4.842 L 82.269 11.706 L 75.078 18.568 L 75.075 18.565 L 75.073 18.568 L 75.071 18.565 L 75.071 18.568 L 67.882 11.706 L 75.073 4.842 Z  M 90.9 19.943 L 83.706 26.804 L 76.515 19.943 L 83.706 13.079 L 90.9 19.943 Z  M 92.339 4.842 L 99.53 11.706 L 92.342 18.568 L 92.342 18.565 L 92.339 18.568 L 92.337 18.565 L 92.337 18.568 L 85.145 11.706 L 92.339 4.842 Z  M 108.161 19.943 L 100.97 26.804 L 93.776 19.943 L 100.97 13.079 L 108.161 19.943 Z  M 109.605 35.037 L 109.605 35.037 L 109.603 35.039 L 109.6 35.037 L 102.411 28.178 L 109.6 21.316 L 109.6 21.319 L 109.603 21.316 L 109.605 21.319 L 109.605 21.316 L 116.794 28.178 L 109.605 35.037 Z  M 109.605 51.508 L 109.605 51.508 L 109.603 51.511 L 109.6 51.508 L 109.6 51.508 L 102.411 44.649 L 109.6 37.788 L 109.603 37.785 L 109.605 37.788 L 116.794 44.649 L 109.605 51.508 Z  M 109.605 67.98 L 109.605 67.98 L 109.603 67.982 L 109.6 67.98 L 102.411 61.118 L 109.6 54.259 L 109.6 54.259 L 109.603 54.257 L 109.605 54.259 L 109.605 54.259 L 116.794 61.118 L 109.605 67.98 Z  M 109.605 84.451 L 109.605 84.449 L 109.603 84.451 L 109.6 84.449 L 109.6 84.451 L 102.411 77.59 L 109.6 70.731 L 109.603 70.729 L 109.605 70.731 L 116.794 77.59 L 109.605 84.451 Z  M 93.776 85.825 L 100.97 78.963 L 108.161 85.825 L 100.97 92.688 L 93.776 85.825 Z  M 76.515 85.825 L 83.706 78.963 L 90.9 85.825 L 83.706 92.688 L 76.515 85.825 Z  M 59.251 85.825 L 66.442 78.963 L 73.634 85.825 L 66.442 92.688 L 59.251 85.825 Z  M 41.985 85.825 L 49.179 78.963 L 56.37 85.825 L 49.179 92.688 L 41.985 85.825 Z  M 24.721 85.825 L 31.913 78.963 L 39.104 85.825 L 31.913 92.688 L 24.721 85.825 Z  M 7.455 85.825 L 14.649 78.963 L 21.84 85.825 L 14.649 92.688 L 7.455 85.825 Z  M 6.014 70.731 L 6.014 70.731 L 6.016 70.729 L 6.018 70.731 L 13.21 77.59 L 6.018 84.451 L 6.018 84.449 L 6.016 84.451 L 6.014 84.449 L 6.014 84.451 L -1.175 77.59 L 6.014 70.731 Z  M 6.014 54.259 L 6.014 54.259 L 6.016 54.257 L 6.018 54.259 L 6.018 54.259 L 13.21 61.118 L 6.018 67.98 L 6.016 67.982 L 6.014 67.98 L -1.175 61.118 L 6.014 54.259 Z  M 6.014 37.788 L 6.014 37.788 L 6.016 37.785 L 6.018 37.788 L 13.21 44.649 L 6.018 51.508 L 6.018 51.508 L 6.016 51.511 L 6.014 51.508 L 6.014 51.508 L -1.175 44.649 L 6.014 37.788 Z  M 21.84 36.412 L 14.649 43.276 L 7.455 36.412 L 14.649 29.551 L 21.84 36.412 Z  M 39.104 36.412 L 31.913 43.276 L 24.721 36.412 L 31.913 29.551 L 39.104 36.412 Z  M 56.37 36.412 L 49.179 43.276 L 41.985 36.412 L 49.179 29.551 L 56.37 36.412 Z  M 73.634 36.412 L 66.442 43.276 L 59.251 36.412 L 66.442 29.551 L 73.634 36.412 Z  M 90.9 36.412 L 83.706 43.276 L 76.515 36.412 L 83.706 29.551 L 90.9 36.412 Z  M 76.515 69.355 L 83.706 62.492 L 90.9 69.355 L 83.706 76.217 L 76.515 69.355 Z  M 59.251 69.355 L 66.442 62.492 L 73.634 69.355 L 66.442 76.217 L 59.251 69.355 Z  M 41.985 69.355 L 49.179 62.492 L 56.37 69.355 L 49.179 76.217 L 41.985 69.355 Z  M 24.721 69.355 L 31.913 62.492 L 39.104 69.355 L 31.913 76.217 L 24.721 69.355 Z  M 23.285 67.98 L 23.285 67.98 L 23.282 67.982 L 23.28 67.98 L 23.277 67.98 L 16.088 61.118 L 23.277 54.259 L 23.28 54.259 L 23.282 54.257 L 23.285 54.259 L 23.285 54.259 L 30.473 61.118 L 23.285 67.98 Z  M 39.104 52.884 L 31.913 59.745 L 24.721 52.884 L 31.913 46.022 L 39.104 52.884 Z  M 40.548 67.98 L 40.548 67.98 L 40.546 67.982 L 40.543 67.98 L 40.541 67.98 L 33.352 61.118 L 40.541 54.259 L 40.543 54.259 L 40.546 54.257 L 40.548 54.259 L 40.548 54.259 L 47.74 61.118 L 40.548 67.98 Z  M 56.37 52.884 L 49.179 59.745 L 41.985 52.884 L 49.179 46.022 L 56.37 52.884 Z  M 57.814 67.98 L 57.812 67.98 L 57.809 67.982 L 57.807 67.98 L 50.616 61.118 L 57.807 54.259 L 57.807 54.259 L 57.809 54.257 L 57.812 54.259 L 57.814 54.259 L 65.003 61.118 L 57.814 67.98 Z  M 73.634 52.884 L 66.442 59.745 L 59.251 52.884 L 66.442 46.022 L 73.634 52.884 Z  M 75.078 67.98 L 75.075 67.98 L 75.073 67.982 L 75.071 67.98 L 67.882 61.118 L 75.071 54.259 L 75.071 54.259 L 75.073 54.257 L 75.075 54.259 L 75.078 54.259 L 82.269 61.118 L 75.078 67.98 Z  M 90.9 52.884 L 83.706 59.745 L 76.515 52.884 L 83.706 46.022 L 90.9 52.884 Z  M 92.342 67.98 L 92.342 67.98 L 92.339 67.982 L 92.337 67.98 L 85.145 61.118 L 92.337 54.259 L 92.337 54.259 L 92.339 54.257 L 92.342 54.259 L 92.342 54.259 L 99.53 61.118 L 92.342 67.98 Z  M 92.337 37.788 L 92.337 37.788 L 92.339 37.785 L 92.342 37.788 L 99.53 44.649 L 92.342 51.508 L 92.342 51.508 L 92.339 51.511 L 92.337 51.508 L 92.337 51.508 L 85.145 44.649 L 92.337 37.788 Z  M 75.071 37.788 L 75.071 37.788 L 75.073 37.785 L 75.075 37.788 L 75.078 37.788 L 82.269 44.649 L 75.078 51.508 L 75.075 51.508 L 75.073 51.511 L 75.071 51.508 L 75.071 51.508 L 67.882 44.649 L 75.071 37.788 Z  M 57.807 37.788 L 57.807 37.788 L 57.809 37.785 L 57.812 37.788 L 57.814 37.788 L 65.003 44.649 L 57.814 51.508 L 57.812 51.508 L 57.809 51.511 L 57.807 51.508 L 57.807 51.508 L 50.616 44.649 L 57.807 37.788 Z  M 40.541 37.788 L 40.543 37.788 L 40.546 37.785 L 40.548 37.788 L 47.74 44.649 L 40.548 51.508 L 40.548 51.508 L 40.546 51.511 L 40.543 51.508 L 40.541 51.508 L 33.352 44.649 L 40.541 37.788 Z  M 23.277 37.788 L 23.28 37.788 L 23.282 37.785 L 23.285 37.788 L 30.473 44.649 L 23.285 51.508 L 23.285 51.508 L 23.282 51.511 L 23.28 51.508 L 23.277 51.508 L 16.088 44.649 L 23.277 37.788 Z  M 7.455 52.884 L 14.649 46.022 L 21.84 52.884 L 14.649 59.745 L 7.455 52.884 Z  M 7.455 69.355 L 14.649 62.492 L 21.84 69.355 L 14.649 76.217 L 7.455 69.355 Z  M 23.285 84.451 L 23.285 84.449 L 23.282 84.451 L 23.28 84.449 L 23.277 84.451 L 16.088 77.59 L 23.277 70.731 L 23.28 70.731 L 23.282 70.729 L 23.285 70.731 L 30.473 77.59 L 23.285 84.451 Z  M 40.548 84.451 L 40.548 84.449 L 40.546 84.451 L 40.543 84.449 L 40.541 84.451 L 33.352 77.59 L 40.541 70.731 L 40.543 70.731 L 40.546 70.729 L 40.548 70.731 L 47.74 77.59 L 40.548 84.451 Z  M 57.814 84.451 L 57.812 84.449 L 57.809 84.451 L 57.807 84.449 L 57.807 84.451 L 50.616 77.59 L 57.807 70.731 L 57.809 70.729 L 57.812 70.731 L 57.814 70.731 L 65.003 77.59 L 57.814 84.451 Z  M 75.078 84.451 L 75.075 84.449 L 75.073 84.451 L 75.071 84.449 L 75.071 84.451 L 67.882 77.59 L 75.071 70.731 L 75.073 70.729 L 75.075 70.731 L 75.078 70.731 L 82.269 77.59 L 75.078 84.451 Z  M 92.342 84.451 L 92.342 84.449 L 92.339 84.451 L 92.337 84.449 L 92.337 84.451 L 85.145 77.59 L 92.337 70.731 L 92.339 70.729 L 92.342 70.731 L 99.53 77.59 L 92.342 84.451 Z  M 108.161 69.355 L 100.97 76.217 L 93.776 69.355 L 100.97 62.492 L 108.161 69.355 Z  M 108.161 52.884 L 100.97 59.745 L 93.776 52.884 L 100.97 46.022 L 108.161 52.884 Z  M 108.161 36.412 L 100.97 43.276 L 93.776 36.412 L 100.97 29.551 L 108.161 36.412 Z  M 92.337 21.316 L 92.337 21.319 L 92.339 21.316 L 92.342 21.319 L 92.342 21.316 L 99.53 28.178 L 92.342 35.037 L 92.339 35.039 L 92.337 35.037 L 85.145 28.178 L 92.337 21.316 Z  M 75.071 21.316 L 75.071 21.319 L 75.073 21.316 L 75.075 21.319 L 75.078 21.316 L 82.269 28.178 L 75.078 35.037 L 75.075 35.037 L 75.073 35.039 L 75.071 35.037 L 67.882 28.178 L 75.071 21.316 Z  M 57.807 21.316 L 57.807 21.319 L 57.809 21.316 L 57.812 21.319 L 57.814 21.316 L 65.003 28.178 L 57.814 35.037 L 57.812 35.037 L 57.809 35.039 L 57.807 35.037 L 50.616 28.178 L 57.807 21.316 Z  M 40.541 21.316 L 40.543 21.319 L 40.546 21.316 L 40.548 21.319 L 40.548 21.316 L 47.74 28.178 L 40.548 35.037 L 40.546 35.039 L 40.543 35.037 L 40.541 35.037 L 33.352 28.178 L 40.541 21.316 Z  M 23.277 21.316 L 23.28 21.319 L 23.282 21.316 L 23.285 21.319 L 23.285 21.316 L 30.473 28.178 L 23.285 35.037 L 23.282 35.039 L 23.28 35.037 L 23.277 35.037 L 16.088 28.178 L 23.277 21.316 Z  M 6.014 21.316 L 6.014 21.319 L 6.016 21.316 L 6.018 21.319 L 6.018 21.316 L 13.21 28.178 L 6.018 35.037 L 6.016 35.039 L 6.014 35.037 L -1.175 28.178 L 6.014 21.316 Z  M 6.018 100.921 L 6.018 100.921 L 6.016 100.923 L 6.014 100.921 L 6.014 100.921 L -1.175 94.061 L 6.014 87.2 L 6.014 87.202 L 6.016 87.2 L 6.018 87.202 L 13.21 94.061 L 6.018 100.921 Z  M 23.285 100.921 L 23.285 100.921 L 23.282 100.923 L 23.28 100.921 L 23.277 100.921 L 16.088 94.061 L 23.277 87.2 L 23.28 87.202 L 23.282 87.2 L 23.285 87.202 L 23.285 87.2 L 30.473 94.061 L 23.285 100.921 Z  M 40.548 100.921 L 40.548 100.921 L 40.546 100.923 L 40.543 100.921 L 40.541 100.921 L 33.352 94.061 L 40.541 87.202 L 40.543 87.202 L 40.546 87.2 L 40.548 87.202 L 40.548 87.2 L 47.74 94.061 L 40.548 100.921 Z  M 57.814 100.921 L 57.812 100.921 L 57.809 100.923 L 57.807 100.921 L 57.807 100.921 L 50.616 94.061 L 57.807 87.2 L 57.807 87.202 L 57.809 87.2 L 57.812 87.202 L 57.814 87.202 L 65.003 94.061 L 57.814 100.921 Z  M 75.078 100.921 L 75.075 100.921 L 75.073 100.923 L 75.071 100.921 L 75.071 100.921 L 67.882 94.061 L 75.071 87.2 L 75.071 87.202 L 75.073 87.2 L 75.075 87.202 L 75.078 87.2 L 82.269 94.061 L 75.078 100.921 Z  M 92.342 100.921 L 92.342 100.921 L 92.339 100.923 L 92.337 100.921 L 92.337 100.921 L 85.145 94.061 L 92.337 87.202 L 92.339 87.2 L 92.342 87.202 L 92.342 87.2 L 99.53 94.061 L 92.342 100.921 Z  M 109.605 100.921 L 109.605 100.921 L 109.603 100.923 L 109.6 100.921 L 102.411 94.061 L 109.6 87.202 L 109.603 87.2 L 109.605 87.202 L 109.605 87.2 L 116.794 94.061 L 109.605 100.921 Z  M 109.603 4.842 L 116.794 11.706 L 109.605 18.568 L 109.605 18.565 L 109.603 18.568 L 109.6 18.565 L 102.411 11.706 L 109.603 4.842 Z  M 126.869 18.565 L 126.866 18.57 L 119.673 11.706 L 128.308 3.469 L 126.869 2.094 L 118.233 10.333 L 111.042 3.471 L 111.044 3.469 L 109.605 2.094 L 109.603 2.098 L 109.6 2.094 L 108.161 3.469 L 108.163 3.471 L 100.97 10.333 L 93.776 3.471 L 93.778 3.469 L 92.342 2.094 L 92.339 2.098 L 92.337 2.094 L 90.897 3.469 L 90.9 3.471 L 83.706 10.333 L 76.512 3.471 L 76.515 3.469 L 75.075 2.094 L 75.073 2.098 L 75.071 2.094 L 73.631 3.469 L 73.634 3.471 L 66.442 10.333 L 59.249 3.471 L 59.254 3.469 L 57.812 2.094 L 57.809 2.098 L 57.807 2.094 L 56.368 3.469 L 56.37 3.471 L 49.179 10.333 L 41.985 3.471 L 41.987 3.469 L 40.548 2.094 L 40.546 2.098 L 40.543 2.094 L 39.102 3.469 L 39.106 3.471 L 31.913 10.333 L 24.721 3.471 L 24.724 3.469 L 23.285 2.094 L 23.282 2.098 L 23.28 2.094 L 21.84 3.469 L 21.843 3.471 L 14.649 10.333 L 7.455 3.471 L 7.458 3.469 L 6.018 2.094 L 6.016 2.098 L 6.014 2.094 L 4.577 3.469 L 4.579 3.471 L -2.615 10.333 L -11.25 2.094 L -12.689 3.469 L -4.054 11.706 L -11.248 18.57 L -11.25 18.565 L -12.689 19.938 L -12.687 19.943 L -12.689 19.945 L -11.25 21.319 L -11.248 21.314 L -4.054 28.178 L -11.248 35.039 L -11.25 35.037 L -12.689 36.41 L -12.687 36.412 L -12.689 36.415 L -11.25 37.788 L -11.248 37.785 L -4.054 44.649 L -11.248 51.511 L -11.25 51.508 L -12.689 52.879 L -12.687 52.884 L -12.689 52.886 L -11.25 54.259 L -11.248 54.257 L -4.054 61.118 L -11.248 67.982 L -11.25 67.98 L -12.689 69.351 L -12.687 69.355 L -12.689 69.358 L -11.25 70.731 L -11.248 70.729 L -4.054 77.59 L -11.248 84.451 L -11.25 84.449 L -12.689 85.822 L -12.687 85.825 L -12.689 85.829 L -11.25 87.202 L -11.248 87.198 L -4.054 94.061 L -11.248 100.923 L -11.25 100.921 L -12.689 102.294 L -12.687 102.296 L -12.689 102.298 L -11.25 103.674 L -11.248 103.669 L -4.054 110.533 L -12.689 118.77 L -11.25 120.143 L -2.615 111.904 L 4.579 118.768 L 4.577 118.77 L 6.014 120.143 L 6.016 120.141 L 6.018 120.143 L 7.458 118.77 L 7.455 118.768 L 14.649 111.904 L 21.843 118.768 L 21.84 118.77 L 23.28 120.143 L 23.282 120.141 L 23.285 120.143 L 24.724 118.77 L 24.721 118.768 L 31.913 111.904 L 39.106 118.768 L 39.102 118.77 L 40.543 120.143 L 40.546 120.141 L 40.548 120.143 L 41.987 118.77 L 41.985 118.768 L 49.179 111.904 L 56.37 118.768 L 56.368 118.77 L 57.807 120.143 L 57.809 120.141 L 57.812 120.143 L 59.254 118.77 L 59.249 118.768 L 66.442 111.904 L 73.634 118.768 L 73.631 118.77 L 75.071 120.143 L 75.073 120.141 L 75.075 120.143 L 76.515 118.77 L 76.512 118.768 L 83.706 111.904 L 90.9 118.768 L 90.897 118.77 L 92.337 120.143 L 92.339 120.141 L 92.342 120.143 L 93.778 118.77 L 93.776 118.768 L 100.97 111.904 L 108.163 118.768 L 108.161 118.77 L 109.6 120.143 L 109.603 120.141 L 109.605 120.143 L 111.044 118.77 L 111.042 118.768 L 118.233 111.904 L 126.869 120.143 L 128.308 118.77 L 119.673 110.533 L 126.866 103.669 L 126.869 103.674 L 128.308 102.298 L 128.303 102.296 L 128.308 102.294 L 126.869 100.921 L 126.866 100.923 L 119.673 94.061 L 126.866 87.198 L 126.869 87.202 L 128.308 85.829 L 128.303 85.825 L 128.308 85.822 L 126.869 84.449 L 126.866 84.451 L 119.673 77.59 L 126.866 70.729 L 126.869 70.731 L 128.308 69.358 L 128.303 69.355 L 128.308 69.351 L 126.869 67.98 L 126.866 67.982 L 119.673 61.118 L 126.866 54.257 L 126.869 54.259 L 128.308 52.886 L 128.303 52.884 L 128.308 52.879 L 126.869 51.508 L 126.866 51.511 L 119.673 44.649 L 126.866 37.785 L 126.869 37.788 L 128.308 36.415 L 128.303 36.412 L 128.308 36.41 L 126.869 35.037 L 126.866 35.039 L 119.673 28.178 L 126.866 21.314 L 126.869 21.319 L 128.308 19.945 L 128.303 19.943 L 128.308 19.938 L 126.869 18.565 Z " fill="rgb(203,211,235)"/></g><path d=" M 114.553 9.149 L 4.792 9.149 C 2.145 9.149 0 7.102 0 4.574 C 0 2.047 2.145 0 4.792 0 L 114.553 0 C 117.202 0 119.348 2.047 119.348 4.574 C 119.348 7.102 117.202 9.149 114.553 9.149 Z " fill="rgb(197,206,229)"/><path d=" M 99.504 117.007 L 20.174 117.007 L 20.174 110.64 L 99.504 110.64 L 99.504 117.007 Z " fill="rgb(197,206,229)"/></g></g></svg>