<?xml version="1.0" encoding="UTF-8" standalone="no"?><!-- Generator: Gravit.io --><svg xmlns="http://www.w3.org/2000/svg" xmlns:xlink="http://www.w3.org/1999/xlink" style="isolation:isolate" viewBox="0 0 1728 1000" width="1728pt" height="1000pt"><defs><clipPath id="_clipPath_DbeCPpERRY7fgUFDuZCePrcGHRj0mrET"><rect width="1728" height="1000"/></clipPath></defs><g clip-path="url(#_clipPath_DbeCPpERRY7fgUFDuZCePrcGHRj0mrET)"><rect width="1728" height="1000" style="fill:rgb(238,254,255)" fill-opacity="0"/><g><line x1="1386.375" y1="756.5" x2="1386.11" y2="-8.144" vector-effect="non-scaling-stroke" stroke-width="1" stroke="rgb(0,0,0)" stroke-linejoin="miter" stroke-linecap="square" stroke-miterlimit="3"/><g><g><path d=" M -135.579 1000 L 176.167 1000 L -164.675 756 L -476.421 756 L -135.579 1000 Z " fill="none"/><path d=" M -164.675 756 L 176.167 1000 L -135.579 1000 L -476.421 756 L -164.675 756 Z " fill="none"/><path d=" M 4.813 877.332 L 6.632 878.634 L -305.114 878.634 L -306.933 877.332 L 4.813 877.332 Z " fill="rgb(92,70,57)"/><path d=" M -164.675 756 L 176.167 1000 L -135.579 1000 L -476.421 756 L -164.675 756 Z " fill="rgb(68,51,43)"/><path d=" M 133.349 969.349 L 176.166 1000 L -135.579 1000 L -178.396 969.349 L 133.349 969.349 Z " fill="rgb(92,70,57)"/><path d=" M 62.126 918.362 L 131.122 967.754 L -180.623 967.754 L -249.619 918.362 L 62.126 918.362 Z " fill="rgb(92,70,57)"/><path d=" M 3.455 876.361 L 59.532 916.505 L -252.213 916.505 L -308.29 876.361 L 3.455 876.361 Z " fill="rgb(92,70,57)"/><path d=" M -57.988 832.375 L 1.399 874.889 L -310.346 874.889 L -369.733 832.375 L -57.988 832.375 Z " fill="rgb(92,70,57)"/><path d=" M -117.591 789.707 L -60.045 830.903 L -371.79 830.903 L -429.336 789.707 L -117.591 789.707 Z " fill="rgb(92,70,57)"/><path d=" M -164.676 756 L -118.694 788.917 L -430.439 788.917 L -476.421 756 L -164.676 756 Z " fill="rgb(92,70,57)"/></g><g><path d=" M 174.921 1000 L 486.667 1000 L 145.825 756 L -165.921 756 L 174.921 1000 Z " fill="none"/><path d=" M 145.825 756 L 486.667 1000 L 174.921 1000 L -165.921 756 L 145.825 756 Z " fill="none"/><path d=" M 315.313 877.332 L 317.132 878.634 L 5.386 878.634 L 3.567 877.332 L 315.313 877.332 Z " fill="rgb(92,70,57)"/><path d=" M 145.825 756 L 486.667 1000 L 174.921 1000 L -165.921 756 L 145.825 756 Z " fill="rgb(68,51,43)"/><path d=" M 443.849 969.349 L 486.666 1000 L 174.921 1000 L 132.104 969.349 L 443.849 969.349 Z " fill="rgb(92,70,57)"/><path d=" M 372.626 918.362 L 441.622 967.754 L 129.877 967.754 L 60.881 918.362 L 372.626 918.362 Z " fill="rgb(92,70,57)"/><path d=" M 313.955 876.361 L 370.032 916.505 L 58.287 916.505 L 2.21 876.361 L 313.955 876.361 Z " fill="rgb(92,70,57)"/><path d=" M 252.512 832.375 L 311.899 874.889 L 0.154 874.889 L -59.233 832.375 L 252.512 832.375 Z " fill="rgb(92,70,57)"/><path d=" M 192.909 789.707 L 250.455 830.903 L -61.29 830.903 L -118.836 789.707 L 192.909 789.707 Z " fill="rgb(92,70,57)"/><path d=" M 145.824 756 L 191.806 788.917 L -119.939 788.917 L -165.921 756 L 145.824 756 Z " fill="rgb(92,70,57)"/></g><g><path d=" M 483.921 1000 L 795.667 1000 L 454.825 756 L 143.079 756 L 483.921 1000 Z " fill="none"/><path d=" M 454.825 756 L 795.667 1000 L 483.921 1000 L 143.079 756 L 454.825 756 Z " fill="none"/><path d=" M 624.313 877.332 L 626.132 878.634 L 314.386 878.634 L 312.567 877.332 L 624.313 877.332 Z " fill="rgb(92,70,57)"/><path d=" M 454.825 756 L 795.667 1000 L 483.921 1000 L 143.079 756 L 454.825 756 Z " fill="rgb(68,51,43)"/><path d=" M 752.849 969.349 L 795.666 1000 L 483.921 1000 L 441.104 969.349 L 752.849 969.349 Z " fill="rgb(92,70,57)"/><path d=" M 681.626 918.362 L 750.622 967.754 L 438.877 967.754 L 369.881 918.362 L 681.626 918.362 Z " fill="rgb(92,70,57)"/><path d=" M 622.955 876.361 L 679.032 916.505 L 367.287 916.505 L 311.21 876.361 L 622.955 876.361 Z " fill="rgb(92,70,57)"/><path d=" M 561.512 832.375 L 620.899 874.889 L 309.154 874.889 L 249.767 832.375 L 561.512 832.375 Z " fill="rgb(92,70,57)"/><path d=" M 501.909 789.707 L 559.455 830.903 L 247.71 830.903 L 190.164 789.707 L 501.909 789.707 Z " fill="rgb(92,70,57)"/><path d=" M 454.824 756 L 500.806 788.917 L 189.061 788.917 L 143.079 756 L 454.824 756 Z " fill="rgb(92,70,57)"/></g><g><path d=" M 795.667 1000 L 1107.413 1000 L 766.571 756 L 454.825 756 L 795.667 1000 Z " fill="none"/><path d=" M 766.571 756 L 1107.413 1000 L 795.667 1000 L 454.825 756 L 766.571 756 Z " fill="none"/><path d=" M 936.059 877.332 L 937.878 878.634 L 626.132 878.634 L 624.313 877.332 L 936.059 877.332 Z " fill="rgb(92,70,57)"/><path d=" M 766.571 756 L 1107.413 1000 L 795.667 1000 L 454.825 756 L 766.571 756 Z " fill="rgb(68,51,43)"/><path d=" M 1064.595 969.349 L 1107.412 1000 L 795.667 1000 L 752.85 969.349 L 1064.595 969.349 Z " fill="rgb(92,70,57)"/><path d=" M 993.372 918.362 L 1062.368 967.754 L 750.623 967.754 L 681.627 918.362 L 993.372 918.362 Z " fill="rgb(92,70,57)"/><path d=" M 934.701 876.361 L 990.778 916.505 L 679.033 916.505 L 622.956 876.361 L 934.701 876.361 Z " fill="rgb(92,70,57)"/><path d=" M 873.258 832.375 L 932.645 874.889 L 620.9 874.889 L 561.513 832.375 L 873.258 832.375 Z " fill="rgb(92,70,57)"/><path d=" M 813.655 789.707 L 871.201 830.903 L 559.456 830.903 L 501.91 789.707 L 813.655 789.707 Z " fill="rgb(92,70,57)"/><path d=" M 766.57 756 L 812.552 788.917 L 500.807 788.917 L 454.825 756 L 766.57 756 Z " fill="rgb(92,70,57)"/></g><g><path d=" M 1104.921 1000 L 1416.667 1000 L 1075.825 756 L 764.079 756 L 1104.921 1000 Z " fill="none"/><path d=" M 1075.825 756 L 1416.667 1000 L 1104.921 1000 L 764.079 756 L 1075.825 756 Z " fill="none"/><path d=" M 1245.313 877.332 L 1247.132 878.634 L 935.386 878.634 L 933.567 877.332 L 1245.313 877.332 Z " fill="rgb(92,70,57)"/><path d=" M 1075.825 756 L 1416.667 1000 L 1104.921 1000 L 764.079 756 L 1075.825 756 Z " fill="rgb(68,51,43)"/><path d=" M 1373.849 969.349 L 1416.666 1000 L 1104.921 1000 L 1062.104 969.349 L 1373.849 969.349 Z " fill="rgb(92,70,57)"/><path d=" M 1302.626 918.362 L 1371.622 967.754 L 1059.877 967.754 L 990.881 918.362 L 1302.626 918.362 Z " fill="rgb(92,70,57)"/><path d=" M 1243.955 876.361 L 1300.032 916.505 L 988.287 916.505 L 932.21 876.361 L 1243.955 876.361 Z " fill="rgb(92,70,57)"/><path d=" M 1182.512 832.375 L 1241.899 874.889 L 930.154 874.889 L 870.767 832.375 L 1182.512 832.375 Z " fill="rgb(92,70,57)"/><path d=" M 1122.909 789.707 L 1180.455 830.903 L 868.71 830.903 L 811.164 789.707 L 1122.909 789.707 Z " fill="rgb(92,70,57)"/><path d=" M 1075.824 756 L 1121.806 788.917 L 810.061 788.917 L 764.079 756 L 1075.824 756 Z " fill="rgb(92,70,57)"/></g><g><path d=" M 1415.421 1000 L 1727.167 1000 L 1386.325 756 L 1074.579 756 L 1415.421 1000 Z " fill="none"/><path d=" M 1386.325 756 L 1727.167 1000 L 1415.421 1000 L 1074.579 756 L 1386.325 756 Z " fill="none"/><path d=" M 1555.813 877.332 L 1557.632 878.634 L 1245.886 878.634 L 1244.067 877.332 L 1555.813 877.332 Z " fill="rgb(92,70,57)"/><path d=" M 1386.325 756 L 1727.167 1000 L 1415.421 1000 L 1074.579 756 L 1386.325 756 Z " fill="rgb(68,51,43)"/><path d=" M 1684.349 969.349 L 1727.166 1000 L 1415.421 1000 L 1372.604 969.349 L 1684.349 969.349 Z " fill="rgb(92,70,57)"/><path d=" M 1613.126 918.362 L 1682.122 967.754 L 1370.377 967.754 L 1301.381 918.362 L 1613.126 918.362 Z " fill="rgb(92,70,57)"/><path d=" M 1554.455 876.361 L 1610.532 916.505 L 1298.787 916.505 L 1242.71 876.361 L 1554.455 876.361 Z " fill="rgb(92,70,57)"/><path d=" M 1493.012 832.375 L 1552.399 874.889 L 1240.654 874.889 L 1181.267 832.375 L 1493.012 832.375 Z " fill="rgb(92,70,57)"/><path d=" M 1433.409 789.707 L 1490.955 830.903 L 1179.21 830.903 L 1121.664 789.707 L 1433.409 789.707 Z " fill="rgb(92,70,57)"/><path d=" M 1386.324 756 L 1432.306 788.917 L 1120.561 788.917 L 1074.579 756 L 1386.324 756 Z " fill="rgb(92,70,57)"/></g></g></g></g></svg>