<?xml version="1.0" encoding="UTF-8" standalone="no"?><!-- Generator: Gravit.io --><svg xmlns="http://www.w3.org/2000/svg" xmlns:xlink="http://www.w3.org/1999/xlink" style="isolation:isolate" viewBox="0 0 90 9" width="90pt" height="9pt"><defs><clipPath id="_clipPath_dDuCjlGYJjn5EBNpD1ssSepuG0q4G1BD"><rect width="90" height="9"/></clipPath></defs><g clip-path="url(#_clipPath_dDuCjlGYJjn5EBNpD1ssSepuG0q4G1BD)"><g><mask id="_mask_wYFYHpLxMOIc0zM8jhwI7HSOQXBNB3K4"><rect x="0.5" y="0.5" width="89" height="8" fill="white" stroke="none"/></mask><rect x="0.5" y="0.5" width="89" height="8" transform="matrix(1,0,0,1,0,0)" fill="rgb(97,97,97)"/><rect x="0.5" y="0.5" width="89" height="8" transform="matrix(1,0,0,1,0,0)" fill="rgb(97,97,97)" mask="url(#_mask_wYFYHpLxMOIc0zM8jhwI7HSOQXBNB3K4)" vector-effect="non-scaling-stroke" stroke-width="0.8" stroke="rgb(28,28,28)" stroke-linejoin="miter" stroke-linecap="square" stroke-miterlimit="2"/><mask id="_mask_aWZo9lAv7giYXSQw6xDISVTqlVF2wJdj"><rect x="87.079" y="0.515" width="2.409" height="7.97" fill="white" stroke="none"/></mask><rect x="87.079" y="0.515" width="2.409" height="7.97" transform="matrix(1,0,0,1,0,0)" fill="rgb(36,75,108)"/><rect x="87.079" y="0.515" width="2.409" height="7.97" transform="matrix(1,0,0,1,0,0)" fill="rgb(36,75,108)" mask="url(#_mask_aWZo9lAv7giYXSQw6xDISVTqlVF2wJdj)" vector-effect="non-scaling-stroke" stroke-width="0.8" stroke="rgb(28,28,28)" stroke-linejoin="miter" stroke-linecap="square" stroke-miterlimit="2"/><mask id="_mask_MkvczooISaf8PrFGT4Y42TsXBcpoUDF8"><rect x="83.295" y="0.504" width="4.193" height="7.996" fill="white" stroke="none"/></mask><rect x="83.295" y="0.504" width="4.193" height="7.996" transform="matrix(1,0,0,1,0,0)" fill="rgb(0,0,0)"/><rect x="83.295" y="0.504" width="4.193" height="7.996" transform="matrix(1,0,0,1,0,0)" fill="rgb(0,0,0)" mask="url(#_mask_MkvczooISaf8PrFGT4Y42TsXBcpoUDF8)" vector-effect="non-scaling-stroke" stroke-width="0.8" stroke="rgb(28,28,28)" stroke-linejoin="miter" stroke-linecap="square" stroke-miterlimit="2"/><line x1="32.947" y1="0.707" x2="32.989" y2="8.284" vector-effect="non-scaling-stroke" stroke-width="0.4" stroke="rgb(28,28,28)" stroke-linejoin="miter" stroke-linecap="square" stroke-miterlimit="3"/><line x1="26.345" y1="2.59" x2="26.402" y2="6.41" vector-effect="non-scaling-stroke" stroke-width="0.4" stroke="rgb(28,28,28)" stroke-linejoin="miter" stroke-linecap="square" stroke-miterlimit="3"/><line x1="0.751" y1="0.774" x2="26.347" y2="2.572" vector-effect="non-scaling-stroke" stroke-width="0.4" stroke="rgb(28,28,28)" stroke-linejoin="miter" stroke-linecap="square" stroke-miterlimit="3"/><line x1="0.751" y1="8.286" x2="26.347" y2="6.442" vector-effect="non-scaling-stroke" stroke-width="0.4" stroke="rgb(28,28,28)" stroke-linejoin="miter" stroke-linecap="square" stroke-miterlimit="3"/><path d="M 73.404 2 L 76.536 2 C 76.776 2 76.97 2.194 76.97 2.434 L 76.97 7.566 C 76.97 7.806 76.776 8 76.536 8 L 73.404 8 C 73.164 8 72.97 7.806 72.97 7.566 L 72.97 2.434 C 72.97 2.194 73.164 2 73.404 2 Z" style="stroke:none;fill:#FEFEFE;stroke-miterlimit:10;"/><path d="M 73.404 2 L 76.536 2 C 76.776 2 76.97 2.194 76.97 2.434 L 76.97 7.566 C 76.97 7.806 76.776 8 76.536 8 L 73.404 8 C 73.164 8 72.97 7.806 72.97 7.566 L 72.97 2.434 C 72.97 2.194 73.164 2 73.404 2 Z" style="fill:none;stroke:#000000;stroke-width:0.8;stroke-linecap:square;stroke-miterlimit:2;"/><path d=" M 74.549 6.236 L 74.549 8.021 L 74.351 8.021 L 74.351 6.749 L 74.351 6.749 Q 74.351 6.59 74.361 6.448 L 74.361 6.448 L 74.361 6.448 Q 74.335 6.474 74.303 6.502 L 74.303 6.502 L 74.303 6.502 Q 74.271 6.53 74.013 6.74 L 74.013 6.74 L 73.905 6.601 L 74.378 6.236 L 74.549 6.236 L 74.549 6.236 Z  M 74.981 4.402 L 74.981 4.402 L 74.981 4.402 Q 74.981 4.865 74.835 5.093 L 74.835 5.093 L 74.835 5.093 Q 74.689 5.322 74.389 5.322 L 74.389 5.322 L 74.389 5.322 Q 74.101 5.322 73.95 5.088 L 73.95 5.088 L 73.95 5.088 Q 73.8 4.854 73.8 4.402 L 73.8 4.402 L 73.8 4.402 Q 73.8 3.936 73.946 3.71 L 73.946 3.71 L 73.946 3.71 Q 74.091 3.484 74.389 3.484 L 74.389 3.484 L 74.389 3.484 Q 74.679 3.484 74.83 3.72 L 74.83 3.72 L 74.83 3.72 Q 74.981 3.956 74.981 4.402 Z  M 74.005 4.402 L 74.005 4.402 L 74.005 4.402 Q 74.005 4.792 74.097 4.969 L 74.097 4.969 L 74.097 4.969 Q 74.188 5.147 74.389 5.147 L 74.389 5.147 L 74.389 5.147 Q 74.591 5.147 74.682 4.967 L 74.682 4.967 L 74.682 4.967 Q 74.773 4.787 74.773 4.402 L 74.773 4.402 L 74.773 4.402 Q 74.773 4.018 74.682 3.839 L 74.682 3.839 L 74.682 3.839 Q 74.591 3.66 74.389 3.66 L 74.389 3.66 L 74.389 3.66 Q 74.188 3.66 74.097 3.837 L 74.097 3.837 L 74.097 3.837 Q 74.005 4.013 74.005 4.402 Z " fill="rgb(28,28,28)"/><path d=" M 58.238 3.722 L 58.615 3.722 L 58.615 4.877 L 58.615 4.877 Q 58.615 5.075 58.527 5.224 L 58.527 5.224 L 58.527 5.224 Q 58.438 5.373 58.271 5.452 L 58.271 5.452 L 58.271 5.452 Q 58.104 5.531 57.876 5.531 L 57.876 5.531 L 57.876 5.531 Q 57.531 5.531 57.341 5.355 L 57.341 5.355 L 57.341 5.355 Q 57.151 5.179 57.151 4.872 L 57.151 4.872 L 57.151 3.722 L 57.528 3.722 L 57.528 4.815 L 57.528 4.815 Q 57.528 5.021 57.611 5.118 L 57.611 5.118 L 57.611 5.118 Q 57.694 5.214 57.885 5.214 L 57.885 5.214 L 57.885 5.214 Q 58.071 5.214 58.155 5.117 L 58.155 5.117 L 58.155 5.117 Q 58.238 5.02 58.238 4.812 L 58.238 4.812 L 58.238 3.722 L 58.238 3.722 Z  M 59.558 4.989 L 58.902 4.989 L 58.902 4.684 L 59.558 4.684 L 59.558 4.989 L 59.558 4.989 Z  M 60.665 3.722 L 60.665 5.507 L 60.288 5.507 L 60.288 4.474 L 60.292 4.305 L 60.298 4.119 L 60.298 4.119 Q 60.204 4.213 60.167 4.242 L 60.167 4.242 L 59.962 4.407 L 59.78 4.18 L 60.355 3.722 L 60.665 3.722 L 60.665 3.722 Z  M 62.397 4.615 L 62.397 4.615 L 62.397 4.615 Q 62.397 5.082 62.244 5.307 L 62.244 5.307 L 62.244 5.307 Q 62.091 5.531 61.772 5.531 L 61.772 5.531 L 61.772 5.531 Q 61.463 5.531 61.307 5.3 L 61.307 5.3 L 61.307 5.3 Q 61.15 5.068 61.15 4.615 L 61.15 4.615 L 61.15 4.615 Q 61.15 4.142 61.302 3.918 L 61.302 3.918 L 61.302 3.918 Q 61.455 3.694 61.772 3.694 L 61.772 3.694 L 61.772 3.694 Q 62.081 3.694 62.239 3.929 L 62.239 3.929 L 62.239 3.929 Q 62.397 4.163 62.397 4.615 Z  M 61.524 4.615 L 61.524 4.615 L 61.524 4.615 Q 61.524 4.943 61.581 5.085 L 61.581 5.085 L 61.581 5.085 Q 61.638 5.228 61.772 5.228 L 61.772 5.228 L 61.772 5.228 Q 61.904 5.228 61.963 5.083 L 61.963 5.083 L 61.963 5.083 Q 62.021 4.939 62.021 4.615 L 62.021 4.615 L 62.021 4.615 Q 62.021 4.286 61.962 4.143 L 61.962 4.143 L 61.962 4.143 Q 61.903 3.999 61.772 3.999 L 61.772 3.999 L 61.772 3.999 Q 61.639 3.999 61.582 4.143 L 61.582 4.143 L 61.582 4.143 Q 61.524 4.286 61.524 4.615 Z  M 63.824 4.615 L 63.824 4.615 L 63.824 4.615 Q 63.824 5.082 63.671 5.307 L 63.671 5.307 L 63.671 5.307 Q 63.518 5.531 63.199 5.531 L 63.199 5.531 L 63.199 5.531 Q 62.89 5.531 62.734 5.3 L 62.734 5.3 L 62.734 5.3 Q 62.577 5.068 62.577 4.615 L 62.577 4.615 L 62.577 4.615 Q 62.577 4.142 62.729 3.918 L 62.729 3.918 L 62.729 3.918 Q 62.882 3.694 63.199 3.694 L 63.199 3.694 L 63.199 3.694 Q 63.508 3.694 63.666 3.929 L 63.666 3.929 L 63.666 3.929 Q 63.824 4.163 63.824 4.615 Z  M 62.951 4.615 L 62.951 4.615 L 62.951 4.615 Q 62.951 4.943 63.008 5.085 L 63.008 5.085 L 63.008 5.085 Q 63.065 5.228 63.199 5.228 L 63.199 5.228 L 63.199 5.228 Q 63.331 5.228 63.39 5.083 L 63.39 5.083 L 63.39 5.083 Q 63.448 4.939 63.448 4.615 L 63.448 4.615 L 63.448 4.615 Q 63.448 4.286 63.389 4.143 L 63.389 4.143 L 63.389 4.143 Q 63.33 3.999 63.199 3.999 L 63.199 3.999 L 63.199 3.999 Q 63.066 3.999 63.009 4.143 L 63.009 4.143 L 63.009 4.143 Q 62.951 4.286 62.951 4.615 Z  M 45.952 4.82 L 45.952 4.505 L 46.66 4.505 L 46.66 5.43 L 46.66 5.43 Q 46.488 5.486 46.336 5.509 L 46.336 5.509 L 46.336 5.509 Q 46.184 5.531 46.025 5.531 L 46.025 5.531 L 46.025 5.531 Q 45.621 5.531 45.408 5.294 L 45.408 5.294 L 45.408 5.294 Q 45.195 5.057 45.195 4.612 L 45.195 4.612 L 45.195 4.612 Q 45.195 4.18 45.442 3.938 L 45.442 3.938 L 45.442 3.938 Q 45.689 3.697 46.128 3.697 L 46.128 3.697 L 46.128 3.697 Q 46.402 3.697 46.657 3.807 L 46.657 3.807 L 46.532 4.109 L 46.532 4.109 Q 46.336 4.012 46.125 4.012 L 46.125 4.012 L 46.125 4.012 Q 45.88 4.012 45.732 4.176 L 45.732 4.176 L 45.732 4.176 Q 45.584 4.341 45.584 4.62 L 45.584 4.62 L 45.584 4.62 Q 45.584 4.91 45.703 5.063 L 45.703 5.063 L 45.703 5.063 Q 45.823 5.217 46.05 5.217 L 46.05 5.217 L 46.05 5.217 Q 46.168 5.217 46.29 5.192 L 46.29 5.192 L 46.29 4.82 L 45.952 4.82 L 45.952 4.82 Z  M 47.428 3.608 L 47.428 5.507 L 47.055 5.507 L 47.055 3.608 L 47.428 3.608 L 47.428 3.608 Z  M 48.945 5.507 L 48.685 5.507 L 48.613 5.322 L 48.603 5.322 L 48.603 5.322 Q 48.509 5.44 48.41 5.486 L 48.41 5.486 L 48.41 5.486 Q 48.31 5.531 48.15 5.531 L 48.15 5.531 L 48.15 5.531 Q 47.954 5.531 47.841 5.419 L 47.841 5.419 L 47.841 5.419 Q 47.728 5.307 47.728 5.099 L 47.728 5.099 L 47.728 5.099 Q 47.728 4.882 47.88 4.779 L 47.88 4.779 L 47.88 4.779 Q 48.032 4.676 48.338 4.665 L 48.338 4.665 L 48.575 4.657 L 48.575 4.598 L 48.575 4.598 Q 48.575 4.39 48.363 4.39 L 48.363 4.39 L 48.363 4.39 Q 48.199 4.39 47.978 4.489 L 47.978 4.489 L 47.855 4.238 L 47.855 4.238 Q 48.091 4.114 48.377 4.114 L 48.377 4.114 L 48.377 4.114 Q 48.652 4.114 48.799 4.234 L 48.799 4.234 L 48.799 4.234 Q 48.945 4.353 48.945 4.598 L 48.945 4.598 L 48.945 5.507 L 48.945 5.507 Z  M 48.575 4.987 L 48.575 4.875 L 48.431 4.88 L 48.431 4.88 Q 48.269 4.884 48.189 4.938 L 48.189 4.938 L 48.189 4.938 Q 48.11 4.992 48.11 5.102 L 48.11 5.102 L 48.11 5.102 Q 48.11 5.259 48.291 5.259 L 48.291 5.259 L 48.291 5.259 Q 48.42 5.259 48.498 5.185 L 48.498 5.185 L 48.498 5.185 Q 48.575 5.11 48.575 4.987 L 48.575 4.987 L 48.575 4.987 Z  M 50.09 4.117 L 50.09 4.117 L 50.09 4.117 Q 50.166 4.117 50.216 4.128 L 50.216 4.128 L 50.188 4.477 L 50.188 4.477 Q 50.143 4.465 50.078 4.465 L 50.078 4.465 L 50.078 4.465 Q 49.9 4.465 49.8 4.556 L 49.8 4.556 L 49.8 4.556 Q 49.701 4.648 49.701 4.812 L 49.701 4.812 L 49.701 5.507 L 49.328 5.507 L 49.328 4.142 L 49.61 4.142 L 49.665 4.372 L 49.684 4.372 L 49.684 4.372 Q 49.747 4.257 49.855 4.187 L 49.855 4.187 L 49.855 4.187 Q 49.963 4.117 50.09 4.117 Z  M 51.175 4.142 L 51.651 4.142 L 51.651 4.332 L 51.438 4.386 L 51.438 4.386 Q 51.496 4.478 51.496 4.592 L 51.496 4.592 L 51.496 4.592 Q 51.496 4.811 51.343 4.934 L 51.343 4.934 L 51.343 4.934 Q 51.19 5.057 50.918 5.057 L 50.918 5.057 L 50.851 5.053 L 50.796 5.047 L 50.796 5.047 Q 50.738 5.091 50.738 5.144 L 50.738 5.144 L 50.738 5.144 Q 50.738 5.225 50.943 5.225 L 50.943 5.225 L 51.175 5.225 L 51.175 5.225 Q 51.4 5.225 51.518 5.322 L 51.518 5.322 L 51.518 5.322 Q 51.635 5.418 51.635 5.605 L 51.635 5.605 L 51.635 5.605 Q 51.635 5.844 51.436 5.976 L 51.436 5.976 L 51.436 5.976 Q 51.236 6.108 50.863 6.108 L 50.863 6.108 L 50.863 6.108 Q 50.577 6.108 50.426 6.008 L 50.426 6.008 L 50.426 6.008 Q 50.276 5.909 50.276 5.729 L 50.276 5.729 L 50.276 5.729 Q 50.276 5.606 50.353 5.523 L 50.353 5.523 L 50.353 5.523 Q 50.429 5.44 50.578 5.405 L 50.578 5.405 L 50.578 5.405 Q 50.521 5.38 50.478 5.325 L 50.478 5.325 L 50.478 5.325 Q 50.436 5.269 50.436 5.207 L 50.436 5.207 L 50.436 5.207 Q 50.436 5.129 50.481 5.077 L 50.481 5.077 L 50.481 5.077 Q 50.526 5.025 50.611 4.975 L 50.611 4.975 L 50.611 4.975 Q 50.504 4.928 50.441 4.826 L 50.441 4.826 L 50.441 4.826 Q 50.378 4.723 50.378 4.584 L 50.378 4.584 L 50.378 4.584 Q 50.378 4.361 50.523 4.239 L 50.523 4.239 L 50.523 4.239 Q 50.669 4.117 50.938 4.117 L 50.938 4.117 L 50.938 4.117 Q 50.996 4.117 51.075 4.127 L 51.075 4.127 L 51.075 4.127 Q 51.153 4.137 51.175 4.142 L 51.175 4.142 L 51.175 4.142 Z  M 50.598 5.7 L 50.598 5.7 L 50.598 5.7 Q 50.598 5.777 50.672 5.821 L 50.672 5.821 L 50.672 5.821 Q 50.746 5.865 50.879 5.865 L 50.879 5.865 L 50.879 5.865 Q 51.079 5.865 51.192 5.81 L 51.192 5.81 L 51.192 5.81 Q 51.306 5.755 51.306 5.66 L 51.306 5.66 L 51.306 5.66 Q 51.306 5.583 51.239 5.553 L 51.239 5.553 L 51.239 5.553 Q 51.172 5.524 51.031 5.524 L 51.031 5.524 L 50.838 5.524 L 50.838 5.524 Q 50.736 5.524 50.667 5.572 L 50.667 5.572 L 50.667 5.572 Q 50.598 5.621 50.598 5.7 Z  M 50.733 4.589 L 50.733 4.589 L 50.733 4.589 Q 50.733 4.7 50.784 4.765 L 50.784 4.765 L 50.784 4.765 Q 50.835 4.83 50.938 4.83 L 50.938 4.83 L 50.938 4.83 Q 51.043 4.83 51.092 4.765 L 51.092 4.765 L 51.092 4.765 Q 51.141 4.7 51.141 4.589 L 51.141 4.589 L 51.141 4.589 Q 51.141 4.342 50.938 4.342 L 50.938 4.342 L 50.938 4.342 Q 50.733 4.342 50.733 4.589 Z  M 51.86 3.79 L 51.86 3.79 L 51.86 3.79 Q 51.86 3.608 52.063 3.608 L 52.063 3.608 L 52.063 3.608 Q 52.265 3.608 52.265 3.79 L 52.265 3.79 L 52.265 3.79 Q 52.265 3.876 52.215 3.924 L 52.215 3.924 L 52.215 3.924 Q 52.164 3.973 52.063 3.973 L 52.063 3.973 L 52.063 3.973 Q 51.86 3.973 51.86 3.79 Z  M 52.248 4.142 L 52.248 5.507 L 51.876 5.507 L 51.876 4.142 L 52.248 4.142 L 52.248 4.142 Z  M 53.899 4.617 L 53.899 5.507 L 53.526 5.507 L 53.526 4.71 L 53.526 4.71 Q 53.526 4.562 53.474 4.488 L 53.474 4.488 L 53.474 4.488 Q 53.421 4.415 53.307 4.415 L 53.307 4.415 L 53.307 4.415 Q 53.15 4.415 53.081 4.519 L 53.081 4.519 L 53.081 4.519 Q 53.011 4.623 53.011 4.865 L 53.011 4.865 L 53.011 5.507 L 52.639 5.507 L 52.639 4.142 L 52.923 4.142 L 52.973 4.317 L 52.994 4.317 L 52.994 4.317 Q 53.056 4.218 53.166 4.167 L 53.166 4.167 L 53.166 4.167 Q 53.275 4.117 53.414 4.117 L 53.414 4.117 L 53.414 4.117 Q 53.652 4.117 53.775 4.245 L 53.775 4.245 L 53.775 4.245 Q 53.899 4.374 53.899 4.617 L 53.899 4.617 L 53.899 4.617 Z  M 54.847 4.382 L 54.847 4.382 L 54.847 4.382 Q 54.729 4.382 54.662 4.457 L 54.662 4.457 L 54.662 4.457 Q 54.594 4.532 54.585 4.67 L 54.585 4.67 L 55.107 4.67 L 55.107 4.67 Q 55.105 4.532 55.035 4.457 L 55.035 4.457 L 55.035 4.457 Q 54.966 4.382 54.847 4.382 Z  M 54.9 5.531 L 54.9 5.531 L 54.9 5.531 Q 54.57 5.531 54.385 5.35 L 54.385 5.35 L 54.385 5.35 Q 54.199 5.168 54.199 4.834 L 54.199 4.834 L 54.199 4.834 Q 54.199 4.491 54.37 4.304 L 54.37 4.304 L 54.37 4.304 Q 54.542 4.117 54.845 4.117 L 54.845 4.117 L 54.845 4.117 Q 55.134 4.117 55.295 4.281 L 55.295 4.281 L 55.295 4.281 Q 55.456 4.446 55.456 4.737 L 55.456 4.737 L 55.456 4.917 L 54.576 4.917 L 54.576 4.917 Q 54.582 5.076 54.67 5.165 L 54.67 5.165 L 54.67 5.165 Q 54.758 5.254 54.917 5.254 L 54.917 5.254 L 54.917 5.254 Q 55.04 5.254 55.15 5.229 L 55.15 5.229 L 55.15 5.229 Q 55.26 5.203 55.379 5.147 L 55.379 5.147 L 55.379 5.435 L 55.379 5.435 Q 55.282 5.484 55.171 5.508 L 55.171 5.508 L 55.171 5.508 Q 55.06 5.531 54.9 5.531 Z  M 56.106 5.217 L 56.124 5.245 L 56.124 5.245 Q 56.061 5.491 55.909 5.829 L 55.909 5.829 L 55.641 5.829 L 55.641 5.829 Q 55.72 5.505 55.764 5.217 L 55.764 5.217 L 56.106 5.217 L 56.106 5.217 Z  M 36.478 5.507 L 36.1 5.507 L 36.1 3.722 L 36.478 3.722 L 36.478 5.507 L 36.478 5.507 Z  M 38.158 4.617 L 38.158 5.507 L 37.785 5.507 L 37.785 4.71 L 37.785 4.71 Q 37.785 4.562 37.733 4.488 L 37.733 4.488 L 37.733 4.488 Q 37.68 4.415 37.566 4.415 L 37.566 4.415 L 37.566 4.415 Q 37.409 4.415 37.34 4.519 L 37.34 4.519 L 37.34 4.519 Q 37.27 4.623 37.27 4.865 L 37.27 4.865 L 37.27 5.507 L 36.898 5.507 L 36.898 4.142 L 37.182 4.142 L 37.232 4.317 L 37.253 4.317 L 37.253 4.317 Q 37.315 4.218 37.425 4.167 L 37.425 4.167 L 37.425 4.167 Q 37.534 4.117 37.673 4.117 L 37.673 4.117 L 37.673 4.117 Q 37.911 4.117 38.034 4.245 L 38.034 4.245 L 38.034 4.245 Q 38.158 4.374 38.158 4.617 L 38.158 4.617 L 38.158 4.617 Z  M 39.493 5.102 L 39.493 5.102 L 39.493 5.102 Q 39.493 5.312 39.347 5.422 L 39.347 5.422 L 39.347 5.422 Q 39.201 5.531 38.911 5.531 L 38.911 5.531 L 38.911 5.531 Q 38.762 5.531 38.657 5.511 L 38.657 5.511 L 38.657 5.511 Q 38.552 5.491 38.46 5.452 L 38.46 5.452 L 38.46 5.144 L 38.46 5.144 Q 38.564 5.193 38.694 5.226 L 38.694 5.226 L 38.694 5.226 Q 38.824 5.259 38.923 5.259 L 38.923 5.259 L 38.923 5.259 Q 39.126 5.259 39.126 5.142 L 39.126 5.142 L 39.126 5.142 Q 39.126 5.098 39.099 5.071 L 39.099 5.071 L 39.099 5.071 Q 39.072 5.043 39.006 5.008 L 39.006 5.008 L 39.006 5.008 Q 38.94 4.974 38.83 4.927 L 38.83 4.927 L 38.83 4.927 Q 38.673 4.861 38.599 4.805 L 38.599 4.805 L 38.599 4.805 Q 38.525 4.749 38.492 4.676 L 38.492 4.676 L 38.492 4.676 Q 38.458 4.604 38.458 4.498 L 38.458 4.498 L 38.458 4.498 Q 38.458 4.316 38.599 4.216 L 38.599 4.216 L 38.599 4.216 Q 38.74 4.117 38.999 4.117 L 38.999 4.117 L 38.999 4.117 Q 39.245 4.117 39.479 4.224 L 39.479 4.224 L 39.366 4.493 L 39.366 4.493 Q 39.264 4.449 39.175 4.421 L 39.175 4.421 L 39.175 4.421 Q 39.085 4.393 38.993 4.393 L 38.993 4.393 L 38.993 4.393 Q 38.828 4.393 38.828 4.482 L 38.828 4.482 L 38.828 4.482 Q 38.828 4.532 38.881 4.568 L 38.881 4.568 L 38.881 4.568 Q 38.934 4.605 39.114 4.677 L 39.114 4.677 L 39.114 4.677 Q 39.273 4.742 39.348 4.798 L 39.348 4.798 L 39.348 4.798 Q 39.422 4.854 39.458 4.927 L 39.458 4.927 L 39.458 4.927 Q 39.493 5 39.493 5.102 Z  M 41.036 5.507 L 40.75 5.507 L 40.7 5.332 L 40.681 5.332 L 40.681 5.332 Q 40.621 5.428 40.511 5.48 L 40.511 5.48 L 40.511 5.48 Q 40.401 5.531 40.261 5.531 L 40.261 5.531 L 40.261 5.531 Q 40.021 5.531 39.898 5.403 L 39.898 5.403 L 39.898 5.403 Q 39.776 5.274 39.776 5.032 L 39.776 5.032 L 39.776 4.142 L 40.149 4.142 L 40.149 4.939 L 40.149 4.939 Q 40.149 5.087 40.201 5.161 L 40.201 5.161 L 40.201 5.161 Q 40.254 5.235 40.368 5.235 L 40.368 5.235 L 40.368 5.235 Q 40.525 5.235 40.594 5.13 L 40.594 5.13 L 40.594 5.13 Q 40.664 5.026 40.664 4.784 L 40.664 4.784 L 40.664 4.142 L 41.036 4.142 L 41.036 5.507 L 41.036 5.507 Z  M 41.799 3.608 L 41.799 5.507 L 41.427 5.507 L 41.427 3.608 L 41.799 3.608 L 41.799 3.608 Z  M 42.174 3.79 L 42.174 3.79 L 42.174 3.79 Q 42.174 3.608 42.376 3.608 L 42.376 3.608 L 42.376 3.608 Q 42.579 3.608 42.579 3.79 L 42.579 3.79 L 42.579 3.79 Q 42.579 3.876 42.528 3.924 L 42.528 3.924 L 42.528 3.924 Q 42.478 3.973 42.376 3.973 L 42.376 3.973 L 42.376 3.973 Q 42.174 3.973 42.174 3.79 Z  M 42.562 4.142 L 42.562 5.507 L 42.19 5.507 L 42.19 4.142 L 42.562 4.142 L 42.562 4.142 Z  M 44.212 4.617 L 44.212 5.507 L 43.84 5.507 L 43.84 4.71 L 43.84 4.71 Q 43.84 4.562 43.788 4.488 L 43.788 4.488 L 43.788 4.488 Q 43.735 4.415 43.62 4.415 L 43.62 4.415 L 43.62 4.415 Q 43.464 4.415 43.395 4.519 L 43.395 4.519 L 43.395 4.519 Q 43.325 4.623 43.325 4.865 L 43.325 4.865 L 43.325 5.507 L 42.953 5.507 L 42.953 4.142 L 43.237 4.142 L 43.287 4.317 L 43.308 4.317 L 43.308 4.317 Q 43.37 4.218 43.479 4.167 L 43.479 4.167 L 43.479 4.167 Q 43.589 4.117 43.728 4.117 L 43.728 4.117 L 43.728 4.117 Q 43.966 4.117 44.089 4.245 L 44.089 4.245 L 44.089 4.245 Q 44.212 4.374 44.212 4.617 L 44.212 4.617 L 44.212 4.617 Z " fill="rgb(254,254,254)"/><g><polygon points="80.614,3.809,80.621,5.191,78.222,4.503" fill="rgb(254,254,254)"/><polygon points="80.487,3.979,80.493,5.021,78.565,4.502" fill="rgb(97,97,97)"/></g></g></g></svg>