<?xml version="1.0" encoding="UTF-8" standalone="no"?><!-- Generator: Gravit.io --><svg xmlns="http://www.w3.org/2000/svg" xmlns:xlink="http://www.w3.org/1999/xlink" style="isolation:isolate" viewBox="0 0 90 9" width="90pt" height="9pt"><defs><clipPath id="_clipPath_WHpOptwKAHIWI4w4owI26N0kgMwlJihr"><rect width="90" height="9"/></clipPath></defs><g clip-path="url(#_clipPath_WHpOptwKAHIWI4w4owI26N0kgMwlJihr)"><g><mask id="_mask_VoF0Uo7PIsbkjVFt3ePvlrygSbgeJqnt"><rect x="0.5" y="0.5" width="89" height="8" fill="white" stroke="none"/></mask><rect x="0.5" y="0.5" width="89" height="8" transform="matrix(1,0,0,1,0,0)" fill="rgb(36,75,108)"/><rect x="0.5" y="0.5" width="89" height="8" transform="matrix(1,0,0,1,0,0)" fill="rgb(36,75,108)" mask="url(#_mask_VoF0Uo7PIsbkjVFt3ePvlrygSbgeJqnt)" vector-effect="non-scaling-stroke" stroke-width="0.8" stroke="rgb(28,28,28)" stroke-linejoin="miter" stroke-linecap="square" stroke-miterlimit="2"/><mask id="_mask_Z11Rp7rtIG3lwUi3wAH26s9LYxCyfr4P"><rect x="87.079" y="0.515" width="2.409" height="7.97" fill="white" stroke="none"/></mask><rect x="87.079" y="0.515" width="2.409" height="7.97" transform="matrix(1,0,0,1,0,0)" fill="rgb(208,99,51)"/><rect x="87.079" y="0.515" width="2.409" height="7.97" transform="matrix(1,0,0,1,0,0)" fill="rgb(208,99,51)" mask="url(#_mask_Z11Rp7rtIG3lwUi3wAH26s9LYxCyfr4P)" vector-effect="non-scaling-stroke" stroke-width="0.8" stroke="rgb(28,28,28)" stroke-linejoin="miter" stroke-linecap="square" stroke-miterlimit="2"/><mask id="_mask_cbRdgQj13DtlGmDPYnzkKzDmGLX0GPxk"><rect x="83.295" y="0.504" width="4.193" height="7.996" fill="white" stroke="none"/></mask><rect x="83.295" y="0.504" width="4.193" height="7.996" transform="matrix(1,0,0,1,0,0)" fill="rgb(0,0,0)"/><rect x="83.295" y="0.504" width="4.193" height="7.996" transform="matrix(1,0,0,1,0,0)" fill="rgb(0,0,0)" mask="url(#_mask_cbRdgQj13DtlGmDPYnzkKzDmGLX0GPxk)" vector-effect="non-scaling-stroke" stroke-width="0.8" stroke="rgb(28,28,28)" stroke-linejoin="miter" stroke-linecap="square" stroke-miterlimit="2"/><line x1="32.947" y1="0.707" x2="32.989" y2="8.284" vector-effect="non-scaling-stroke" stroke-width="0.4" stroke="rgb(28,28,28)" stroke-linejoin="miter" stroke-linecap="square" stroke-miterlimit="3"/><line x1="26.345" y1="2.59" x2="26.402" y2="6.41" vector-effect="non-scaling-stroke" stroke-width="0.4" stroke="rgb(28,28,28)" stroke-linejoin="miter" stroke-linecap="square" stroke-miterlimit="3"/><line x1="0.751" y1="0.774" x2="26.347" y2="2.572" vector-effect="non-scaling-stroke" stroke-width="0.4" stroke="rgb(28,28,28)" stroke-linejoin="miter" stroke-linecap="square" stroke-miterlimit="3"/><line x1="0.751" y1="8.286" x2="26.347" y2="6.442" vector-effect="non-scaling-stroke" stroke-width="0.4" stroke="rgb(28,28,28)" stroke-linejoin="miter" stroke-linecap="square" stroke-miterlimit="3"/><path d="M 73.324 2.98 L 76.616 2.98 C 76.811 2.98 76.97 3.139 76.97 3.334 L 76.97 6.626 C 76.97 6.821 76.811 6.98 76.616 6.98 L 73.324 6.98 C 73.129 6.98 72.97 6.821 72.97 6.626 L 72.97 3.334 C 72.97 3.139 73.129 2.98 73.324 2.98 Z" style="stroke:none;fill:#FEFEFE;stroke-miterlimit:10;"/><path d="M 73.324 2.98 L 76.616 2.98 C 76.811 2.98 76.97 3.139 76.97 3.334 L 76.97 6.626 C 76.97 6.821 76.811 6.98 76.616 6.98 L 73.324 6.98 C 73.129 6.98 72.97 6.821 72.97 6.626 L 72.97 3.334 C 72.97 3.139 73.129 2.98 73.324 2.98 Z" style="fill:none;stroke:#000000;stroke-width:0.8;stroke-linecap:square;stroke-miterlimit:2;"/><path d=" M 75.117 4.555 L 75.117 4.555 L 75.117 4.555 Q 75.117 5.11 74.942 5.384 L 74.942 5.384 L 74.942 5.384 Q 74.767 5.658 74.406 5.658 L 74.406 5.658 L 74.406 5.658 Q 74.061 5.658 73.88 5.377 L 73.88 5.377 L 73.88 5.377 Q 73.7 5.097 73.7 4.555 L 73.7 4.555 L 73.7 4.555 Q 73.7 3.995 73.875 3.724 L 73.875 3.724 L 73.875 3.724 Q 74.049 3.453 74.406 3.453 L 74.406 3.453 L 74.406 3.453 Q 74.755 3.453 74.936 3.736 L 74.936 3.736 L 74.936 3.736 Q 75.117 4.019 75.117 4.555 Z  M 73.946 4.555 L 73.946 4.555 L 73.946 4.555 Q 73.946 5.022 74.056 5.235 L 74.056 5.235 L 74.056 5.235 Q 74.166 5.448 74.406 5.448 L 74.406 5.448 L 74.406 5.448 Q 74.649 5.448 74.759 5.232 L 74.759 5.232 L 74.759 5.232 Q 74.868 5.016 74.868 4.555 L 74.868 4.555 L 74.868 4.555 Q 74.868 4.093 74.759 3.879 L 74.759 3.879 L 74.759 3.879 Q 74.649 3.664 74.406 3.664 L 74.406 3.664 L 74.406 3.664 Q 74.166 3.664 74.056 3.876 L 74.056 3.876 L 74.056 3.876 Q 73.946 4.087 73.946 4.555 Z " fill="rgb(28,28,28)"/><path d=" M 79.171 4.447 L 79.171 5.269 L 78.724 5.269 L 78.724 4.313 L 78.724 4.313 Q 78.724 4.135 78.665 4.047 L 78.665 4.047 L 78.665 4.047 Q 78.605 3.958 78.478 3.958 L 78.478 3.958 L 78.478 3.958 Q 78.306 3.958 78.229 4.084 L 78.229 4.084 L 78.229 4.084 Q 78.151 4.21 78.151 4.499 L 78.151 4.499 L 78.151 5.269 L 77.704 5.269 L 77.704 3.631 L 78.046 3.631 L 78.106 3.841 L 78.131 3.841 L 78.131 3.841 Q 78.197 3.728 78.321 3.664 L 78.321 3.664 L 78.321 3.664 Q 78.446 3.601 78.607 3.601 L 78.607 3.601 L 78.607 3.601 Q 78.974 3.601 79.105 3.841 L 79.105 3.841 L 79.144 3.841 L 79.144 3.841 Q 79.21 3.727 79.338 3.664 L 79.338 3.664 L 79.338 3.664 Q 79.467 3.601 79.628 3.601 L 79.628 3.601 L 79.628 3.601 Q 79.906 3.601 80.049 3.743 L 80.049 3.743 L 80.049 3.743 Q 80.192 3.886 80.192 4.201 L 80.192 4.201 L 80.192 5.269 L 79.743 5.269 L 79.743 4.313 L 79.743 4.313 Q 79.743 4.135 79.684 4.047 L 79.684 4.047 L 79.684 4.047 Q 79.625 3.958 79.497 3.958 L 79.497 3.958 L 79.497 3.958 Q 79.333 3.958 79.252 4.075 L 79.252 4.075 L 79.252 4.075 Q 79.171 4.192 79.171 4.447 L 79.171 4.447 L 79.171 4.447 Z  M 81.504 3.631 L 82.075 3.631 L 82.075 3.858 L 81.819 3.924 L 81.819 3.924 Q 81.889 4.034 81.889 4.17 L 81.889 4.17 L 81.889 4.17 Q 81.889 4.434 81.706 4.581 L 81.706 4.581 L 81.706 4.581 Q 81.522 4.729 81.195 4.729 L 81.195 4.729 L 81.115 4.724 L 81.049 4.717 L 81.049 4.717 Q 80.98 4.77 80.98 4.834 L 80.98 4.834 L 80.98 4.834 Q 80.98 4.931 81.226 4.931 L 81.226 4.931 L 81.504 4.931 L 81.504 4.931 Q 81.774 4.931 81.915 5.046 L 81.915 5.046 L 81.915 5.046 Q 82.056 5.162 82.056 5.386 L 82.056 5.386 L 82.056 5.386 Q 82.056 5.673 81.817 5.832 L 81.817 5.832 L 81.817 5.832 Q 81.577 5.99 81.129 5.99 L 81.129 5.99 L 81.129 5.99 Q 80.786 5.99 80.605 5.87 L 80.605 5.87 L 80.605 5.87 Q 80.425 5.751 80.425 5.536 L 80.425 5.536 L 80.425 5.536 Q 80.425 5.388 80.517 5.288 L 80.517 5.288 L 80.517 5.288 Q 80.609 5.188 80.788 5.146 L 80.788 5.146 L 80.788 5.146 Q 80.719 5.117 80.668 5.05 L 80.668 5.05 L 80.668 5.05 Q 80.616 4.983 80.616 4.909 L 80.616 4.909 L 80.616 4.909 Q 80.616 4.815 80.671 4.753 L 80.671 4.753 L 80.671 4.753 Q 80.725 4.69 80.827 4.63 L 80.827 4.63 L 80.827 4.63 Q 80.698 4.575 80.623 4.452 L 80.623 4.452 L 80.623 4.452 Q 80.548 4.329 80.548 4.162 L 80.548 4.162 L 80.548 4.162 Q 80.548 3.894 80.722 3.747 L 80.722 3.747 L 80.722 3.747 Q 80.896 3.601 81.22 3.601 L 81.22 3.601 L 81.22 3.601 Q 81.289 3.601 81.383 3.613 L 81.383 3.613 L 81.383 3.613 Q 81.478 3.625 81.504 3.631 L 81.504 3.631 L 81.504 3.631 Z  M 80.811 5.5 L 80.811 5.5 L 80.811 5.5 Q 80.811 5.593 80.9 5.646 L 80.9 5.646 L 80.9 5.646 Q 80.989 5.698 81.148 5.698 L 81.148 5.698 L 81.148 5.698 Q 81.388 5.698 81.525 5.632 L 81.525 5.632 L 81.525 5.632 Q 81.661 5.566 81.661 5.452 L 81.661 5.452 L 81.661 5.452 Q 81.661 5.36 81.58 5.325 L 81.58 5.325 L 81.58 5.325 Q 81.5 5.29 81.331 5.29 L 81.331 5.29 L 81.1 5.29 L 81.1 5.29 Q 80.977 5.29 80.894 5.347 L 80.894 5.347 L 80.894 5.347 Q 80.811 5.405 80.811 5.5 Z  M 80.974 4.167 L 80.974 4.167 L 80.974 4.167 Q 80.974 4.301 81.035 4.378 L 81.035 4.378 L 81.035 4.378 Q 81.095 4.456 81.22 4.456 L 81.22 4.456 L 81.22 4.456 Q 81.346 4.456 81.405 4.378 L 81.405 4.378 L 81.405 4.378 Q 81.463 4.301 81.463 4.167 L 81.463 4.167 L 81.463 4.167 Q 81.463 3.872 81.22 3.872 L 81.22 3.872 L 81.22 3.872 Q 80.974 3.872 80.974 4.167 Z " fill="rgb(254,254,254)"/><path d=" M 49.176 5.523 L 47.853 5.523 L 47.853 3.381 L 48.307 3.381 L 48.307 5.148 L 49.176 5.148 L 49.176 5.523 L 49.176 5.523 Z  M 49.493 3.462 L 49.493 3.462 L 49.493 3.462 Q 49.493 3.244 49.737 3.244 L 49.737 3.244 L 49.737 3.244 Q 49.98 3.244 49.98 3.462 L 49.98 3.462 L 49.98 3.462 Q 49.98 3.566 49.919 3.624 L 49.919 3.624 L 49.919 3.624 Q 49.858 3.682 49.737 3.682 L 49.737 3.682 L 49.737 3.682 Q 49.493 3.682 49.493 3.462 Z  M 49.959 3.885 L 49.959 5.523 L 49.513 5.523 L 49.513 3.885 L 49.959 3.885 L 49.959 3.885 Z  M 51.342 3.854 L 51.342 3.854 L 51.342 3.854 Q 51.433 3.854 51.493 3.868 L 51.493 3.868 L 51.459 4.287 L 51.459 4.287 Q 51.405 4.272 51.327 4.272 L 51.327 4.272 L 51.327 4.272 Q 51.114 4.272 50.994 4.382 L 50.994 4.382 L 50.994 4.382 Q 50.875 4.492 50.875 4.689 L 50.875 4.689 L 50.875 5.523 L 50.428 5.523 L 50.428 3.885 L 50.766 3.885 L 50.832 4.161 L 50.854 4.161 L 50.854 4.161 Q 50.93 4.023 51.06 3.939 L 51.06 3.939 L 51.06 3.939 Q 51.19 3.854 51.342 3.854 Z  M 53.142 5.523 L 52.83 5.523 L 52.744 5.3 L 52.732 5.3 L 52.732 5.3 Q 52.619 5.442 52.5 5.497 L 52.5 5.497 L 52.5 5.497 Q 52.381 5.552 52.189 5.552 L 52.189 5.552 L 52.189 5.552 Q 51.953 5.552 51.817 5.417 L 51.817 5.417 L 51.817 5.417 Q 51.682 5.283 51.682 5.034 L 51.682 5.034 L 51.682 5.034 Q 51.682 4.773 51.864 4.649 L 51.864 4.649 L 51.864 4.649 Q 52.047 4.525 52.414 4.512 L 52.414 4.512 L 52.699 4.503 L 52.699 4.432 L 52.699 4.432 Q 52.699 4.183 52.444 4.183 L 52.444 4.183 L 52.444 4.183 Q 52.247 4.183 51.982 4.301 L 51.982 4.301 L 51.834 3.999 L 51.834 3.999 Q 52.117 3.852 52.461 3.852 L 52.461 3.852 L 52.461 3.852 Q 52.791 3.852 52.967 3.995 L 52.967 3.995 L 52.967 3.995 Q 53.142 4.139 53.142 4.432 L 53.142 4.432 L 53.142 5.523 L 53.142 5.523 Z  M 52.699 4.899 L 52.699 4.764 L 52.526 4.77 L 52.526 4.77 Q 52.331 4.776 52.236 4.84 L 52.236 4.84 L 52.236 4.84 Q 52.14 4.905 52.14 5.037 L 52.14 5.037 L 52.14 5.037 Q 52.14 5.226 52.357 5.226 L 52.357 5.226 L 52.357 5.226 Q 52.513 5.226 52.606 5.136 L 52.606 5.136 L 52.606 5.136 Q 52.699 5.047 52.699 4.899 L 52.699 4.899 L 52.699 4.899 Z  M 54.456 3.885 L 55.028 3.885 L 55.028 4.112 L 54.771 4.178 L 54.771 4.178 Q 54.842 4.288 54.842 4.424 L 54.842 4.424 L 54.842 4.424 Q 54.842 4.688 54.658 4.835 L 54.658 4.835 L 54.658 4.835 Q 54.474 4.982 54.147 4.982 L 54.147 4.982 L 54.067 4.978 L 54.001 4.971 L 54.001 4.971 Q 53.932 5.023 53.932 5.088 L 53.932 5.088 L 53.932 5.088 Q 53.932 5.185 54.178 5.185 L 54.178 5.185 L 54.456 5.185 L 54.456 5.185 Q 54.726 5.185 54.867 5.3 L 54.867 5.3 L 54.867 5.3 Q 55.009 5.416 55.009 5.64 L 55.009 5.64 L 55.009 5.64 Q 55.009 5.927 54.769 6.085 L 54.769 6.085 L 54.769 6.085 Q 54.53 6.244 54.081 6.244 L 54.081 6.244 L 54.081 6.244 Q 53.739 6.244 53.558 6.124 L 53.558 6.124 L 53.558 6.124 Q 53.377 6.005 53.377 5.79 L 53.377 5.79 L 53.377 5.79 Q 53.377 5.642 53.469 5.542 L 53.469 5.542 L 53.469 5.542 Q 53.561 5.442 53.74 5.4 L 53.74 5.4 L 53.74 5.4 Q 53.671 5.371 53.62 5.304 L 53.62 5.304 L 53.62 5.304 Q 53.569 5.237 53.569 5.163 L 53.569 5.163 L 53.569 5.163 Q 53.569 5.069 53.623 5.007 L 53.623 5.007 L 53.623 5.007 Q 53.677 4.944 53.78 4.884 L 53.78 4.884 L 53.78 4.884 Q 53.651 4.829 53.575 4.706 L 53.575 4.706 L 53.575 4.706 Q 53.5 4.582 53.5 4.415 L 53.5 4.415 L 53.5 4.415 Q 53.5 4.147 53.674 4.001 L 53.674 4.001 L 53.674 4.001 Q 53.848 3.854 54.172 3.854 L 54.172 3.854 L 54.172 3.854 Q 54.241 3.854 54.336 3.867 L 54.336 3.867 L 54.336 3.867 Q 54.43 3.879 54.456 3.885 L 54.456 3.885 L 54.456 3.885 Z  M 53.763 5.754 L 53.763 5.754 L 53.763 5.754 Q 53.763 5.847 53.852 5.899 L 53.852 5.899 L 53.852 5.899 Q 53.941 5.952 54.1 5.952 L 54.1 5.952 L 54.1 5.952 Q 54.341 5.952 54.477 5.886 L 54.477 5.886 L 54.477 5.886 Q 54.613 5.82 54.613 5.706 L 54.613 5.706 L 54.613 5.706 Q 54.613 5.614 54.533 5.579 L 54.533 5.579 L 54.533 5.579 Q 54.452 5.543 54.284 5.543 L 54.284 5.543 L 54.052 5.543 L 54.052 5.543 Q 53.929 5.543 53.846 5.601 L 53.846 5.601 L 53.846 5.601 Q 53.763 5.659 53.763 5.754 Z  M 53.926 4.421 L 53.926 4.421 L 53.926 4.421 Q 53.926 4.555 53.987 4.632 L 53.987 4.632 L 53.987 4.632 Q 54.048 4.71 54.172 4.71 L 54.172 4.71 L 54.172 4.71 Q 54.298 4.71 54.357 4.632 L 54.357 4.632 L 54.357 4.632 Q 54.415 4.555 54.415 4.421 L 54.415 4.421 L 54.415 4.421 Q 54.415 4.125 54.172 4.125 L 54.172 4.125 L 54.172 4.125 Q 53.926 4.125 53.926 4.421 Z  M 55.744 3.244 L 55.744 5.523 L 55.297 5.523 L 55.297 3.244 L 55.744 3.244 L 55.744 3.244 Z  M 57.716 5.523 L 57.373 5.523 L 57.313 5.313 L 57.289 5.313 L 57.289 5.313 Q 57.218 5.428 57.086 5.49 L 57.086 5.49 L 57.086 5.49 Q 56.954 5.552 56.785 5.552 L 56.785 5.552 L 56.785 5.552 Q 56.497 5.552 56.35 5.398 L 56.35 5.398 L 56.35 5.398 Q 56.204 5.243 56.204 4.953 L 56.204 4.953 L 56.204 3.885 L 56.651 3.885 L 56.651 4.842 L 56.651 4.842 Q 56.651 5.019 56.714 5.108 L 56.714 5.108 L 56.714 5.108 Q 56.777 5.196 56.914 5.196 L 56.914 5.196 L 56.914 5.196 Q 57.102 5.196 57.185 5.071 L 57.185 5.071 L 57.185 5.071 Q 57.269 4.946 57.269 4.656 L 57.269 4.656 L 57.269 3.885 L 57.716 3.885 L 57.716 5.523 L 57.716 5.523 Z  M 58.874 5.196 L 58.874 5.196 L 58.874 5.196 Q 58.992 5.196 59.156 5.145 L 59.156 5.145 L 59.156 5.477 L 59.156 5.477 Q 58.989 5.552 58.745 5.552 L 58.745 5.552 L 58.745 5.552 Q 58.477 5.552 58.355 5.417 L 58.355 5.417 L 58.355 5.417 Q 58.233 5.281 58.233 5.01 L 58.233 5.01 L 58.233 4.221 L 58.019 4.221 L 58.019 4.032 L 58.265 3.882 L 58.394 3.537 L 58.68 3.537 L 58.68 3.885 L 59.138 3.885 L 59.138 4.221 L 58.68 4.221 L 58.68 5.01 L 58.68 5.01 Q 58.68 5.105 58.733 5.151 L 58.733 5.151 L 58.733 5.151 Q 58.786 5.196 58.874 5.196 Z  M 59.468 3.462 L 59.468 3.462 L 59.468 3.462 Q 59.468 3.244 59.711 3.244 L 59.711 3.244 L 59.711 3.244 Q 59.954 3.244 59.954 3.462 L 59.954 3.462 L 59.954 3.462 Q 59.954 3.566 59.893 3.624 L 59.893 3.624 L 59.893 3.624 Q 59.832 3.682 59.711 3.682 L 59.711 3.682 L 59.711 3.682 Q 59.468 3.682 59.468 3.462 Z  M 59.933 3.885 L 59.933 5.523 L 59.487 5.523 L 59.487 3.885 L 59.933 3.885 L 59.933 3.885 Z  M 60.921 5.552 L 60.921 5.552 L 60.921 5.552 Q 60.632 5.552 60.467 5.328 L 60.467 5.328 L 60.467 5.328 Q 60.303 5.104 60.303 4.707 L 60.303 4.707 L 60.303 4.707 Q 60.303 4.304 60.47 4.079 L 60.47 4.079 L 60.47 4.079 Q 60.638 3.854 60.932 3.854 L 60.932 3.854 L 60.932 3.854 Q 61.242 3.854 61.404 4.095 L 61.404 4.095 L 61.419 4.095 L 61.419 4.095 Q 61.385 3.912 61.385 3.768 L 61.385 3.768 L 61.385 3.244 L 61.833 3.244 L 61.833 5.523 L 61.491 5.523 L 61.404 5.311 L 61.385 5.311 L 61.385 5.311 Q 61.233 5.552 60.921 5.552 Z  M 61.077 5.196 L 61.077 5.196 L 61.077 5.196 Q 61.249 5.196 61.329 5.097 L 61.329 5.097 L 61.329 5.097 Q 61.409 4.997 61.416 4.758 L 61.416 4.758 L 61.416 4.71 L 61.416 4.71 Q 61.416 4.446 61.335 4.332 L 61.335 4.332 L 61.335 4.332 Q 61.253 4.218 61.07 4.218 L 61.07 4.218 L 61.07 4.218 Q 60.921 4.218 60.838 4.344 L 60.838 4.344 L 60.838 4.344 Q 60.755 4.471 60.755 4.713 L 60.755 4.713 L 60.755 4.713 Q 60.755 4.955 60.839 5.075 L 60.839 5.075 L 60.839 5.075 Q 60.922 5.196 61.077 5.196 Z  M 62.979 4.172 L 62.979 4.172 L 62.979 4.172 Q 62.837 4.172 62.756 4.262 L 62.756 4.262 L 62.756 4.262 Q 62.676 4.352 62.664 4.518 L 62.664 4.518 L 63.291 4.518 L 63.291 4.518 Q 63.288 4.352 63.204 4.262 L 63.204 4.262 L 63.204 4.262 Q 63.121 4.172 62.979 4.172 Z  M 63.042 5.552 L 63.042 5.552 L 63.042 5.552 Q 62.646 5.552 62.424 5.334 L 62.424 5.334 L 62.424 5.334 Q 62.201 5.116 62.201 4.716 L 62.201 4.716 L 62.201 4.716 Q 62.201 4.304 62.407 4.079 L 62.407 4.079 L 62.407 4.079 Q 62.613 3.854 62.976 3.854 L 62.976 3.854 L 62.976 3.854 Q 63.323 3.854 63.516 4.052 L 63.516 4.052 L 63.516 4.052 Q 63.71 4.25 63.71 4.599 L 63.71 4.599 L 63.71 4.815 L 62.654 4.815 L 62.654 4.815 Q 62.661 5.006 62.766 5.113 L 62.766 5.113 L 62.766 5.113 Q 62.872 5.22 63.062 5.22 L 63.062 5.22 L 63.062 5.22 Q 63.21 5.22 63.342 5.189 L 63.342 5.189 L 63.342 5.189 Q 63.474 5.158 63.617 5.091 L 63.617 5.091 L 63.617 5.436 L 63.617 5.436 Q 63.5 5.495 63.367 5.524 L 63.367 5.524 L 63.367 5.524 Q 63.234 5.552 63.042 5.552 Z " fill="rgb(254,254,254)"/></g></g></svg>