<?xml version="1.0" encoding="UTF-8" standalone="no"?><!-- Generator: Gravit.io --><svg xmlns="http://www.w3.org/2000/svg" xmlns:xlink="http://www.w3.org/1999/xlink" style="isolation:isolate" viewBox="0 0 157.6 14.3" width="157.6pt" height="14.3pt"><defs><clipPath id="_clipPath_mNSi1Clg05a6iyGLXExego5USTN79ouE"><rect width="157.6" height="14.3"/></clipPath></defs><g clip-path="url(#_clipPath_mNSi1Clg05a6iyGLXExego5USTN79ouE)"><g><path d=" M 11.747 10.255 L 5.274 10.255 C 4.424 10.255 3.733 9.515 3.733 8.602 L 3.733 1.655 C 3.733 0.741 4.424 0 5.274 0 L 11.747 0 C 12.599 0 13.289 0.741 13.289 1.655 L 13.289 8.602 C 13.289 9.515 12.599 10.255 11.747 10.255 Z " fill="rgb(203,211,235)"/><path d=" M 23.46 10.255 L 16.988 10.255 C 16.137 10.255 15.447 9.515 15.447 8.602 L 15.447 1.655 C 15.447 0.741 16.137 0 16.988 0 L 23.46 0 C 24.312 0 25.003 0.741 25.003 1.655 L 25.003 8.602 C 25.003 9.515 24.312 10.255 23.46 10.255 Z " fill="rgb(203,211,235)"/><path d=" M 35.176 10.255 L 28.703 10.255 C 27.851 10.255 27.161 9.515 27.161 8.602 L 27.161 1.655 C 27.161 0.741 27.851 0 28.703 0 L 35.176 0 C 36.026 0 36.717 0.741 36.717 1.655 L 36.717 8.602 C 36.717 9.515 36.026 10.255 35.176 10.255 Z " fill="rgb(203,211,235)"/><path d=" M 94.087 0 L 90.223 0 L 86.934 0 L 82.373 0 L 75.221 0 L 70.659 0 L 63.505 0 L 58.945 0 L 51.791 0 L 47.23 0 L 42.873 0 L 40.077 0 C 39.414 0 38.877 0.577 38.877 1.289 L 38.877 8.967 C 38.877 9.678 39.414 10.255 40.077 10.255 L 47.23 10.255 C 47.894 10.255 48.43 9.678 48.43 8.967 L 48.43 7.038 L 50.59 7.038 L 50.59 8.967 C 50.59 9.678 51.128 10.255 51.791 10.255 L 58.945 10.255 C 59.608 10.255 60.146 9.678 60.146 8.967 L 60.146 7.038 L 62.304 7.038 L 62.304 8.967 C 62.304 9.678 62.842 10.255 63.505 10.255 L 70.659 10.255 C 71.322 10.255 71.86 9.678 71.86 8.967 L 71.86 7.038 L 74.018 7.038 L 74.018 8.967 C 74.018 9.678 74.556 10.255 75.221 10.255 L 82.373 10.255 C 83.036 10.255 83.574 9.678 83.574 8.967 L 83.574 7.038 L 85.734 7.038 L 85.734 8.967 C 85.734 9.678 86.271 10.255 86.934 10.255 L 94.087 10.255 C 94.751 10.255 95.287 9.678 95.287 8.967 L 95.287 1.289 C 95.287 0.577 94.751 0 94.087 0 Z " fill="rgb(203,211,235)"/><path d=" M 105.461 10.255 L 98.99 10.255 C 98.138 10.255 97.447 9.515 97.447 8.602 L 97.447 1.655 C 97.447 0.741 98.138 0 98.99 0 L 105.461 0 C 106.313 0 107.003 0.741 107.003 1.655 L 107.003 8.602 C 107.003 9.515 106.313 10.255 105.461 10.255 Z " fill="rgb(203,211,235)"/><path d=" M 117.176 10.255 L 110.704 10.255 C 109.852 10.255 109.161 9.515 109.161 8.602 L 109.161 1.655 C 109.161 0.741 109.852 0 110.704 0 L 117.176 0 C 118.027 0 118.717 0.741 118.717 1.655 L 118.717 8.602 C 118.717 9.515 118.027 10.255 117.176 10.255 Z " fill="rgb(203,211,235)"/><path d=" M 128.892 10.255 L 122.417 10.255 C 121.565 10.255 120.875 9.515 120.875 8.602 L 120.875 1.655 C 120.875 0.741 121.565 0 122.417 0 L 128.892 0 C 129.74 0 130.431 0.741 130.431 1.655 L 130.431 8.602 C 130.431 9.515 129.74 10.255 128.892 10.255 Z " fill="rgb(203,211,235)"/><path d=" M 140.606 10.255 L 134.131 10.255 C 133.281 10.255 132.591 9.515 132.591 8.602 L 132.591 1.655 C 132.591 0.741 133.281 0 134.131 0 L 140.606 0 C 141.456 0 142.145 0.741 142.145 1.655 L 142.145 8.602 C 142.145 9.515 141.456 10.255 140.606 10.255 Z " fill="rgb(203,211,235)"/><path d=" M 152.32 10.255 L 145.847 10.255 C 144.995 10.255 144.305 9.515 144.305 8.602 L 144.305 1.655 C 144.305 0.741 144.995 0 145.847 0 L 152.32 0 C 153.17 0 153.86 0.741 153.86 1.655 L 153.86 8.602 C 153.86 9.515 153.17 10.255 152.32 10.255 Z " fill="rgb(203,211,235)"/><path d=" M 154.556 14.327 L 3.036 14.327 C 1.359 14.327 0 12.868 0 11.069 L 0 7.202 C 0 5.403 1.359 3.944 3.036 3.944 L 154.556 3.944 C 156.233 3.944 157.592 5.403 157.592 7.202 L 157.592 11.069 C 157.592 12.868 156.233 14.327 154.556 14.327 Z " fill="rgb(140,146,160)"/></g></g></svg>