<?xml version="1.0" encoding="UTF-8" standalone="no"?><!-- Generator: Gravit.io --><svg xmlns="http://www.w3.org/2000/svg" xmlns:xlink="http://www.w3.org/1999/xlink" style="isolation:isolate" viewBox="0 0 256 210.8" width="256pt" height="210.8pt"><defs><clipPath id="_clipPath_y2nWsqaSYRXbJDT8JLbBRmEiJXV1sNa8"><rect width="256" height="210.8"/></clipPath></defs><g clip-path="url(#_clipPath_y2nWsqaSYRXbJDT8JLbBRmEiJXV1sNa8)"><g><path d=" M 160.436 206.55 L 95.535 206.55 L 99.248 178.29 L 157.253 178.29 L 160.436 206.55 Z " fill="rgb(128,134,143)"/><path d=" M 0 154.622 L 0 172.072 C 0 175.614 2.864 178.513 6.367 178.513 L 249.607 178.513 C 253.105 178.513 255.969 175.614 255.969 172.072 L 255.969 154.622 L 0 154.622 Z " fill="rgb(198,206,214)"/><path d=" M 255.969 6.442 C 255.969 2.899 253.105 0 249.607 0 L 6.367 0 C 2.864 0 0 2.899 0 6.442 L 0 154.622 L 255.969 154.622 L 255.969 6.442 Z " fill="rgb(77,77,78)"/><path d=" M 246.952 146.032 L 9.018 146.032 L 9.018 8.59 L 246.952 8.59 L 246.952 146.032 Z " fill="rgb(230,231,232)"/><path d=" M 95.535 206.55 L 160.436 206.55 L 171.851 209.28 L 84.119 209.346 L 95.535 206.55 Z " fill="rgb(198,206,214)"/><path d=" M 171.253 210.798 L 84.715 210.798 L 84.142 209.346 L 171.851 209.28 L 171.253 210.798 Z " fill="rgb(128,134,143)"/><path d=" M 132.538 167.329 C 132.538 169.873 130.5 171.936 127.986 171.936 C 125.468 171.936 123.431 169.873 123.431 167.329 C 123.431 164.783 125.468 162.719 127.986 162.719 C 130.5 162.719 132.538 164.783 132.538 167.329 Z " fill="rgb(77,77,78)"/></g></g></svg>