<?xml version="1.0" encoding="UTF-8" standalone="no"?><!-- Generator: Gravit.io --><svg xmlns="http://www.w3.org/2000/svg" xmlns:xlink="http://www.w3.org/1999/xlink" style="isolation:isolate" viewBox="0 0 101 267.3" width="101pt" height="267.3pt"><defs><clipPath id="_clipPath_3rM5VjOnFWU73GrqHaXbzeu8noh9swgP"><rect width="101" height="267.3"/></clipPath></defs><g clip-path="url(#_clipPath_3rM5VjOnFWU73GrqHaXbzeu8noh9swgP)"><g><g><path d=" M 18.504 139.334 L 18.504 167.19 L 71.874 167.19 L 71.874 143.898 L 18.504 139.334 Z " fill="rgb(94,76,119)"/><path d=" M 93.427 119.031 C 90.344 126.563 75.282 123.939 75.282 123.939 L 78.075 155.54 L 51.74 155.54 L 48.538 144.977 L 43.989 155.54 L 12.906 155.54 L 14.502 134.512 L 15.131 126.264 C 15.131 126.264 1.614 128.219 0.138 117.764 C -0.211 115.301 0.078 105.235 1.285 95.259 C 2.213 87.648 3.669 80.087 5.794 76.028 C 9.575 68.796 30.373 65.064 30.373 65.064 L 64.728 66.331 C 64.728 66.331 80.649 68.895 84.858 74.721 C 89.566 81.234 95.631 113.614 93.427 119.031 Z " fill="rgb(167,104,150)"/><path d=" M 56.531 106.042 C 56.531 106.593 56.084 107.04 55.532 107.04 C 54.98 107.04 54.533 106.593 54.533 106.042 C 54.533 105.49 54.98 105.043 55.532 105.043 C 56.084 105.043 56.531 105.49 56.531 106.042 Z " fill="rgb(253,198,99)"/><path d=" M 81.89 143.734 C 81.89 143.734 61.938 138.371 53.743 167.19 L 76.425 167.19 L 81.03 144.181" fill="rgb(117,82,129)"/><path d=" M 74.34 105.353 L 73.206 84.491 C 73.206 84.491 71.538 91.457 72.206 94.664 C 70.109 93.005 70.322 94.775 71.654 97.096 C 68.672 97.317 68.949 103.428 68.949 103.428 L 74.34 105.353 Z " fill="rgb(137,93,126)"/><path d=" M 18.306 103.428 L 19.128 86.758 C 19.128 86.758 20.904 90.13 19.766 97.317 C 20.352 96.543 22.034 92.562 23.348 93.06 C 24.664 93.558 20.828 99.775 20.828 99.775 L 25.483 98.202 C 25.483 98.202 26.212 103.679 18.306 103.428 Z " fill="rgb(137,93,126)"/><path d=" M 30.374 65.067 L 23.348 77.744 L 33.093 78.746 L 28.867 83.325 L 46.983 100.319 L 46.983 97.317 L 30.374 65.067 Z " fill="rgb(137,93,126)"/><path d=" M 64.724 66.33 L 72.525 77.744 L 62.782 78.746 L 66.424 83.325 L 46.983 100.319 L 46.983 97.317 L 64.724 66.33 Z " fill="rgb(137,93,126)"/><path d=" M 58.094 67.369 L 46.982 94.012 L 35.879 66.69 L 36.358 56.057 L 36.657 49.534 L 37.007 41.733 L 55.092 43.299 L 55.69 48.117 L 56.708 56.246 L 58.094 67.369 Z " fill="rgb(232,188,155)"/><path d=" M 47.466 60.51 C 42.144 60.51 38.219 57.712 36.358 56.057 L 36.657 49.534 L 55.69 48.117 L 56.708 56.246 C 55.231 58.082 52.438 60.417 47.77 60.507 C 47.668 60.509 47.566 60.51 47.466 60.51 Z " fill="rgb(213,172,141)"/><path d=" M 24.768 28.184 C 24.768 28.184 23.522 9.378 25.115 7.561 C 26.707 5.742 31.797 6.834 31.797 6.834 C 31.797 6.834 46.189 -1.65 56.992 0.288 C 67.795 2.228 68.039 8.53 68.039 8.53 C 68.039 8.53 71.189 16.449 69.614 26.367 C 60.644 37.862 24.768 28.184 24.768 28.184 Z " fill="rgb(230,230,230)"/><path d=" M 25.866 27.371 C 25.866 27.371 20.905 55.473 46.711 55.569 C 72.011 55.664 66.677 25.315 66.677 25.315 C 66.677 25.315 61.629 17.651 60.287 10.834 C 53.893 10.236 46.119 23.899 34.087 13.258 C 31.682 27.559 25.866 27.371 25.866 27.371 Z " fill="rgb(232,188,155)"/><path d=" M 62.86 37.175 C 62.86 38.968 61.407 40.422 59.613 40.422 C 57.82 40.422 56.367 38.968 56.367 37.175 C 56.367 35.383 57.82 33.928 59.613 33.928 C 61.407 33.928 62.86 35.383 62.86 37.175 Z " fill="rgb(236,175,156)"/><path d=" M 37.426 36.879 C 37.426 38.724 35.93 40.218 34.087 40.218 C 32.242 40.218 30.747 38.724 30.747 36.879 C 30.747 35.035 32.242 33.54 34.087 33.54 C 35.93 33.54 37.426 35.035 37.426 36.879 Z " fill="rgb(236,175,156)"/><path d=" M 28.378 30.014 C 28.378 30.014 25.573 22.67 21.46 25.608 C 17.348 28.546 21.49 40.589 25.734 36.476" fill="rgb(232,188,155)"/><path d=" M 64.724 30.014 C 64.724 30.014 67.53 22.67 71.642 25.608 C 75.754 28.546 70.754 40.536 66.509 36.423" fill="rgb(232,188,155)"/><path d=" M 22.178 240.516 L 24.719 258.394 L 37.707 257.144 L 36.879 239.791 L 22.178 240.516 Z " fill="rgb(254,254,254)"/><path d=" M 22.178 265.291 C 22.178 265.291 17.637 254.65 31.616 253.219 C 43.649 251.986 42.988 262.929 42.988 262.929" fill="rgb(76,55,103)"/><path d=" M 28.424 256.693 C 28.424 256.693 22.99 251.252 30.284 250.417 C 37.577 249.582 34.922 255.107 34.922 255.107" fill="rgb(76,55,103)"/><path d=" M 35.786 258.444 C 35.902 259.332 33.985 258.303 31.823 258.588 C 29.662 258.872 28.075 260.36 27.958 259.471 C 27.841 258.583 29.24 255.655 31.401 255.371 C 33.562 255.087 35.669 257.555 35.786 258.444 Z " fill="rgb(98,81,123)"/><path d=" M 21.361 263.839 C 20.765 264.659 21.451 267.105 22.45 267.288 C 23.448 267.469 42.302 265.554 43.267 264.787 C 44.23 264.021 44.008 261.783 43.352 260.921 C 42.694 260.059 22.088 262.841 21.361 263.839 Z " fill="rgb(94,76,119)"/><path d=" M 64.92 235.98 L 58.568 251.951 L 46.144 247.104 L 50.921 230.283 L 64.92 235.98 Z " fill="rgb(254,254,254)"/><path d=" M 38.453 247.233 L 33.455 247.852 L 22.233 249.229 C 22.233 249.229 8.128 186.375 5.265 170.045 C 3.83 161.864 5.884 155.56 9.156 151.202 C 11.38 148.238 14.173 146.184 16.837 145.036 C 22.842 142.452 37.964 145.476 39.869 157.505 C 41.775 169.536 38.453 247.233 38.453 247.233 Z " fill="rgb(117,82,129)"/><path d=" M 22.233 249.229 C 22.233 249.229 17.999 230.357 13.698 210.607 C 12.757 206.285 11.812 201.916 10.908 197.697 C 8.406 186.018 6.216 175.468 5.265 170.045 C 4.946 168.224 4.799 166.495 4.8 164.861 C 4.804 159.154 6.612 154.589 9.156 151.202 C 9.894 153.177 9.644 155.43 9.694 157.696 C 9.794 162.712 10.512 167.69 11.3 172.638 C 13.874 188.718 17.166 204.688 21.186 220.469 C 22.483 225.576 23.859 230.694 25.994 235.512 C 27.939 239.921 30.493 244.032 33.455 247.852 L 23.396 249.086 L 22.233 249.229 Z " fill="rgb(104,73,115)"/><path d=" M 99.852 165.206 C 95.102 176.428 63.67 241.876 63.67 241.876 L 47.69 236.45 C 47.69 236.45 48.817 231.503 50.523 224.031 C 55.052 204.121 63.65 166.283 65.755 156.369 C 68.658 142.743 79.821 141.356 86.913 142.443 C 89.486 142.831 92.829 144.757 95.612 147.641 C 99.791 151.969 102.704 158.473 99.852 165.206 Z " fill="rgb(117,82,129)"/><path d=" M 63.67 241.876 L 62.706 241.549 L 49.04 236.908 L 47.69 236.45 C 47.69 236.45 48.817 231.503 50.523 224.031 C 52.548 222.883 54.523 221.657 56.388 220.26 C 61.057 216.749 64.848 212.22 68.329 207.541 C 75.541 197.856 81.596 187.271 85.985 176.02 C 89.227 167.711 92.446 160.123 94.634 148.857 C 94.732 148.351 95.262 148.029 95.612 147.641 C 98.632 150.769 100.991 155.032 100.99 159.699 C 100.99 161.489 100.643 163.339 99.852 165.206 C 99.257 166.611 98.246 168.862 96.93 171.73 C 95.272 175.343 93.132 179.931 90.737 185.026 C 89.979 186.638 89.195 188.303 88.393 190.002 C 88.041 190.748 87.687 191.499 87.328 192.258 C 86.483 194.047 85.623 195.863 84.753 197.697 C 81.943 203.629 79.043 209.723 76.332 215.41 C 72.62 223.192 69.257 230.224 66.929 235.081 C 64.908 239.299 63.67 241.876 63.67 241.876 Z " fill="rgb(104,73,115)"/><path d=" M 46.728 29.326 C 45.351 29.451 43.809 37.159 46.811 37.417 C 49.815 37.672 49.342 29.088 46.728 29.326 Z " fill="rgb(227,161,141)"/><path d=" M 33.188 26.771 C 33.524 28.565 42.168 27.506 42.005 25.266 C 41.843 23.026 32.494 23.073 33.188 26.771 Z " fill="rgb(230,230,230)"/><path d=" M 59.423 28.234 C 58.646 29.884 50.547 26.683 51.268 24.557 C 51.989 22.43 61.026 24.829 59.423 28.234 Z " fill="rgb(230,230,230)"/><path d=" M 41.787 39.667 C 41.787 39.667 47.779 39.702 52.573 38.75 C 51.681 45.255 42.17 44.407 41.787 39.667 Z " fill="rgb(254,254,254)"/><path d=" M 40.455 250.2 C 40.455 250.2 41.495 238.677 54.485 244.039 C 65.667 248.653 59.9 257.977 59.9 257.977" fill="rgb(76,55,103)"/><path d=" M 50.027 245.586 C 50.027 245.586 47.821 238.221 54.639 240.94 C 61.458 243.66 56.502 247.269 56.502 247.269" fill="rgb(76,55,103)"/><path d=" M 55.682 250.615 C 55.364 251.453 54.163 249.64 52.124 248.865 C 50.086 248.092 47.983 248.65 48.302 247.813 C 48.62 246.975 51.238 245.059 53.276 245.832 C 55.314 246.607 56 249.777 55.682 250.615 Z " fill="rgb(98,81,123)"/><path d=" M 40.423 248.534 C 39.508 248.974 38.955 251.454 39.749 252.088 C 40.542 252.72 58.053 259.964 59.265 259.746 C 60.477 259.527 61.341 257.452 61.172 256.381 C 61.002 255.311 41.535 247.999 40.423 248.534 Z " fill="rgb(94,76,119)"/><path d=" M 19.128 241.983 L 21.139 249.362 L 39.368 247.121 L 40.455 240.338 L 19.128 241.983 Z " fill="rgb(138,110,161)"/><path d=" M 48.221 229.355 L 46.921 236.063 L 64.92 242.695 L 68.562 236.729 L 48.221 229.355 Z " fill="rgb(138,110,161)"/><path d=" M 18.952 107.279 L 19.766 103.428 L 62.86 103.428 L 18.952 107.279 Z " fill="rgb(147,93,134)"/><path d=" M 14.255 137.772 L 15.128 126.269 L 15.131 126.268 L 14.502 134.512 L 14.255 137.772 Z  M 76.499 137.698 L 76.499 137.698 L 75.282 123.939 C 75.282 123.939 75.284 123.939 75.286 123.939 L 76.499 137.698 Z  M 12.642 126.408 C 12.562 126.408 12.482 126.408 12.401 126.407 C 12.482 126.408 12.562 126.408 12.642 126.408 L 12.642 126.408 Z  M 12.644 126.408 C 14.129 126.408 15.131 126.264 15.131 126.264 L 15.131 126.264 C 15.131 126.264 14.13 126.408 12.644 126.408 Z " fill="rgb(171,75,117)"/><path d=" M 14.246 137.895 L 14.255 137.772 L 14.502 134.512 L 15.131 126.268 L 15.131 126.268 L 15.131 126.264 L 15.131 126.264 C 15.131 126.264 14.129 126.408 12.644 126.408 C 12.643 126.408 12.643 126.408 12.642 126.408 C 12.562 126.408 12.482 126.408 12.401 126.407 C 8.434 126.365 1.419 125.258 0.193 118.116 C 0.193 118.114 0.193 118.111 0.192 118.109 C 0.189 118.09 0.186 118.071 0.183 118.052 C 0.167 117.957 0.152 117.861 0.138 117.764 C 0.047 117.124 0 115.971 0 114.44 C 0.001 110.078 0.391 102.644 1.285 95.259 C 1.365 98.332 1.645 101.405 2.143 104.447 C 2.971 109.574 4.507 114.851 8.148 118.562 C 11.45 121.923 16.158 123.62 20.847 124.128 C 21.622 124.212 22.398 124.259 23.175 124.288 L 49.844 117.73 L 62.86 113.905 L 54.741 118.924 L 75.286 123.934 L 75.286 123.939 C 75.284 123.939 75.282 123.939 75.282 123.939 L 76.498 137.698 L 51.575 123.934 L 14.246 137.895 Z " fill="rgb(147,93,134)"/><path d=" M 58.472 103.813 C 58.472 103.813 63.902 107.16 62.86 113.904 C 67.064 107.574 68.721 105.808 68.721 105.808 L 74.34 105.353 C 74.34 105.353 65.578 95.435 58.472 103.813 Z " fill="rgb(232,188,155)"/><path d=" M 33.714 105.984 C 33.714 105.984 29.223 100.319 27.376 100.319 C 25.53 100.319 18.306 103.428 18.306 103.428 L 18.126 107.351 L 33.714 105.984 Z " fill="rgb(232,188,155)"/><path d=" M 33.714 60.174 L 30.374 65.067 L 46.983 97.317 L 64.724 66.33 L 59.496 60.174 L 47.179 67.159 L 33.714 60.174 Z " fill="rgb(254,254,254)"/><path d=" M 47.179 67.159 L 42.817 73.537 L 47.549 76.03 L 51.35 73.315 L 47.179 67.159 Z " fill="rgb(253,198,99)"/><path d=" M 45.73 72.894 L 42.17 87.971 L 46.983 97.317 L 52.232 88.149 L 48.081 72.894" fill="rgb(253,198,99)"/><path d=" M 56.531 103.983 L 59.754 101.901 C 59.754 101.901 65.233 105.543 65.562 112.325 C 64.308 114.167 62.86 113.904 62.86 113.904 C 62.86 113.904 61.616 107.178 56.531 103.983 Z " fill="rgb(254,254,254)"/><path d=" M 31.136 106.21 L 32.324 103.759 L 37.579 105.646 L 31.136 106.21 Z " fill="rgb(254,254,254)"/><path d=" M 33.628 11.744 C 33.628 11.744 36.627 15.034 34.983 19.291 C 34.402 17.162 32.757 14.744 32.757 14.744" fill="rgb(230,230,230)"/><path d=" M 65.941 16.486 C 65.941 16.486 65.554 32.216 65.941 31.993 C 66.328 31.771 68.844 27.901 68.457 22.677" fill="rgb(230,230,230)"/><path d=" M 27.339 23.754 L 27.339 33.179 C 27.339 33.179 24.63 29.353 25.792 23.258" fill="rgb(230,230,230)"/><path d=" M 31.694 7.778 C 31.694 7.778 31.789 4.393 34.305 3.424 C 33.434 4.875 33.15 6.907 33.15 6.907" fill="rgb(230,230,230)"/><path d=" M 32.757 7.198 C 32.757 7.198 30.629 2.844 27.146 4.585 C 30.436 5.94 30.374 7.778 30.374 7.778" fill="rgb(230,230,230)"/></g><path d=" M 37.03 31.701 C 37.131 31.758 37.295 31.731 37.405 31.702 C 37.928 31.562 38.54 31.486 39.185 31.476 C 39.652 31.469 40.136 31.497 40.617 31.56 C 40.705 31.572 40.798 31.585 40.877 31.575 C 41.002 31.559 41.053 31.489 41.029 31.422 C 40.886 31.018 39.296 30.863 38.703 30.883 C 38.031 30.907 37.447 31.069 37.116 31.326 C 37.001 31.415 36.914 31.523 36.972 31.641 L 37.03 31.701 Z " fill="rgb(54,46,51)"/><path d=" M 52.658 31.701 C 52.759 31.758 52.923 31.731 53.033 31.702 C 53.556 31.562 54.168 31.486 54.813 31.476 C 55.28 31.469 55.764 31.497 56.245 31.56 C 56.333 31.572 56.426 31.585 56.505 31.575 C 56.63 31.559 56.681 31.489 56.657 31.422 C 56.514 31.018 54.924 30.863 54.331 30.883 C 53.659 30.907 53.074 31.069 52.744 31.326 C 52.628 31.415 52.541 31.523 52.6 31.641 L 52.658 31.701 Z " fill="rgb(54,46,51)"/></g><g><g><path d=" M 44.808 30.485 M 44.561 31.781 C 44.557 31.781 44.553 31.781 44.549 31.781 C 44.44 31.775 44.357 31.683 44.363 31.576 C 44.364 31.567 44.42 30.628 44.42 30.44 C 44.42 30.04 45.692 29.351 46.994 29.351 C 47.103 29.351 47.192 29.438 47.192 29.545 C 47.192 29.652 47.103 29.739 46.994 29.739 C 45.819 29.739 44.937 30.305 44.816 30.472 C 44.812 30.721 44.761 31.562 44.759 31.599 C 44.753 31.702 44.665 31.781 44.561 31.781 Z " fill="rgb(0,0,0)"/><path d=" M 49.102 30.485 M 49.349 31.781 C 49.245 31.781 49.157 31.702 49.151 31.599 C 49.149 31.562 49.098 30.721 49.094 30.472 C 48.973 30.305 48.091 29.739 46.916 29.739 C 46.807 29.739 46.718 29.652 46.718 29.545 C 46.718 29.438 46.807 29.351 46.916 29.351 C 48.218 29.351 49.49 30.04 49.49 30.44 C 49.49 30.628 49.546 31.567 49.547 31.576 C 49.553 31.683 49.47 31.775 49.361 31.781 C 49.357 31.781 49.353 31.781 49.349 31.781 Z " fill="rgb(0,0,0)"/></g><path d=" M 55.882 26.968 C 54.422 26.968 53.121 27.258 52.06 27.826 C 50.754 28.526 49.935 29.584 49.692 30.886 C 49.206 33.49 52.077 36.066 55.964 36.512 C 58.033 36.749 59.969 36.45 61.416 35.67 C 62.724 34.965 63.555 33.917 63.82 32.64 C 64.339 30.141 61.43 27.592 57.467 27.075 C 56.922 27.004 56.392 26.968 55.882 26.968 Z  M 57.329 36.95 C 56.858 36.95 56.377 36.922 55.889 36.866 C 51.746 36.391 48.687 33.63 49.209 30.837 C 49.467 29.456 50.378 28.284 51.774 27.536 C 53.314 26.711 55.312 26.429 57.552 26.721 C 59.592 26.988 61.423 27.755 62.709 28.882 C 64.01 30.022 64.576 31.376 64.302 32.695 L 64.061 32.668 L 64.302 32.695 C 64.017 34.068 63.118 35.197 61.704 35.96 C 60.497 36.61 58.979 36.95 57.329 36.95 Z " fill="rgb(0,0,0)"/><path d=" M 38.277 26.551 C 39.736 26.599 41.027 26.93 42.069 27.533 C 43.351 28.274 44.136 29.358 44.337 30.667 C 44.739 33.286 41.785 35.768 37.886 36.087 C 35.81 36.257 33.885 35.896 32.464 35.07 C 31.18 34.322 30.383 33.248 30.159 31.964 C 29.721 29.449 32.712 26.996 36.689 26.607 C 37.236 26.553 37.767 26.535 38.277 26.551 Z  M 36.507 36.481 C 36.978 36.496 37.46 36.484 37.95 36.444 C 42.106 36.104 45.252 33.443 44.821 30.634 C 44.608 29.246 43.735 28.045 42.365 27.252 C 40.852 26.377 38.864 26.031 36.615 26.251 C 34.569 26.451 32.713 27.159 31.391 28.243 C 30.054 29.34 29.445 30.675 29.676 32.002 L 29.917 31.983 L 29.676 32.002 C 29.916 33.384 30.778 34.541 32.167 35.35 C 33.352 36.039 34.859 36.428 36.507 36.481 Z " fill="rgb(0,0,0)"/><path d=" M 29.962 30.86 C 29.962 30.86 28.724 30.86 27.711 30.86 C 26.698 30.86 26.698 31.245 27.711 31.245 C 28.724 31.245 29.737 31.245 29.737 31.245 L 29.962 30.86 Z " fill="rgb(0,0,0)"/><path d=" M 63.943 31.387 C 63.943 31.387 64.926 31.387 65.731 31.387 C 66.535 31.387 66.535 31.772 65.731 31.772 C 64.926 31.772 64.121 31.772 64.121 31.772 L 63.943 31.387 Z " fill="rgb(0,0,0)"/></g></g></svg>