<?xml version="1.0" encoding="UTF-8" standalone="no"?><!-- Generator: Gravit.io --><svg xmlns="http://www.w3.org/2000/svg" xmlns:xlink="http://www.w3.org/1999/xlink" style="isolation:isolate" viewBox="0 0 101 267.3" width="101pt" height="267.3pt"><defs><clipPath id="_clipPath_BknSjrz1sbqI5ZFet3B0z1ac29nQpew9"><rect width="101" height="267.3"/></clipPath></defs><g clip-path="url(#_clipPath_BknSjrz1sbqI5ZFet3B0z1ac29nQpew9)"><g><path d=" M 43.658 63.831 L 34.639 104.031 L 27.958 63.831 L 28.038 61.991 L 28.348 54.83 L 28.858 42.951 L 42.879 44.51 L 43.318 55.38 L 43.578 61.84 L 43.658 63.831 Z " fill="rgb(252,219,194)"/><path d=" M 34.882 63.872 C 32.05 63.872 29.731 62.979 28.038 61.991 L 28.348 54.83 L 43.318 55.38 L 43.578 61.84 C 41.748 62.701 39.178 63.581 35.948 63.831 C 35.585 63.859 35.23 63.872 34.882 63.872 Z " fill="rgb(250,190,163)"/><path d=" M 60.318 90.011 C 63.448 105.251 63.358 132.81 63.358 132.81 L 53.368 133.58 L 8.549 137.04 C 8.549 137.04 13.379 125.951 13.248 116.68 C 13.078 103.721 11.768 104.15 12.168 92.891 C 12.188 92.601 12.198 92.32 12.218 92.04 L 1.168 85.351 C 2.528 72.69 17.848 66.73 24.688 64.69 C 26.629 64.11 27.888 63.851 27.948 63.84 L 27.958 63.831 L 35.948 75.63 L 43.658 63.831 C 43.658 63.831 45.038 63.871 47.219 64.161 C 54.719 65.17 71.688 69.241 73.988 85.351 C 71.478 86.69 62.388 88.991 60.318 90.011 Z " fill="rgb(95,198,204)"/><path d=" M 47.219 64.161 L 35.808 82.701 L 24.688 64.69 C 26.629 64.11 27.888 63.851 27.948 63.84 L 27.958 63.831 L 35.948 75.63 L 43.658 63.831 C 43.658 63.831 45.038 63.871 47.219 64.161 Z " fill="rgb(254,254,254)"/><path d=" M 73.988 12.19 C 73.988 18.931 68.528 24.391 61.799 24.391 C 56.898 24.391 52.678 21.5 50.738 17.331 C 50.009 15.77 49.608 14.031 49.608 12.19 C 49.608 5.46 55.058 0 61.799 0 C 64.908 0 67.738 1.161 69.888 3.07 C 72.398 5.311 73.988 8.561 73.988 12.19 Z " fill="rgb(184,126,67)"/><path d=" M 71.018 8.201 C 71.018 14.94 65.558 20.4 58.828 20.4 C 55.728 20.4 52.898 19.241 50.738 17.331 C 50.009 15.77 49.608 14.031 49.608 12.19 C 49.608 5.46 55.058 0 61.799 0 C 64.908 0 67.738 1.161 69.888 3.07 C 70.608 4.63 71.018 6.371 71.018 8.201 Z " fill="rgb(198,147,71)"/><path d=" M 28.489 15.783 C 28.489 15.783 38.33 8.725 52.113 15.408 C 64.459 21.394 65.053 47.963 49.013 52.541 C 29.67 58.063 28.489 15.783 28.489 15.783 Z " fill="rgb(198,147,71)"/><path d=" M 11.806 98.654 L 64.719 100.435 L 64.719 114.34 L 11.806 114.34 L 11.806 98.654 Z " fill="rgb(254,254,254)"/><path d=" M 51.514 133.188 C 51.499 133.133 51.483 133.077 51.465 133.021 C 51.976 132.775 52.547 132.499 53.182 132.191 C 53.182 132.191 53.182 132.19 53.182 132.19 C 53.548 132.013 53.927 131.83 54.318 131.64 C 56.219 130.71 58.388 129.64 60.629 128.51 L 60.629 128.51 L 60.629 128.51 C 61.516 128.063 62.412 127.607 63.306 127.147 C 63.353 129.902 63.358 131.845 63.358 132.534 C 63.358 132.537 63.358 132.54 63.358 132.543 C 63.358 132.546 63.358 132.549 63.358 132.552 C 63.358 132.555 63.358 132.558 63.358 132.561 C 63.358 132.563 63.358 132.566 63.358 132.569 C 63.358 132.727 63.358 132.81 63.358 132.81 L 63.355 132.81 C 63.354 132.807 63.353 132.806 63.353 132.806 L 51.514 133.188 Z  M 42.812 125.115 C 39.868 124.4 35.229 123.386 30.645 122.41 C 36.702 120.387 43.266 117.646 47.219 114.34 L 47.219 114.34 L 57.367 114.34 L 45.768 122.93 L 42.812 125.115 Z  M 59.903 100.273 L 56.762 100.167 C 57.788 97.806 58.589 95.6 59.168 93.851 L 59.903 100.273 Z " fill="rgb(81,180,186)"/><path d=" M 57.367 114.34 L 47.219 114.34 C 51.43 110.819 54.598 105.148 56.762 100.167 L 59.903 100.273 L 61.188 111.51 L 57.367 114.34 Z " fill="rgb(216,207,215)"/><path d=" M 77.208 118.611 C 76.618 120.151 68.259 124.661 60.629 128.51 C 58.388 129.64 56.219 130.71 54.318 131.64 C 50.589 133.451 47.929 134.701 47.929 134.701 L 41.668 125.981 L 41.658 125.97 L 41.668 125.96 L 45.768 122.93 L 61.188 111.51 L 58.978 92.19 L 58.629 89.141 L 73.988 85.351 C 73.988 85.351 78.318 115.72 77.208 118.611 Z " fill="rgb(252,219,194)"/><path d=" M 51.465 133.021 C 51.465 133.02 51.465 133.019 51.464 133.018 C 51.993 132.764 52.569 132.487 53.182 132.19 C 53.182 132.19 53.182 132.191 53.182 132.191 C 52.547 132.499 51.976 132.775 51.465 133.021 Z " fill="rgb(83,151,161)"/><path d=" M 51.464 133.018 C 50.733 130.662 47.983 126.841 45.738 125.92 C 45.333 125.755 44.285 125.473 42.812 125.115 L 45.768 122.93 C 47.937 123.53 50.145 125.024 51.967 127.804 C 52.714 128.945 53.082 131.02 53.182 132.19 C 52.569 132.487 51.993 132.764 51.464 133.018 Z " fill="rgb(248,183,170)"/><path d=" M 60.629 128.51 C 79.438 111.151 69.698 90.011 69.698 90.011 L 58.978 92.19 L 58.629 89.141 L 73.988 85.351 C 73.988 85.351 77.393 109.229 77.39 116.655 C 77.39 117.603 77.334 118.283 77.208 118.611 C 76.618 120.151 68.259 124.661 60.629 128.51 Z " fill="rgb(248,183,170)"/><path d=" M 24.094 32.859 C 24.094 32.859 22.295 25.186 17.815 27.551 C 13.334 29.915 15.829 42.436 20.598 38.922" fill="rgb(252,219,194)"/><path d=" M 33.371 59.613 C 58.486 63.136 57.603 33.377 57.603 33.377 C 57.603 33.377 38.84 31.39 28.489 15.783 C 15.594 25.983 13.472 56.821 33.371 59.613 Z " fill="rgb(252,219,194)"/><path d=" M 51.029 44.406 C 50.8 46.102 49.238 47.29 47.542 47.061 C 45.846 46.831 44.657 45.27 44.887 43.574 C 45.117 41.877 46.677 40.689 48.374 40.918 C 50.07 41.148 51.259 42.709 51.029 44.406 Z " fill="rgb(243,143,165)"/><path d=" M 26.217 39.687 C 26.006 41.246 24.571 42.339 23.011 42.127 C 21.453 41.916 20.36 40.481 20.571 38.922 C 20.782 37.363 22.218 36.27 23.776 36.482 C 25.336 36.693 26.428 38.128 26.217 39.687 Z " fill="rgb(243,143,165)"/><path d=" M 54.351 38.691 C 54.351 38.691 58.127 31.773 61.816 35.245 C 65.507 38.716 58.926 49.955 55.262 45.298" fill="rgb(252,219,194)"/><path d=" M 30.527 34.474 C 30.415 35.306 29.649 35.889 28.817 35.776 C 27.985 35.664 27.402 34.898 27.515 34.066 C 27.628 33.234 28.393 32.651 29.225 32.764 C 30.057 32.877 30.64 33.643 30.527 34.474 Z " fill="rgb(71,48,84)"/><path d=" M 45.422 37.936 C 45.309 38.768 44.544 39.351 43.712 39.238 C 42.88 39.125 42.297 38.36 42.41 37.528 C 42.522 36.696 43.288 36.113 44.12 36.226 C 44.951 36.339 45.534 37.104 45.422 37.936 Z " fill="rgb(71,48,84)"/><path d=" M 9.331 134.547 L 6.363 160.59 C 6.363 160.59 59.657 164.529 66.17 157.441 C 72.682 150.353 63.353 132.806 63.353 132.806 L 9.331 134.547 Z " fill="rgb(215,94,108)"/><path d=" M 37.88 31.956 C 36.671 30.791 32.091 39.766 35.289 40.806 C 38.49 41.846 38.939 32.977 37.88 31.956 Z " fill="rgb(246,162,136)"/><path d=" M 30.686 41.376 C 30.686 41.376 36.542 43.528 41.084 43.984 C 38.317 49.796 29.229 46.471 30.686 41.376 Z " fill="rgb(254,254,254)"/><path d=" M 51.528 139.64 C 51.748 139.951 51.528 142.691 49.778 141.59 C 49.868 143.8 48.738 143.271 48.738 143.271 C 48.738 143.271 47.268 139.22 43.748 134.3 C 42.768 133.38 25.259 133.34 12.938 132.191 C 6.678 131.59 1.758 130.71 1.038 129.281 C -1.371 124.5 1.168 85.351 1.168 85.351 L 16.358 88.25 L 16.348 90.011 L 16.228 119.411 C 16.228 119.411 43.238 124.901 45.738 125.92 C 48.228 126.941 51.339 131.531 51.629 133.731 C 51.908 135.93 52.268 139.741 51.528 139.64 Z " fill="rgb(252,219,194)"/><path d=" M 10.435 131.926 C 5.403 131.337 1.659 130.513 1.038 129.281 C 0.264 127.745 0 122.661 0 116.468 C -0.002 103.385 1.168 85.351 1.168 85.351 L 16.358 88.25 L 16.341 91.225 L 4.938 90.011 C 4.938 90.011 -1.46 116.45 12.054 131.266 C 11.509 131.469 10.973 131.687 10.448 131.92 C 10.443 131.923 10.44 131.924 10.435 131.926 Z " fill="rgb(248,183,170)"/><path d=" M 35.438 253.06 L 23.098 248.59 L 18.768 231.6 L 13.238 209.92 L 10.228 198.111 L 25.738 195.3 L 27.608 206.441 L 32.138 233.441 L 35.438 253.06 Z " fill="rgb(254,254,254)"/><path d=" M 61.882 254.868 L 50.413 248.509 L 48.123 232.772 L 44.055 204.818 L 42.767 195.95 L 58.493 194.844 L 59.281 208.768 L 60.609 232.378 L 61.882 254.868 Z " fill="rgb(254,254,254)"/><path d=" M 25.7 232.397 C 23.402 232.397 21.006 232.096 18.768 231.6 L 18.768 231.6 L 16.246 221.712 C 19.112 222.487 23.614 223.238 30.445 223.349 L 31.808 231.477 C 30.012 232.121 27.901 232.397 25.7 232.397 Z " fill="rgb(233,228,231)"/><path d=" M 60.609 232.378 L 60.609 232.378 L 60.608 232.365 C 60.617 232.362 60.626 232.361 60.63 232.361 C 60.638 232.361 60.637 232.365 60.609 232.378 Z " fill="rgb(234,215,198)"/><path d=" M 54.277 233.495 C 52.213 233.495 50.044 233.244 48.123 232.772 L 48.123 232.772 L 46.645 222.614 C 53.564 221.927 57.594 220.959 59.92 220.129 L 60.608 232.365 L 60.608 232.365 L 60.609 232.378 L 60.609 232.378 L 60.609 232.378 L 60.609 232.378 C 59.045 233.139 56.736 233.495 54.277 233.495 Z " fill="rgb(233,228,231)"/><path d=" M 62.988 218.451 C 62.988 218.451 60.708 222.06 38.938 223.18 C 17.158 224.3 11.808 219.89 11.808 219.89 C 11.808 219.89 11.038 217.501 9.888 213.5 C 4.498 194.741 -9.102 140.6 10.448 131.92 C 21.728 126.911 37.759 129.05 44.658 133.481 C 45.879 134.271 47.028 135.651 48.129 137.521 C 51.578 143.361 54.448 153.911 56.768 165.521 C 61.598 189.71 62.988 218.451 62.988 218.451 Z " fill="rgb(240,103,109)"/><path d=" M 32.186 223.362 C 31.59 223.362 31.009 223.358 30.445 223.349 C 23.614 223.238 19.112 222.487 16.246 221.712 C 12.932 220.816 11.808 219.89 11.808 219.89 C 11.808 219.89 11.038 217.501 9.888 213.5 C 12.49 214.527 15.307 215.045 18.12 215.045 C 23.203 215.045 28.273 213.354 32.038 209.911 C 34.978 207.231 37.089 203.75 38.728 200.13 C 41.978 192.96 43.509 185.14 45.018 177.411 C 47.568 164.251 50.138 150.76 48.129 137.521 C 51.578 143.361 54.448 153.911 56.768 165.521 C 61.598 189.71 62.988 218.451 62.988 218.451 C 62.988 218.451 62.512 219.204 59.92 220.129 C 57.594 220.959 53.564 221.927 46.645 222.614 C 44.395 222.837 41.84 223.031 38.938 223.18 C 36.484 223.306 34.239 223.362 32.186 223.362 Z " fill="rgb(226,97,104)"/><path d=" M 54.551 30.687 C 54.551 30.687 51.713 36.317 55.511 39.731 C 57.475 34.196 58.629 30.34 58.629 30.34" fill="rgb(198,147,71)"/><path d=" M 48.91 245.362 L 47.287 245.362 C 46.624 245.362 46.087 244.825 46.087 244.162 L 46.087 243.526 C 46.087 242.863 46.624 242.326 47.287 242.326 L 48.91 242.326 C 49.573 242.326 50.11 242.863 50.11 243.526 L 50.11 244.162 C 50.11 244.825 49.573 245.362 48.91 245.362 Z " fill="rgb(253,195,75)"/><path d=" M 49.406 250.234 L 47.783 250.234 C 47.121 250.234 46.583 249.697 46.583 249.034 L 46.583 248.398 C 46.583 247.735 47.121 247.198 47.783 247.198 L 49.406 247.198 C 50.069 247.198 50.606 247.735 50.606 248.398 L 50.606 249.034 C 50.606 249.697 50.069 250.234 49.406 250.234 Z " fill="rgb(253,195,75)"/><path d=" M 47.443 238.852 L 62.989 238.852 L 63.317 248.49 C 68.671 251.008 68.671 259.127 68.671 259.127 L 46.629 259.127 C 46.629 259.127 46.136 253.741 48.39 249.335 L 47.443 238.852 Z " fill="rgb(79,66,83)"/><path d=" M 68.671 261.377 L 46.949 261.377 L 46.629 259.127 L 68.671 259.127 L 68.671 261.377 Z " fill="rgb(253,195,75)"/><path d=" M 49.407 254.839 C 49.407 254.839 56.487 247.681 65.429 254.402 C 56.288 243.843 49.407 254.839 49.407 254.839 Z " fill="rgb(253,195,75)"/><path d=" M 18.765 238.852 L 34.311 238.852 L 38.332 259.127 L 5.258 259.127 C 5.258 259.127 5.928 251.008 21.426 249.335 L 18.765 238.852 Z " fill="rgb(79,66,83)"/><path d=" M 38.332 261.377 L 5.258 261.377 L 5.258 259.127 L 38.332 259.127 L 38.332 261.377 Z " fill="rgb(253,195,75)"/><path d=" M 30.995 245.362 L 26.057 245.362 C 25.395 245.362 24.857 244.825 24.857 244.162 L 24.857 243.526 C 24.857 242.863 25.395 242.326 26.057 242.326 L 30.995 242.326 C 31.657 242.326 32.195 242.863 32.195 243.526 L 32.195 244.162 C 32.195 244.825 31.657 245.362 30.995 245.362 Z " fill="rgb(253,195,75)"/><path d=" M 32.195 251.008 L 27.258 251.008 C 26.595 251.008 26.057 250.471 26.057 249.808 L 26.057 249.172 C 26.057 248.509 26.595 247.972 27.258 247.972 L 32.195 247.972 C 32.857 247.972 33.395 248.509 33.395 249.172 L 33.395 249.808 C 33.395 250.471 32.857 251.008 32.195 251.008 Z " fill="rgb(253,195,75)"/><path d=" M 26.243 28.709 C 26.221 30.41 34.176 30.594 33.91 28.709 C 33.643 26.825 26.269 26.603 26.243 28.709 Z " fill="rgb(184,126,67)"/><path d=" M 42.784 31.287 C 42.085 32.837 49.303 36.183 49.812 34.349 C 50.321 32.515 43.649 29.366 42.784 31.287 Z " fill="rgb(184,126,67)"/><path d=" M 28.489 15.783 C 28.489 15.783 19.56 21.662 19.785 30.34 C 25.219 25.273 32.646 17.181 32.646 17.181 L 28.489 15.783 Z " fill="rgb(198,147,71)"/><path d=" M 49.225 139.568 C 49.225 139.568 51.97 157.409 49.225 175.175 L 64.264 165.658 L 51.96 137.521 L 49.225 139.568 Z " fill="rgb(254,254,254)"/></g></g></svg>