<?xml version="1.0" encoding="UTF-8" standalone="no"?><!-- Generator: Gravit.io --><svg xmlns="http://www.w3.org/2000/svg" xmlns:xlink="http://www.w3.org/1999/xlink" style="isolation:isolate" viewBox="0 0 75.9 109.7" width="75.9pt" height="109.7pt"><defs><clipPath id="_clipPath_qCXKYSsn4dl05ePwtwYYQQHfylEXZPpA"><rect width="75.9" height="109.7"/></clipPath></defs><g clip-path="url(#_clipPath_qCXKYSsn4dl05ePwtwYYQQHfylEXZPpA)"><rect width="75.9" height="109.7" style="fill:rgb(238,254,255)" fill-opacity="0"/><g><path d=" M 75.9 17.713 L 75.9 12.009 C 75.9 5.377 72.143 0 67.51 0 L 8.39 0 C 3.756 0 0 5.377 0 12.009 L 0 82.165 C 0 88.798 3.756 94.174 8.39 94.174 L 16.943 94.174 L 25.365 94.174 L 67.51 94.174 C 72.143 94.174 75.9 88.798 75.9 82.165 L 75.9 24.722 L 75.9 17.713 L 75.9 17.713 Z " fill="rgb(207,220,229)"/><path d=" M 1.906 82.165 L 1.906 12.009 C 1.906 5.377 5.662 0 10.296 0 L 8.39 0 C 3.756 0 0 5.377 0 12.009 L 0 82.165 C 0 88.798 3.756 94.174 8.39 94.174 L 10.296 94.174 C 5.662 94.174 1.906 88.798 1.906 82.165 Z " fill="rgb(186,198,204)"/><g><path d=" M 40.251 39.443 L 40.251 43.562 C 40.251 45.034 39.417 46.228 38.389 46.228 L 35.511 46.228 C 34.483 46.228 33.649 45.034 33.649 43.562 L 33.649 39.443 C 33.649 37.972 34.483 36.777 35.511 36.777 L 38.389 36.777 C 39.417 36.777 40.251 37.971 40.251 39.443 Z " fill="rgb(78,191,237)"/><path d=" M 40.251 57.745 L 40.251 61.867 C 40.251 63.338 39.417 64.53 38.389 64.53 L 35.511 64.53 C 34.483 64.53 33.649 63.339 33.649 61.867 L 33.649 57.745 C 33.649 56.273 34.483 55.079 35.511 55.079 L 38.389 55.079 C 39.417 55.079 40.251 56.273 40.251 57.745 Z " fill="rgb(78,191,237)"/><path d=" M 40.251 76.047 L 40.251 80.168 C 40.251 81.64 39.417 82.832 38.389 82.832 L 35.511 82.832 C 34.483 82.832 33.649 81.64 33.649 80.168 L 33.649 76.047 C 33.649 74.575 34.483 73.381 35.511 73.381 L 38.389 73.381 C 39.417 73.38 40.251 74.575 40.251 76.047 Z " fill="rgb(78,191,237)"/><path d=" M 54.452 76.047 L 54.452 80.168 C 54.452 81.64 53.618 82.832 52.589 82.832 L 49.712 82.832 C 48.684 82.832 47.849 81.64 47.849 80.168 L 47.849 76.047 C 47.849 74.575 48.684 73.381 49.712 73.381 L 52.589 73.381 C 53.618 73.38 54.452 74.575 54.452 76.047 Z " fill="rgb(78,191,237)"/><path d=" M 54.452 57.745 L 54.452 61.867 C 54.452 63.338 53.618 64.53 52.589 64.53 L 49.712 64.53 C 48.684 64.53 47.849 63.339 47.849 61.867 L 47.849 57.745 C 47.849 56.273 48.684 55.079 49.712 55.079 L 52.589 55.079 C 53.618 55.079 54.452 56.273 54.452 57.745 Z " fill="rgb(78,191,237)"/><path d=" M 54.452 39.443 L 54.452 43.562 C 54.452 45.034 53.618 46.228 52.589 46.228 L 49.712 46.228 C 48.684 46.228 47.849 45.034 47.849 43.562 L 47.849 39.443 C 47.849 37.972 48.684 36.777 49.712 36.777 L 52.589 36.777 C 53.618 36.777 54.452 37.971 54.452 39.443 Z " fill="rgb(78,191,237)"/><path d=" M 68.653 39.443 L 68.653 43.562 C 68.653 45.034 67.818 46.228 66.79 46.228 L 63.913 46.228 C 62.884 46.228 62.05 45.034 62.05 43.562 L 62.05 39.443 C 62.05 37.972 62.884 36.777 63.913 36.777 L 66.79 36.777 C 67.818 36.777 68.653 37.971 68.653 39.443 Z " fill="rgb(78,191,237)"/><path d=" M 68.653 57.745 L 68.653 61.867 C 68.653 63.338 67.818 64.53 66.79 64.53 L 63.913 64.53 C 62.884 64.53 62.05 63.339 62.05 61.867 L 62.05 57.745 C 62.05 56.273 62.884 55.079 63.913 55.079 L 66.79 55.079 C 67.818 55.079 68.653 56.273 68.653 57.745 Z " fill="rgb(78,191,237)"/><path d=" M 68.653 76.047 L 68.653 80.168 C 68.653 81.64 67.818 82.832 66.79 82.832 L 63.913 82.832 C 62.884 82.832 62.05 81.64 62.05 80.168 L 62.05 76.047 C 62.05 74.575 62.884 73.381 63.913 73.381 L 66.79 73.381 C 67.818 73.38 68.653 74.575 68.653 76.047 Z " fill="rgb(78,191,237)"/></g><path d=" M 68.653 16.148 L 68.653 23.732 C 68.653 26.387 67.148 28.537 65.294 28.537 L 37.008 28.537 C 35.153 28.537 33.649 26.387 33.649 23.732 L 33.649 16.148 C 33.649 13.493 35.153 11.34 37.008 11.34 L 65.294 11.34 C 67.148 11.34 68.653 13.494 68.653 16.148 Z " fill="rgb(255,255,255)"/><path d=" M 65.294 29.858 L 37.008 29.858 C 34.647 29.858 32.727 27.11 32.727 23.732 L 32.727 16.148 C 32.727 12.77 34.647 10.021 37.008 10.021 L 65.294 10.021 C 67.654 10.021 69.575 12.77 69.575 16.148 L 69.575 23.732 C 69.575 27.11 67.654 29.858 65.294 29.858 Z  M 37.008 12.661 C 35.664 12.661 34.571 14.225 34.571 16.148 L 34.571 23.732 C 34.571 25.654 35.664 27.217 37.008 27.217 L 65.294 27.217 C 66.637 27.217 67.731 25.654 67.731 23.732 L 67.731 16.148 C 67.731 14.225 66.637 12.661 65.294 12.661 L 37.008 12.661 Z " fill="rgb(186,198,204)"/><g><path d=" M 38.389 47.284 L 35.511 47.284 C 34.078 47.284 32.911 45.614 32.911 43.562 L 32.911 39.443 C 32.911 37.391 34.078 35.721 35.511 35.721 L 38.389 35.721 C 39.823 35.721 40.989 37.391 40.989 39.443 L 40.989 43.562 C 40.989 45.614 39.823 47.284 38.389 47.284 Z  M 35.511 37.833 C 34.891 37.833 34.386 38.556 34.386 39.443 L 34.386 43.562 C 34.386 44.45 34.891 45.172 35.511 45.172 L 38.389 45.172 C 39.009 45.172 39.514 44.45 39.514 43.562 L 39.514 39.443 C 39.514 38.556 39.009 37.833 38.389 37.833 L 35.511 37.833 Z " fill="rgb(59,164,188)"/><path d=" M 66.79 47.284 L 63.913 47.284 C 62.479 47.284 61.312 45.614 61.312 43.562 L 61.312 39.443 C 61.312 37.391 62.479 35.721 63.913 35.721 L 66.79 35.721 C 68.224 35.721 69.39 37.391 69.39 39.443 L 69.39 43.562 C 69.391 45.614 68.224 47.284 66.79 47.284 Z  M 63.913 37.833 C 63.292 37.833 62.788 38.556 62.788 39.443 L 62.788 43.562 C 62.788 44.45 63.292 45.172 63.913 45.172 L 66.79 45.172 C 67.41 45.172 67.915 44.45 67.915 43.562 L 67.915 39.443 C 67.915 38.556 67.41 37.833 66.79 37.833 L 63.913 37.833 Z " fill="rgb(59,164,188)"/><path d=" M 52.589 47.284 L 49.712 47.284 C 48.278 47.284 47.112 45.614 47.112 43.562 L 47.112 39.443 C 47.112 37.391 48.278 35.721 49.712 35.721 L 52.589 35.721 C 54.023 35.721 55.19 37.391 55.19 39.443 L 55.19 43.562 C 55.19 45.614 54.023 47.284 52.589 47.284 Z  M 49.712 37.833 C 49.092 37.833 48.587 38.556 48.587 39.443 L 48.587 43.562 C 48.587 44.45 49.092 45.172 49.712 45.172 L 52.589 45.172 C 53.21 45.172 53.714 44.45 53.714 43.562 L 53.714 39.443 C 53.714 38.556 53.21 37.833 52.589 37.833 L 49.712 37.833 Z " fill="rgb(59,164,188)"/><path d=" M 38.389 65.586 L 35.511 65.586 C 34.078 65.586 32.911 63.917 32.911 61.866 L 32.911 57.745 C 32.911 55.693 34.078 54.023 35.511 54.023 L 38.389 54.023 C 39.823 54.023 40.989 55.693 40.989 57.745 L 40.989 61.866 C 40.989 63.917 39.823 65.586 38.389 65.586 Z  M 35.511 56.135 C 34.891 56.135 34.386 56.857 34.386 57.745 L 34.386 61.866 C 34.386 62.753 34.891 63.473 35.511 63.473 L 38.389 63.473 C 39.009 63.473 39.514 62.753 39.514 61.866 L 39.514 57.745 C 39.514 56.857 39.009 56.135 38.389 56.135 L 35.511 56.135 Z " fill="rgb(59,164,188)"/><path d=" M 66.79 65.586 L 63.913 65.586 C 62.479 65.586 61.312 63.917 61.312 61.866 L 61.312 57.745 C 61.312 55.693 62.479 54.023 63.913 54.023 L 66.79 54.023 C 68.224 54.023 69.39 55.693 69.39 57.745 L 69.39 61.866 C 69.391 63.917 68.224 65.586 66.79 65.586 Z  M 63.913 56.135 C 63.292 56.135 62.788 56.857 62.788 57.745 L 62.788 61.866 C 62.788 62.753 63.292 63.473 63.913 63.473 L 66.79 63.473 C 67.41 63.473 67.915 62.753 67.915 61.866 L 67.915 57.745 C 67.915 56.857 67.41 56.135 66.79 56.135 L 63.913 56.135 Z " fill="rgb(59,164,188)"/><path d=" M 52.589 65.586 L 49.712 65.586 C 48.278 65.586 47.112 63.917 47.112 61.866 L 47.112 57.745 C 47.112 55.693 48.278 54.023 49.712 54.023 L 52.589 54.023 C 54.023 54.023 55.19 55.693 55.19 57.745 L 55.19 61.866 C 55.19 63.917 54.023 65.586 52.589 65.586 Z  M 49.712 56.135 C 49.092 56.135 48.587 56.857 48.587 57.745 L 48.587 61.866 C 48.587 62.753 49.092 63.473 49.712 63.473 L 52.589 63.473 C 53.21 63.473 53.714 62.753 53.714 61.866 L 53.714 57.745 C 53.714 56.857 53.21 56.135 52.589 56.135 L 49.712 56.135 Z " fill="rgb(59,164,188)"/><path d=" M 38.389 83.887 L 35.511 83.887 C 34.078 83.887 32.911 82.219 32.911 80.168 L 32.911 76.047 C 32.911 73.994 34.078 72.324 35.511 72.324 L 38.389 72.324 C 39.823 72.324 40.989 73.994 40.989 76.047 L 40.989 80.168 C 40.989 82.219 39.823 83.887 38.389 83.887 Z  M 35.511 74.437 C 34.891 74.437 34.386 75.159 34.386 76.047 L 34.386 80.168 C 34.386 81.054 34.891 81.775 35.511 81.775 L 38.389 81.775 C 39.009 81.775 39.514 81.054 39.514 80.168 L 39.514 76.047 C 39.514 75.159 39.009 74.437 38.389 74.437 L 35.511 74.437 Z " fill="rgb(59,164,188)"/><path d=" M 66.79 83.887 L 63.913 83.887 C 62.479 83.887 61.312 82.219 61.312 80.168 L 61.312 76.047 C 61.312 73.994 62.479 72.324 63.913 72.324 L 66.79 72.324 C 68.224 72.324 69.39 73.994 69.39 76.047 L 69.39 80.168 C 69.391 82.219 68.224 83.887 66.79 83.887 Z  M 63.913 74.437 C 63.292 74.437 62.788 75.159 62.788 76.047 L 62.788 80.168 C 62.788 81.054 63.292 81.775 63.913 81.775 L 66.79 81.775 C 67.41 81.775 67.915 81.054 67.915 80.168 L 67.915 76.047 C 67.915 75.159 67.41 74.437 66.79 74.437 L 63.913 74.437 Z " fill="rgb(59,164,188)"/><path d=" M 52.589 83.887 L 49.712 83.887 C 48.278 83.887 47.112 82.219 47.112 80.168 L 47.112 76.047 C 47.112 73.994 48.278 72.324 49.712 72.324 L 52.589 72.324 C 54.023 72.324 55.19 73.994 55.19 76.047 L 55.19 80.168 C 55.19 82.219 54.023 83.887 52.589 83.887 Z  M 49.712 74.437 C 49.092 74.437 48.587 75.159 48.587 76.047 L 48.587 80.168 C 48.587 81.054 49.092 81.775 49.712 81.775 L 52.589 81.775 C 53.21 81.775 53.714 81.054 53.714 80.168 L 53.714 76.047 C 53.714 75.159 53.21 74.437 52.589 74.437 L 49.712 74.437 Z " fill="rgb(59,164,188)"/></g><path d=" M 21.154 109.687 C 18.069 109.687 15.559 106.095 15.559 101.679 L 15.559 82.831 L 18.326 82.831 L 18.326 101.679 C 18.326 103.911 19.595 105.727 21.154 105.727 C 21.909 105.727 22.619 105.306 23.153 104.541 C 23.688 103.776 23.982 102.759 23.982 101.679 L 23.982 94.174 L 26.749 94.174 L 26.749 101.679 C 26.749 103.817 26.167 105.827 25.11 107.341 C 24.052 108.854 22.648 109.687 21.154 109.687 Z " fill="rgb(49,74,95)"/><path d=" M 8.156 79.1 C 8.144 78.943 8.138 78.781 8.138 78.618 L 8.138 16.348 C 8.138 13.803 9.58 11.737 11.36 11.737 L 9.46 11.737 C 7.68 11.737 6.238 13.803 6.238 16.348 L 6.238 78.618 C 6.238 78.781 6.244 78.944 6.256 79.101 C 6.424 81.419 7.794 83.227 9.46 83.227 L 11.36 83.227 C 9.693 83.227 8.324 81.419 8.156 79.1 Z " fill="rgb(186,198,204)"/><path d=" M 26.54 16.348 L 26.54 78.618 C 26.54 81.164 25.099 83.227 23.318 83.227 L 10.567 83.227 C 8.9 83.227 7.531 81.419 7.363 79.1 C 7.351 78.943 7.345 78.781 7.345 78.618 L 7.345 16.348 C 7.345 13.803 8.787 11.737 10.567 11.737 L 23.318 11.737 C 24.341 11.737 25.251 12.418 25.841 13.483 C 26.28 14.271 26.54 15.266 26.54 16.348 Z " fill="rgb(78,191,237)"/></g></g></svg>