<?xml version="1.0" encoding="UTF-8" standalone="no"?><!-- Generator: Gravit.io --><svg xmlns="http://www.w3.org/2000/svg" xmlns:xlink="http://www.w3.org/1999/xlink" style="isolation:isolate" viewBox="0 0 238 434" width="238pt" height="434pt"><defs><clipPath id="_clipPath_ptOfUtCjJRzycZeA7mrS3LCN7W3wsv9Y"><rect width="238" height="434"/></clipPath></defs><g clip-path="url(#_clipPath_ptOfUtCjJRzycZeA7mrS3LCN7W3wsv9Y)"><g><path d="M 24.906 82.62 L 213.094 82.62 C 214.698 82.62 216 83.922 216 85.526 L 216 412.784 C 216 414.388 214.698 415.69 213.094 415.69 L 24.906 415.69 C 23.302 415.69 22 414.388 22 412.784 L 22 85.526 C 22 83.922 23.302 82.62 24.906 82.62 Z" style="stroke:none;fill:#E27D3E;stroke-miterlimit:10;opacity:0.69;"/><path d="M 24.906 82.62 L 213.094 82.62 C 214.698 82.62 216 83.922 216 85.526 L 216 412.784 C 216 414.388 214.698 415.69 213.094 415.69 L 24.906 415.69 C 23.302 415.69 22 414.388 22 412.784 L 22 85.526 C 22 83.922 23.302 82.62 24.906 82.62 Z" style="fill:none;stroke:#000000;stroke-width:2;stroke-linecap:square;stroke-miterlimit:2;"/><mask id="_mask_1wnmqWsTNnx7tzNNBbxsZDhpELXMr1uR"><ellipse vector-effect="non-scaling-stroke" cx="119.09374999999999" cy="413.75029772098543" rx="96.875" ry="20.24970227901457" fill="white" stroke="none"/></mask><ellipse vector-effect="non-scaling-stroke" cx="119.09374999999999" cy="413.75029772098543" rx="96.875" ry="20.24970227901457" fill="rgb(226,125,62)"/><ellipse vector-effect="non-scaling-stroke" cx="119.09374999999999" cy="413.75029772098543" rx="96.875" ry="20.24970227901457" fill="rgb(226,125,62)" mask="url(#_mask_1wnmqWsTNnx7tzNNBbxsZDhpELXMr1uR)" stroke-width="2" stroke="rgb(28,28,28)" stroke-linejoin="miter" stroke-linecap="butt" stroke-miterlimit="3"/><path d="M 3.412 71.55 L 234.588 71.55 C 236.471 71.55 238 73.079 238 74.962 L 238 80.138 C 238 82.021 236.471 83.55 234.588 83.55 L 3.412 83.55 C 1.529 83.55 0 82.021 0 80.138 L 0 74.962 C 0 73.079 1.529 71.55 3.412 71.55 Z" style="stroke:none;fill:#E27D3E;stroke-miterlimit:10;"/><path d="M 3.412 71.55 L 234.588 71.55 C 236.471 71.55 238 73.079 238 74.962 L 238 80.138 C 238 82.021 236.471 83.55 234.588 83.55 L 3.412 83.55 C 1.529 83.55 0 82.021 0 80.138 L 0 74.962 C 0 73.079 1.529 71.55 3.412 71.55 Z" style="fill:none;stroke:#000000;stroke-width:2;stroke-linecap:square;stroke-miterlimit:2;"/><path d="M 3.412 59.73 L 234.588 59.73 C 236.471 59.73 238 61.259 238 63.142 L 238 68.318 C 238 70.201 236.471 71.73 234.588 71.73 L 3.412 71.73 C 1.529 71.73 0 70.201 0 68.318 L 0 63.142 C 0 61.259 1.529 59.73 3.412 59.73 Z" style="stroke:none;fill:#FEFEFE;stroke-miterlimit:10;"/><path d="M 3.412 59.73 L 234.588 59.73 C 236.471 59.73 238 61.259 238 63.142 L 238 68.318 C 238 70.201 236.471 71.73 234.588 71.73 L 3.412 71.73 C 1.529 71.73 0 70.201 0 68.318 L 0 63.142 C 0 61.259 1.529 59.73 3.412 59.73 Z" style="fill:none;stroke:#000000;stroke-width:2;stroke-linecap:square;stroke-miterlimit:2;"/><path d="M 8.957 8.75 L 228.483 8.75 C 229.9 8.75 231.05 9.9 231.05 11.317 L 231.05 58.163 C 231.05 59.58 229.9 60.73 228.483 60.73 L 8.957 60.73 C 7.54 60.73 6.39 59.58 6.39 58.163 L 6.39 11.317 C 6.39 9.9 7.54 8.75 8.957 8.75 Z" style="stroke:none;fill:#EEEDED;stroke-miterlimit:10;"/><path d="M 8.957 8.75 L 228.483 8.75 C 229.9 8.75 231.05 9.9 231.05 11.317 L 231.05 58.163 C 231.05 59.58 229.9 60.73 228.483 60.73 L 8.957 60.73 C 7.54 60.73 6.39 59.58 6.39 58.163 L 6.39 11.317 C 6.39 9.9 7.54 8.75 8.957 8.75 Z" style="fill:none;stroke:#000000;stroke-width:2;stroke-linecap:square;stroke-miterlimit:2;"/><rect x="22.969" y="168.597" width="192.125" height="180.308" transform="matrix(1,0,0,1,0,0)" fill="rgb(244,241,241)"/><mask id="_mask_ZFbtgYAcATdmMQianX6UxuwkN3o775Z5"><ellipse vector-effect="non-scaling-stroke" cx="118.71874999999999" cy="10.842400885093163" rx="111.327275638672" ry="10.84240088509316" fill="white" stroke="none"/></mask><ellipse vector-effect="non-scaling-stroke" cx="118.71874999999999" cy="10.842400885093163" rx="111.327275638672" ry="10.84240088509316" fill="rgb(254,254,254)"/><ellipse vector-effect="non-scaling-stroke" cx="118.71874999999999" cy="10.842400885093163" rx="111.327275638672" ry="10.84240088509316" fill="rgb(254,254,254)" mask="url(#_mask_ZFbtgYAcATdmMQianX6UxuwkN3o775Z5)" stroke-width="2" stroke="rgb(28,28,28)" stroke-linejoin="miter" stroke-linecap="butt" stroke-miterlimit="3"/><rect x="34.001" y="102.398" width="24.886" height="275.918" transform="matrix(0.984,0.181,0,1.017,0.763,-12.402)" fill="rgb(254,254,254)" fill-opacity="0.39"/><g><path d="M 20.342 29.25 L 20.538 29.25 C 21.19 29.25 21.72 29.78 21.72 30.433 L 21.72 52.657 C 21.72 53.31 21.19 53.84 20.538 53.84 L 20.342 53.84 C 19.69 53.84 19.16 53.31 19.16 52.657 L 19.16 30.433 C 19.16 29.78 19.69 29.25 20.342 29.25 Z" style="stroke:none;fill:#BDB9B9;stroke-miterlimit:10;"/><path d="M 48.762 29.25 L 48.958 29.25 C 49.61 29.25 50.14 29.78 50.14 30.433 L 50.14 52.657 C 50.14 53.31 49.61 53.84 48.958 53.84 L 48.762 53.84 C 48.11 53.84 47.58 53.31 47.58 52.657 L 47.58 30.433 C 47.58 29.78 48.11 29.25 48.762 29.25 Z" style="stroke:none;fill:#BDB9B9;stroke-miterlimit:10;"/><path d="M 80.462 29.25 L 80.658 29.25 C 81.31 29.25 81.84 29.78 81.84 30.433 L 81.84 52.657 C 81.84 53.31 81.31 53.84 80.658 53.84 L 80.462 53.84 C 79.81 53.84 79.28 53.31 79.28 52.657 L 79.28 30.433 C 79.28 29.78 79.81 29.25 80.462 29.25 Z" style="stroke:none;fill:#BDB9B9;stroke-miterlimit:10;"/><path d="M 114.342 29.25 L 114.538 29.25 C 115.19 29.25 115.72 29.78 115.72 30.433 L 115.72 52.657 C 115.72 53.31 115.19 53.84 114.538 53.84 L 114.342 53.84 C 113.69 53.84 113.16 53.31 113.16 52.657 L 113.16 30.433 C 113.16 29.78 113.69 29.25 114.342 29.25 Z" style="stroke:none;fill:#BDB9B9;stroke-miterlimit:10;"/><path d="M 147.132 29.25 L 147.328 29.25 C 147.98 29.25 148.51 29.78 148.51 30.433 L 148.51 52.657 C 148.51 53.31 147.98 53.84 147.328 53.84 L 147.132 53.84 C 146.48 53.84 145.95 53.31 145.95 52.657 L 145.95 30.433 C 145.95 29.78 146.48 29.25 147.132 29.25 Z" style="stroke:none;fill:#BDB9B9;stroke-miterlimit:10;"/><path d="M 179.922 29.25 L 180.118 29.25 C 180.77 29.25 181.3 29.78 181.3 30.433 L 181.3 52.657 C 181.3 53.31 180.77 53.84 180.118 53.84 L 179.922 53.84 C 179.27 53.84 178.74 53.31 178.74 52.657 L 178.74 30.433 C 178.74 29.78 179.27 29.25 179.922 29.25 Z" style="stroke:none;fill:#BDB9B9;stroke-miterlimit:10;"/><path d="M 218.172 29.25 L 218.368 29.25 C 219.02 29.25 219.55 29.78 219.55 30.433 L 219.55 52.657 C 219.55 53.31 219.02 53.84 218.368 53.84 L 218.172 53.84 C 217.52 53.84 216.99 53.31 216.99 52.657 L 216.99 30.433 C 216.99 29.78 217.52 29.25 218.172 29.25 Z" style="stroke:none;fill:#BDB9B9;stroke-miterlimit:10;"/></g></g></g></svg>